<?xml version="1.0" encoding="UTF-8"?>
<svg version="1.1" xmlns="http://www.w3.org/2000/svg" width="780" height="780">
<path d="M0 0 C1.00044468 -0.00171833 2.00088936 -0.00343666 3.03165054 -0.00520706 C6.34297575 -0.00951558 9.65425032 -0.00658725 12.96557617 -0.00341797 C15.34110024 -0.00460562 17.71662417 -0.00612965 20.09214783 -0.00796509 C27.81429166 -0.01173254 35.53640642 -0.00409826 43.25854492 0.00439453 C45.91442868 0.0066669 48.57031247 0.00890473 51.22619629 0.0111084 C68.28764895 0.02647905 85.34901053 0.06327253 102.41039717 0.11243343 C107.02422615 0.1256617 111.63805712 0.13732208 116.25189209 0.14831543 C130.67852693 0.18383608 145.10473237 0.24323412 159.53109741 0.33892822 C163.95755757 0.36774167 168.38391887 0.38764599 172.81045532 0.39984131 C177.99643508 0.41472325 183.18194063 0.44870182 188.36770821 0.49757767 C190.25027018 0.51227161 192.13289717 0.52043463 194.01551628 0.52131271 C212.59705549 0.53842351 224.46827396 4.90154556 237.9087677 18.16331482 C238.81140854 19.06888626 239.71404938 19.9744577 240.64404297 20.9074707 C241.63009971 21.88617101 242.61677146 22.86425201 243.60400391 23.84176636 C246.26178809 26.47749385 248.91001478 29.12262247 251.5558393 31.77034926 C253.77475925 33.98938963 255.99801962 36.20405727 258.22114784 38.41888028 C263.4702265 43.64878265 268.71115839 48.88675215 273.94726562 54.12963867 C279.32871081 59.51772344 284.72474118 64.89088044 290.12801141 70.25707072 C294.78612829 74.88439073 299.43441663 79.52142962 304.0752185 84.16611463 C306.83850904 86.93146199 309.60534597 89.69299604 312.38196373 92.44496727 C314.99443539 95.03500794 317.59432657 97.63707547 320.18549347 100.24842453 C321.57865111 101.64656059 322.98403669 103.03247985 324.38990784 104.41783142 C334.43797977 114.59917834 339.78007715 125.18266776 339.70674133 139.53425598 C339.71056688 140.34187352 339.71439243 141.14949107 339.7183339 141.98158187 C339.72859039 144.66739503 339.72468581 147.35299147 339.72070312 150.03881836 C339.72505371 151.97286678 339.73023801 153.90691348 339.7361908 155.84095764 C339.74955575 161.0807443 339.75016217 166.32045872 339.7476275 171.5602591 C339.74655594 175.94126325 339.75144597 180.32225289 339.75623292 184.70325392 C339.76731977 195.04330993 339.76777034 205.3833296 339.76171875 215.72338867 C339.75568097 226.3740864 339.76798694 237.02465195 339.78928882 247.67532712 C339.80692994 256.8339795 339.81290215 265.99258991 339.80965108 275.15125865 C339.80784185 280.61490676 339.81043828 286.07846062 339.82436562 291.54209328 C339.83697994 296.68282204 339.83496577 301.8233455 339.82195473 306.96407127 C339.81959712 308.84453782 339.82229419 310.72501897 339.83057785 312.60546875 C339.90820427 331.60594822 336.64639906 344.25747748 322.8561697 358.2055397 C321.35193622 359.70216009 319.83884096 361.18942276 318.32495117 362.67626953 C317.25472042 363.74155913 316.18531425 364.80767769 315.11668396 365.87457275 C312.89123686 368.09244116 310.65955867 370.30374926 308.42236328 372.50976562 C305.57523459 375.31725178 302.73903869 378.13545858 299.90683079 380.95798874 C297.17468859 383.68009441 294.43769428 386.39729864 291.69995117 389.11376953 C291.18930178 389.62102318 290.67865238 390.12827682 290.15252876 390.65090179 C288.68467609 392.10698849 287.2134947 393.55962574 285.74121094 395.01123047 C284.90960953 395.83298767 284.07800812 396.65474487 283.22120667 397.50140381 C281.05568647 399.5520832 278.86528994 401.51419798 276.60966492 403.46180725 C272.40642766 407.11550926 268.45947213 410.98183213 264.53295898 414.92895508 C263.41430702 416.047388 263.41430702 416.047388 262.27305603 417.18841553 C259.8335465 419.62861595 257.39758921 422.07232937 254.96166992 424.51611328 C253.25654672 426.22310433 251.55120055 427.92987267 249.84564209 429.63642883 C245.37341077 434.11246259 240.90418985 438.59149031 236.43560791 443.07116699 C231.88491236 447.63210249 227.3313782 452.19020203 222.77807617 456.74853516 C215.43061016 464.1047789 208.084907 471.46277751 200.74137878 478.82295227 C200.09955154 479.46622467 199.4577243 480.10949707 198.79644775 480.77226257 C198.21003163 481.3619772 197.62361551 481.95169182 197.01942921 482.55927658 C195.70485755 483.8711192 194.36982982 485.16242155 193.03001404 486.44847107 C189.55467259 490.13653729 190.3133544 495.44261599 190.27026367 500.23095703 C190.24704566 501.62289891 190.22292755 503.01482601 190.19799805 504.40673828 C190.16312106 506.5720382 190.13365492 508.73679904 190.12011719 510.90234375 C190.01746146 524.67716332 187.74017729 535.71816853 177.78588867 545.81298828 C167.97053532 554.77872107 156.96692748 556.43134994 144.07397461 556.41992188 C142.42083504 556.42999771 142.42083504 556.42999771 140.73429871 556.4402771 C137.11212583 556.45918337 133.49013899 556.46317764 129.86791992 556.46533203 C127.33359706 556.47176518 124.79927494 556.47849393 122.26495361 556.48550415 C116.95924866 556.4974586 111.65361219 556.50127294 106.34790039 556.5 C100.24653526 556.49880027 94.14552479 556.51988054 88.0442493 556.55148733 C82.13946779 556.58096766 76.23479274 556.58797132 70.32993317 556.58678055 C67.8342672 556.58912875 65.33859814 556.59790783 62.84297943 556.61344528 C30.11685424 556.79811876 30.11685424 556.79811876 17.44604492 545.12939453 C9.10925107 535.61063557 6.99118498 526.41000625 7.04199219 514.00708008 C7.03512894 512.82535217 7.02826569 511.64362427 7.02119446 510.42608643 C7.00296953 506.53930471 7.00675859 502.65292836 7.01245117 498.76611328 C7.00997157 496.73726726 7.00562354 494.70843101 7.0010981 492.67958862 C6.98708951 486.30579806 6.98858238 479.93214163 7 473.55834961 C7.01146729 467.01275273 6.99742092 460.46756627 6.97060353 453.92202348 C6.94834851 448.27581223 6.94183136 442.62972887 6.94767994 436.98347694 C6.95102876 433.62288248 6.94703347 430.26275915 6.93142891 426.90216637 C6.91645279 423.14777018 6.92724659 419.39426212 6.94433594 415.63989258 C6.92983398 414.00060539 6.92983398 414.00060539 6.91503906 412.32820129 C7.00842734 402.46691614 9.23198857 393.09755803 15.38354492 385.19189453 C16.03194336 384.33724609 16.6803418 383.48259766 17.34838867 382.60205078 C21.22147364 378.03657074 25.60191626 374.03763025 30.03755188 370.02781677 C36.18175574 364.43256641 42.10360853 358.62699947 47.98193359 352.75463867 C49.07547887 351.66573887 50.16921445 350.57703016 51.26312256 349.48849487 C54.19253785 346.57201573 57.11877544 343.65237024 60.04396987 340.73165822 C61.87481889 338.903763 63.70624365 337.07644648 65.53783607 335.24929619 C71.27934521 329.5213952 77.01889993 323.79154676 82.75555247 318.05878168 C89.36104528 311.45779194 95.97307497 304.86344141 102.59070987 298.27462488 C107.72487259 293.16204393 112.85328975 288.04374635 117.97734243 282.92103285 C121.03141939 279.86800387 124.08787887 276.81745451 127.15035057 273.77284431 C130.020795 270.9188258 132.88405956 268.05779832 135.74189758 265.19115829 C136.79186063 264.14042267 137.84440136 263.09225569 138.89966774 262.04684639 C140.33753704 260.62162744 141.76532829 259.18626221 143.19255066 257.75038147 C143.99459521 256.94980348 144.79663977 256.14922548 145.6229887 255.32438755 C149.12491923 251.10799918 148.60597132 246.5285861 148.61401367 241.25830078 C148.61734207 240.49895737 148.62067047 239.73961395 148.62409973 238.95726013 C148.62915242 237.35440678 148.63150857 235.75154295 148.63134766 234.14868164 C148.63353416 231.70392448 148.65170712 229.25961881 148.6706543 226.81494141 C148.67358861 225.25439607 148.67557315 223.6938486 148.67651367 222.13330078 C148.68729195 221.04245934 148.68729195 221.04245934 148.69828796 219.92958069 C148.67123454 213.88480065 147.6380073 209.94949346 143.36401367 205.64892578 C142.76137695 205.04242188 142.15874023 204.43591797 141.5378418 203.81103516 C140.90942383 203.19421875 140.28100586 202.57740234 139.63354492 201.94189453 C138.70832031 200.99926758 138.70832031 200.99926758 137.7644043 200.03759766 C136.85464844 199.13364258 136.85464844 199.13364258 135.92651367 198.21142578 C135.10509888 197.39508667 135.10509888 197.39508667 134.26708984 196.56225586 C130.01571529 193.21712686 125.91147464 192.87761927 120.6237793 192.87060547 C119.95808426 192.86710083 119.29238922 192.86359619 118.60652161 192.85998535 C116.41750499 192.85122052 114.22881453 192.85699842 112.03979492 192.86376953 C110.51192157 192.86242137 108.98404864 192.86047957 107.45617676 192.85797119 C104.25858463 192.85502705 101.06110447 192.85929469 97.86352539 192.86865234 C93.77128944 192.88004651 89.67931587 192.87348324 85.58708954 192.86150742 C82.43347203 192.85426962 79.2799164 192.85658555 76.126297 192.861763 C74.6176602 192.86309419 73.10901774 192.86147041 71.60038757 192.85680389 C69.4895445 192.85170701 67.37912239 192.85949282 65.26831055 192.87060547 C63.46892029 192.87299225 63.46892029 192.87299225 61.63317871 192.87542725 C56.77540149 193.26252003 53.50592798 194.73906032 49.96557617 198.02783203 C49.35907227 198.58986328 48.75256836 199.15189453 48.12768555 199.73095703 C47.51086914 200.31619141 46.89405273 200.90142578 46.25854492 201.50439453 C45.63012695 202.08189453 45.00170898 202.65939453 44.35424805 203.25439453 C40.0169291 207.3180217 37.62073333 209.71300264 37.17480469 215.88134766 C37.15349772 217.39101427 37.14163154 218.90083335 37.13745117 220.41064453 C37.11226159 222.07471009 37.08686406 223.7387725 37.0612793 225.40283203 C37.03274352 228.00470938 37.00871157 230.60653133 36.98974609 233.20849609 C36.85773155 248.38291453 36.27229294 262.68204017 25.33666992 274.38720703 C14.50379966 284.51033751 3.31888715 286.43883662 -11.16308594 286.40405273 C-12.83589378 286.41171913 -12.83589378 286.41171913 -14.54249573 286.41954041 C-18.20131916 286.43335489 -21.85995253 286.43248591 -25.51879883 286.43017578 C-28.0789039 286.43406684 -30.63900833 286.43840235 -33.19911194 286.44316101 C-38.5543148 286.45060548 -43.90944887 286.45048426 -49.26464844 286.44506836 C-55.42906734 286.43902937 -61.59325794 286.45134757 -67.75763792 286.47263843 C-73.72062959 286.49246583 -79.68355133 286.49541801 -85.64657784 286.49190331 C-88.16900735 286.49241476 -90.69144066 286.49761939 -93.21385002 286.50771523 C-96.74788621 286.5201266 -100.28140111 286.51325961 -103.81542969 286.50170898 C-104.84485687 286.50935272 -105.87428406 286.51699646 -106.93490601 286.52487183 C-118.33867974 286.44297494 -130.30350163 283.56063735 -139.04614258 275.79736328 C-148.05489666 265.83172081 -151.01647335 255.3908922 -150.94213867 242.2824707 C-150.95002411 240.55376991 -150.95002411 240.55376991 -150.95806885 238.79014587 C-150.97121401 235.00074491 -150.96254804 231.21176813 -150.95239258 227.42236328 C-150.95441529 224.77353907 -150.95732453 222.12472743 -150.96109009 219.47590637 C-150.96653368 213.93058737 -150.95939534 208.38538859 -150.94506836 202.84008789 C-150.92876864 196.45814222 -150.93401633 190.07648454 -150.95054758 183.69454592 C-150.96423152 178.18846518 -150.9660479 172.68247036 -150.95823157 167.17637807 C-150.9535896 163.89972276 -150.95403614 160.62322985 -150.96284103 157.3465786 C-150.9705185 153.68569282 -150.95876173 150.0253478 -150.94213867 146.36450195 C-150.94821136 145.29969604 -150.95428406 144.23489014 -150.96054077 143.13781738 C-150.81173668 125.31560463 -144.26607237 113.04921711 -131.76000977 100.7043457 C-130.77924776 99.71843146 -129.79955746 98.73145015 -128.82084656 97.74349976 C-126.18535773 95.08965598 -123.53460793 92.45158382 -120.88006878 89.81681228 C-118.08889461 87.04215615 -115.31047522 84.25477428 -112.53009033 81.46931458 C-107.86174725 76.79646551 -103.18337041 72.13385143 -98.4987793 67.47729492 C-93.10137712 62.11194706 -87.72019677 56.73073986 -82.34742999 51.34073085 C-77.15404159 46.13141858 -71.94934234 40.93354866 -66.73947906 35.74071693 C-64.53351317 33.54158054 -62.33148984 31.33860828 -60.13265228 29.1323452 C-57.53813105 26.53010071 -54.93376094 23.93811224 -52.3218174 21.35335922 C-50.92167472 19.96326366 -49.53117202 18.56347891 -48.14109802 17.16331482 C-33.68367672 2.92107857 -19.7139734 -0.04378183 0 0 Z " fill="#323329" transform="translate(295.553955078125,1.87060546875)"/>
<path d="M0 0 C1.20819317 -0.00997172 1.20819317 -0.00997172 2.44079429 -0.02014488 C5.14910588 -0.03988376 7.85725244 -0.04522249 10.56562805 -0.05052185 C12.50380895 -0.0614137 14.4419856 -0.07308505 16.38015747 -0.08547974 C21.65306716 -0.11602669 26.92593314 -0.13301354 32.19891334 -0.14569592 C35.49307723 -0.15377527 38.7872285 -0.1639557 42.08138466 -0.17471123 C52.38741831 -0.20744327 62.69342139 -0.23133826 72.99949998 -0.24352509 C84.89725004 -0.25777701 96.79440663 -0.30163602 108.69196004 -0.37102658 C117.88698231 -0.42280595 127.08183582 -0.44769824 136.27700168 -0.45234722 C141.76934822 -0.45574607 147.26109503 -0.47061522 152.75328636 -0.51362801 C157.9220799 -0.55339771 163.08985558 -0.559776 168.25875664 -0.54072762 C170.15341034 -0.53946202 172.04811621 -0.55012539 173.94262314 -0.57374191 C190.04139853 -0.7629321 190.04139853 -0.7629321 195.22813416 3.70849609 C196.8800602 5.58109188 196.8800602 5.58109188 198.17622375 7.28761292 C198.90414124 7.97806702 199.63205872 8.66852112 200.3820343 9.37989807 C200.93673401 9.93983459 201.49143372 10.49977112 202.0629425 11.07667542 C202.69136047 11.70831604 203.31977844 12.33995667 203.96723938 12.99073792 C204.90599915 13.94206604 204.90599915 13.94206604 205.86372375 14.91261292 C206.50116516 15.55456604 207.13860657 16.19651917 207.79536438 16.85792542 C210.43660132 19.5182425 213.07317715 22.18297362 215.7035675 24.85401917 C218.16552908 27.27708719 220.68802813 29.61424667 223.23823547 31.94337463 C228.33486707 36.60075977 233.19588929 41.24046267 237.6254425 46.54933167 C239.25739021 48.37859295 240.98471997 49.90226046 242.86372375 51.47511292 C247.23816956 55.16871113 250.97753848 59.3531975 254.81245422 63.58790588 C257.89324969 66.96649525 261.03759633 70.01541674 264.59028625 72.90089417 C274.93565011 81.94671724 279.14468138 91.87868819 280.17622375 105.28761292 C280.31293371 109.50603726 280.31302515 113.72105873 280.30561829 117.94142151 C280.30824677 119.79955978 280.30824677 119.79955978 280.31092834 121.69523621 C280.31455897 125.07192613 280.31372975 128.44855424 280.31054926 131.82524061 C280.3079976 135.38509669 280.31037147 138.94495032 280.31193542 142.50480652 C280.31375134 148.49149543 280.31136846 154.47817198 280.30659485 160.46485901 C280.30117825 167.33622532 280.30289819 174.20756183 280.30842125 181.0789274 C280.31299884 187.01651427 280.31357973 192.95409229 280.31098258 198.89168036 C280.30944189 202.42057825 280.30916361 205.94946228 280.31251907 209.47835922 C280.31822498 217.00771751 280.2855176 224.53514792 280.19719696 232.06403351 C280.1777649 235.05073838 280.21320023 238.03166626 280.26112366 241.01789856 C280.28253085 248.18206139 280.29658416 254.05475041 275.3483429 259.73219299 C273.65173468 261.28125551 271.9257479 262.79857317 270.17622375 264.28761292 C268.79202733 265.68498404 267.40834187 267.08302796 266.0433569 268.49917126 C263.53812842 271.09239308 260.97461999 273.62757846 258.4223175 276.17433167 C257.31076782 277.28655731 256.19936641 278.39893117 255.08810425 279.51144409 C252.7760773 281.82493304 250.46228327 284.13663539 248.14717102 286.44703674 C245.19988522 289.38861273 242.25713159 292.33467541 239.31568813 295.28209209 C237.02765491 297.57376021 234.73721902 299.86301508 232.44607735 302.15157509 C231.360631 303.23636094 230.27590862 304.32187175 229.19196892 305.40816307 C227.67148678 306.93122189 226.14777206 308.45097704 224.62324524 309.96998596 C223.33159706 311.26044075 223.33159706 311.26044075 222.01385498 312.57696533 C219.82083338 314.67184949 217.60581642 316.66884811 215.31314087 318.64970398 C211.21559841 322.20778239 207.364154 325.96521953 203.53852844 329.81178284 C202.46376755 330.88632469 202.46376755 330.88632469 201.36729431 331.98257446 C199.0251811 334.32537817 196.68662028 336.67169331 194.34809875 339.01808167 C192.71023639 340.65781205 191.07215091 342.29731962 189.43385315 343.93661499 C185.13917238 348.23509709 180.84750236 352.53657279 176.55647278 356.83869934 C172.18674723 361.21866628 167.81418186 365.59579614 163.44184875 369.97315979 C156.38638909 377.03739519 149.33268826 384.10338112 142.28117371 391.17155457 C141.66458893 391.7895845 141.04800415 392.40761444 140.41273499 393.04437256 C139.84682899 393.61362646 139.280923 394.18288036 138.69786835 394.76938438 C137.4269633 396.03743627 136.13512781 397.28446574 134.83839417 398.52609253 C128.6385462 405.09651306 129.70053552 414.77907711 129.61372375 423.16261292 C129.58239318 425.78551995 129.5368974 428.40711017 129.4848175 431.02980042 C129.47249084 432.18335022 129.46016418 433.33690002 129.44746399 434.52540588 C129.17622375 437.28761292 129.17622375 437.28761292 127.17622375 439.28761292 C124.51275635 439.53485107 124.51275635 439.53485107 121.09004211 439.53053284 C119.81209274 439.53360947 118.53414337 439.5366861 117.21746826 439.53985596 C115.81699952 439.53295873 114.41653256 439.5256918 113.0160675 439.51808167 C111.5864262 439.51688997 110.15678411 439.51643668 108.72714233 439.51669312 C105.73022057 439.515128 102.73341822 439.50683552 99.73652649 439.49342346 C95.88712574 439.4764182 92.03785612 439.47260953 88.1884222 439.47336864 C85.23655944 439.47309729 82.28472557 439.4676219 79.33287239 439.4603672 C77.91303794 439.45717617 76.4932002 439.45521212 75.07336235 439.4544735 C73.09323328 439.45231541 71.11311632 439.44278623 69.13301086 439.43287659 C68.00431076 439.42906479 66.87561066 439.42525299 65.71270752 439.42132568 C63.17622375 439.28761292 63.17622375 439.28761292 62.17622375 438.28761292 C62.04408646 435.92715259 61.97645924 433.59512317 61.95161438 431.23268127 C61.9402243 430.49436066 61.92883423 429.75604004 61.917099 428.99534607 C61.80620474 421.2486547 61.7589642 413.50099572 61.71626282 405.75367737 C61.6940248 402.08002249 61.65231921 398.4073895 61.59321594 394.73414612 C61.52197156 390.29786111 61.48540697 385.86253458 61.47314453 381.42570686 C61.46276584 379.73801079 61.44039332 378.0503424 61.4055481 376.36297417 C61.3591051 373.99029766 61.35736676 371.62133989 61.36567688 369.24830627 C61.34208099 368.55863266 61.31848511 367.86895905 61.29417419 367.15838623 C61.40361539 360.65743982 64.82720986 357.5926351 69.17622375 353.28761292 C69.95387022 352.48968606 70.73151669 351.6917592 71.5327282 350.86965275 C74.27398739 348.07260353 77.04482441 345.30645932 79.82148743 342.54469299 C80.88027961 341.48782392 81.93884144 340.43072403 82.99719238 339.37341309 C85.26176984 337.11197697 87.52788625 334.85209887 89.79523277 332.5934391 C93.3827975 329.01947959 96.96647068 325.44163468 100.54959106 321.86322021 C108.1513325 314.27253993 115.75731162 306.68611238 123.36372375 299.10011292 C131.58760343 290.89828109 139.81073605 282.69570829 148.02900296 274.48825186 C151.58907653 270.93315074 155.15157147 267.38049964 158.71595991 263.82972491 C160.93237747 261.62077778 163.14671129 259.40975082 165.3604908 257.19816017 C166.38512875 256.17539048 167.41062893 255.15348375 168.43706512 254.13251877 C169.84110413 252.73572748 171.24173748 251.33551538 172.64221191 249.93515015 C173.42586215 249.15372052 174.20951239 248.3722909 175.0169096 247.56718159 C177.26038885 245.27469577 177.26038885 245.27469577 179.33459949 242.49714184 C179.9423355 241.76799729 180.55007151 241.03885275 181.17622375 240.28761292 C181.83622375 240.28761292 182.49622375 240.28761292 183.17622375 240.28761292 C183.44120667 239.69448303 183.70618958 239.10135315 183.97920227 238.49024963 C185.21379955 236.21846978 186.45919888 234.81555228 188.3285675 233.04542542 C188.94022766 232.45374573 189.55188782 231.86206604 190.18208313 231.25245667 C191.46389557 230.03155948 192.74773435 228.812786 194.03364563 227.59620667 C194.64659485 227.00194885 195.25954407 226.40769104 195.8910675 225.79542542 C196.449151 225.26578186 197.0072345 224.73613831 197.58222961 224.19044495 C201.98977345 218.92893527 202.61763237 214.19467496 202.58027649 207.62355042 C202.58713974 206.7739978 202.59400299 205.92444519 202.60107422 205.04914856 C202.61930872 202.25346453 202.61550997 199.45834339 202.6098175 196.66261292 C202.6143805 194.71257851 202.61968642 192.76254572 202.6257019 190.81251526 C202.63462611 186.7305802 202.63221722 182.64884087 202.62226868 178.56690979 C202.61077242 173.34130324 202.63100415 168.11637177 202.66018581 162.89085388 C202.6785478 158.86561305 202.67825547 154.84053405 202.67254829 150.81526184 C202.67239512 148.88877922 202.67843625 146.9622856 202.69083977 145.0358429 C202.70575016 142.34069148 202.69507312 139.64678829 202.67793274 136.95167542 C202.68760071 136.15980835 202.69726868 135.36794128 202.70722961 134.55207825 C202.61882872 127.89987691 199.96736546 123.8214478 195.27876282 119.14723206 C194.47707672 118.34093102 194.47707672 118.34093102 193.65919495 117.51834106 C193.0924707 116.95880234 192.52574646 116.39926361 191.94184875 115.82276917 C191.34499268 115.22637131 190.7481366 114.62997345 190.13319397 114.01550293 C188.8748419 112.76015769 187.61407461 111.50722929 186.35102844 110.25660706 C184.44066224 108.36441405 182.53833719 106.46442561 180.63716125 104.56300354 C172.43723102 96.38452994 172.43723102 96.38452994 163.78535461 88.69068909 C161.91842512 87.06282627 160.20837531 85.31942926 158.48872375 83.53761292 C154.21919268 79.20986097 150.14373368 76.52487027 143.97843742 76.15618515 C142.77562221 76.15172316 142.77562221 76.15172316 141.54850769 76.14717102 C140.62348953 76.14146088 139.69847137 76.13575073 138.74542236 76.12986755 C137.23366173 76.12819077 137.23366173 76.12819077 135.69136047 76.1264801 C134.09060921 76.11903275 134.09060921 76.11903275 132.45751953 76.11143494 C128.92364355 76.09681963 125.38981251 76.0900114 121.85591125 76.08448792 C119.39693704 76.07873479 116.93796284 76.07297708 114.47898865 76.06721497 C109.31914562 76.05670598 104.15931817 76.05086302 98.99946594 76.04737854 C92.40225241 76.04190207 85.80524612 76.0178915 79.20809746 75.98940659 C74.12587391 75.97073812 69.04369979 75.9655723 63.96144485 75.96404266 C61.53028865 75.9610238 59.09913315 75.95302127 56.66801071 75.93985748 C53.25766735 75.92271367 49.84782375 75.9246981 46.43745422 75.9311676 C45.44175919 75.92195282 44.44606415 75.91273804 43.42019653 75.90324402 C34.33179619 75.9569787 26.29706476 77.31780635 19.64888 83.90089417 C19.16371414 84.37191055 18.67854828 84.84292694 18.17868042 85.32821655 C17.09595958 86.38343886 16.02087343 87.44653552 14.95240784 88.51618958 C13.01702093 90.44638903 11.05398138 92.34537319 9.08589172 94.24220276 C5.33267333 97.86869169 1.6144502 101.52874153 -2.09062195 105.20436096 C-3.6318973 106.72891717 -5.17853869 108.24806597 -6.73027039 109.76197815 C-9.00419144 111.98109444 -11.26117764 114.21626006 -13.5151825 116.45558167 C-14.20576248 117.12349228 -14.89634247 117.79140289 -15.60784912 118.47955322 C-22.29250514 125.19389621 -24.26367493 131.30829763 -24.2651825 140.65480042 C-24.28499428 141.79599838 -24.28499428 141.79599838 -24.3052063 142.96025085 C-24.3457092 145.3610774 -24.36768374 147.76152433 -24.38627625 150.16261292 C-24.41007711 152.58501243 -24.43812034 155.0070555 -24.47805786 157.429245 C-24.50239754 158.92934177 -24.51727027 160.42962861 -24.52166748 161.92991638 C-24.59916052 167.06299719 -24.59916052 167.06299719 -26.82377625 169.28761292 C-29.59440613 169.5415802 -29.59440613 169.5415802 -33.16947937 169.54640198 C-33.82004807 169.54990662 -34.47061676 169.55341125 -35.14089966 169.55702209 C-37.29571642 169.56583921 -39.45020603 169.55999054 -41.60502625 169.55323792 C-43.09953372 169.55458458 -44.59404078 169.55652512 -46.08854675 169.55903625 C-49.22250027 169.56198748 -52.35633986 169.55768999 -55.49028015 169.5483551 C-59.51227638 169.53696048 -63.5340057 169.54351997 -67.55599213 169.55550003 C-70.64258341 169.56271872 -73.72911117 169.56043068 -76.81570435 169.55524445 C-78.29890982 169.55390797 -79.78212103 169.55555561 -81.26531982 169.56020355 C-83.33639356 169.56526903 -85.40703191 169.55755876 -87.47807312 169.54640198 C-88.65784729 169.54481079 -89.83762146 169.5432196 -91.05314636 169.5415802 C-93.82377625 169.28761292 -93.82377625 169.28761292 -95.82377625 167.28761292 C-96.0272038 164.84513675 -96.10702327 162.51553949 -96.09843445 160.07154846 C-96.10354538 159.32826294 -96.10865631 158.58497742 -96.11392212 157.81916809 C-96.12785788 155.35414139 -96.12685795 152.88939316 -96.1245575 150.42433167 C-96.12844317 148.71280818 -96.13277757 147.00128566 -96.13754272 145.2897644 C-96.14501417 141.69762552 -96.14470767 138.10558489 -96.13945007 134.51344299 C-96.13366404 129.91324033 -96.15056082 125.31344141 -96.17379475 120.71330547 C-96.18854077 117.17622531 -96.18940244 113.63924207 -96.18628502 110.10213661 C-96.18679812 108.40648921 -96.19203379 106.71083636 -96.20209694 105.01521873 C-96.2144566 102.64050138 -96.20767221 100.26656614 -96.1960907 97.89186096 C-96.20373444 97.19297256 -96.21137817 96.49408417 -96.21925354 95.77401733 C-96.13947531 88.35985362 -92.5074002 84.67182544 -87.45365906 79.70631409 C-86.91826508 79.17223434 -86.38287109 78.6381546 -85.83125305 78.08789062 C-84.06769673 76.33080184 -82.29726851 74.58080544 -80.52690125 72.83058167 C-79.29191375 71.60187221 -78.05744508 70.37264109 -76.82347107 69.14291382 C-73.57531672 65.90804462 -70.32164744 62.67878507 -67.06632996 59.4511261 C-61.86977011 54.29770378 -56.67982879 49.13764018 -51.49329376 43.97413063 C-49.69060923 42.18157222 -47.88449582 40.39252466 -46.07798767 38.6038208 C-40.95530471 33.51848958 -35.91169415 28.41866087 -31.22618103 22.92056274 C-29.27898338 20.65326011 -27.20049885 18.53473975 -25.08940125 16.42042542 C-24.26826843 15.59800354 -23.44713562 14.77558167 -22.60112 13.92823792 C-21.76709656 13.09808167 -20.93307312 12.26792542 -20.07377625 11.41261292 C-19.22428406 10.55925354 -18.37479187 9.70589417 -17.4995575 8.82667542 C-16.68358093 8.01198792 -15.86760437 7.19730042 -15.02690125 6.35792542 C-13.92330261 5.25601868 -13.92330261 5.25601868 -12.79740906 4.1318512 C-8.59681601 0.20665576 -5.48785895 -0.00762602 0 0 Z " fill="#323328" transform="translate(298.8237762451172,60.71238708496094)"/>
<path d="M0 0 C0.84563179 -0.00467997 1.69126357 -0.00935994 2.56252056 -0.01418173 C5.38291167 -0.02610318 8.20281431 -0.01668565 11.02320862 -0.00723267 C13.0506468 -0.01129966 15.07808276 -0.01664226 17.10551453 -0.02316284 C22.60345109 -0.03682783 28.10121857 -0.03154086 33.59915805 -0.02202559 C39.356973 -0.01442377 45.11477359 -0.02147615 50.87258911 -0.02618408 C60.54245092 -0.03164054 70.21224397 -0.02445333 79.88209534 -0.01016235 C91.05486262 0.00615929 102.22746562 0.00087868 113.40022892 -0.01564157 C122.99873141 -0.02926504 132.59718451 -0.03117173 142.19569355 -0.02332556 C147.92585349 -0.01865321 153.65593628 -0.01801213 159.38609123 -0.02793503 C164.77468028 -0.03661472 170.16305802 -0.03056429 175.5516243 -0.01325226 C177.52687416 -0.0092926 179.50214186 -0.01041252 181.47738457 -0.01704025 C184.17852079 -0.02526651 186.87898447 -0.01492111 189.58007812 0 C190.74610122 -0.01003825 190.74610122 -0.01003825 191.93568033 -0.02027929 C198.53259512 0.05016027 204.96147721 1.50803325 209.93141174 6.15463257 C210.59534943 6.77234528 211.25928711 7.39005798 211.94334412 8.02648926 C212.73870575 8.80346161 213.53406738 9.58043396 214.35353088 10.38095093 C214.85011829 10.8648164 215.3467057 11.34868187 215.85834122 11.84720993 C220.31040041 16.19653727 224.71017909 20.59743887 229.10743713 25.00204468 C230.53640416 26.43033685 231.9655195 27.85848066 233.39477539 29.28648376 C236.37931775 32.26955768 239.36205912 35.25441754 242.34352112 38.24057007 C246.14833163 42.05107732 249.95761468 45.85707678 253.76826572 49.66174221 C256.71703677 52.60688455 259.66340321 55.55442326 262.60906792 58.5026722 C264.01203646 59.90630363 265.41573659 61.30920425 266.8202076 62.71133232 C280.09292832 75.96676268 280.09292832 75.96676268 285.0730896 81.89405823 C287.0462159 84.18532073 289.26561976 86.19958014 291.47853088 88.25595093 C296.13933803 92.86017771 298.88144471 97.36398646 301.35353088 103.38095093 C301.86409531 104.27885849 302.37465973 105.17676605 302.9006958 106.10188293 C305.47040603 112.15805097 304.71250563 118.9138765 304.63404846 125.36557007 C304.62660624 126.89065999 304.62047649 128.41575679 304.61555481 129.94085693 C304.59826063 134.07159471 304.56194164 138.20196463 304.52164674 142.33253407 C304.48205052 146.67009731 304.45828823 151.00775102 304.43231201 155.34541321 C304.38622534 162.63625708 304.32809994 169.92692823 304.26246643 177.21762085 C304.18697583 185.61586047 304.1288073 194.01407812 304.08043367 202.41251475 C304.03346366 210.51930684 303.97555804 218.62598392 303.91228294 226.73266411 C303.88556542 230.16807186 303.86230789 233.60347634 303.84188271 237.03892708 C303.81713543 241.0995508 303.78263551 245.15998561 303.74102783 249.22047043 C303.72731633 250.6997344 303.71671671 252.17903152 303.709692 253.65834236 C303.5723245 280.97801051 303.5723245 280.97801051 295.35353088 289.38095093 C294.43837645 290.36563449 294.43837645 290.36563449 293.50473404 291.37021065 C291.434176 293.55300008 289.31565028 295.67792489 287.18019104 297.79721069 C286.38261887 298.59668121 285.58504669 299.39615173 284.76330566 300.21984863 C282.14458462 302.84225232 279.51877022 305.45742175 276.89259338 308.07235718 C275.05908808 309.90466897 273.22595383 311.73735213 271.39317322 313.57038879 C267.55817676 317.40382462 263.71998058 321.23401065 259.87892151 325.06137085 C255.4562761 329.46830003 251.03886968 333.88042463 246.6244427 338.29558522 C242.35540507 342.56523615 238.08344789 346.83195002 233.81002426 351.09721184 C232.0018278 352.90223855 230.19422541 354.70786059 228.38724136 356.51410103 C225.85587855 359.04328189 223.32124122 361.569135 220.78565979 364.09408569 C220.04773697 364.8324617 219.30981415 365.57083771 218.54953003 366.33158875 C214.54852307 370.30824263 210.44767963 374.09924272 206.17718697 377.78440189 C203.65071144 379.99624551 201.26643153 382.33327778 198.88722229 384.70199585 C198.40158813 385.18427139 197.91595398 385.66654694 197.41560364 386.16343689 C195.8428409 387.72685222 194.2737308 389.29386605 192.70509338 390.86141968 C191.60037708 391.96291595 190.49558859 393.06433983 189.39073181 394.16569519 C187.09124408 396.45923517 184.79379144 398.75479153 182.49757385 401.05160522 C179.55716042 403.99212093 176.60988637 406.92565705 173.66086769 409.85753918 C171.38408211 412.12321331 169.11184883 414.39341065 166.84087753 416.66491127 C165.7556376 417.74897311 164.66878023 418.8314183 163.58026505 419.91219139 C162.06320783 421.4194507 160.55261777 422.93291432 159.04347229 424.4480896 C158.18379852 425.30633835 157.32412476 426.1645871 156.43840027 427.04884338 C152.19877314 431.79123467 152.06161922 435.71209601 152.04493713 441.90829468 C152.01978068 443.60426171 151.9943826 445.30022517 151.96876526 446.9961853 C151.94002001 449.66015729 151.91599133 452.32406743 151.89723206 454.98812866 C151.8755452 457.56600503 151.83610949 460.14316657 151.79493713 462.72079468 C151.79482132 463.51364365 151.79470551 464.30649261 151.79458618 465.12336731 C151.71323582 469.68221185 151.28803768 472.66785574 148.35353088 476.38095093 C145.01236369 478.05153452 141.25237135 477.55569862 137.57691956 477.57382202 C136.66782333 477.58199951 135.75872711 477.590177 134.82208252 477.59860229 C131.80522831 477.62347171 128.78842118 477.63997575 125.77149963 477.65438843 C124.2280207 477.66237394 124.2280207 477.66237394 122.65336037 477.67052078 C117.20764027 477.69725833 111.76194316 477.71663183 106.31617737 477.73104858 C100.6867822 477.7477033 95.05797168 477.79248652 89.42879772 477.84342003 C85.10424107 477.87704835 80.77982398 477.88862116 76.4551487 477.89427567 C74.37987611 477.90099971 72.30461307 477.91625155 70.22946739 477.94016647 C67.32526638 477.97172761 64.42265275 477.97186838 61.51832581 477.96444702 C60.23154938 477.98905502 60.23154938 477.98905502 58.91877747 478.01416016 C54.84571896 477.97153708 52.81630041 477.67856215 49.31918335 475.42953491 C46.59849814 471.20995006 46.66389683 467.94548852 46.73829651 463.02011108 C46.7327475 462.08452866 46.72719849 461.14894623 46.72148132 460.18501282 C46.70968316 457.09615653 46.73396614 454.00876689 46.75978088 450.92001343 C46.76149229 448.76916572 46.761426 446.61831592 46.75965881 444.46746826 C46.76131227 439.95991046 46.78001267 435.45284985 46.8115387 430.94540405 C46.85116826 425.17625466 46.85558948 419.40775793 46.84807587 413.63849831 C46.84500115 409.19628962 46.8571454 404.75422679 46.87420654 400.31205368 C46.88122388 398.18545828 46.88436262 396.05884634 46.8835144 393.93223953 C46.88531867 390.95471794 46.90675621 387.97796752 46.93360901 385.00057983 C46.93067841 384.12658035 46.9277478 383.25258087 46.92472839 382.35209656 C47.07310528 371.65085801 52.10803566 365.80979638 59.35353088 358.38095093 C60.06219299 357.65182495 60.7708551 356.92269897 61.50099182 356.17147827 C63.92183872 353.69043357 66.35390838 351.22100607 68.79103088 348.75595093 C69.99964783 347.52751465 69.99964783 347.52751465 71.23268127 346.27426147 C71.99314758 345.51282837 72.75361389 344.75139526 73.53712463 343.96688843 C74.22346985 343.27643433 74.90981506 342.58598022 75.61695862 341.87460327 C77.35353088 340.38095093 77.35353088 340.38095093 79.35353088 340.38095093 C79.35353088 339.72095093 79.35353088 339.06095093 79.35353088 338.38095093 C80.01353088 338.38095093 80.67353088 338.38095093 81.35353088 338.38095093 C81.58040588 337.82923218 81.80728088 337.27751343 82.04103088 336.70907593 C83.74079015 333.69402676 85.90157904 331.56864724 88.35353088 329.13095093 C89.24040588 328.23891968 90.12728088 327.34688843 91.04103088 326.42782593 C93.35353088 324.38095093 93.35353088 324.38095093 95.35353088 324.38095093 C95.62447571 323.78403442 95.89542053 323.18711792 96.17457581 322.57211304 C97.33790007 320.41000178 98.47279542 319.03001107 100.21681213 317.32235718 C101.05309143 316.49574585 101.05309143 316.49574585 101.90626526 315.6524353 C102.77734924 314.80648804 102.77734924 314.80648804 103.66603088 313.94345093 C104.23515198 313.38335327 104.80427307 312.82325562 105.39064026 312.2461853 C106.51365911 311.14121727 107.63886356 310.03846561 108.76637268 308.93807983 C110.21749424 307.51441374 111.64982373 306.07165801 113.08009338 304.62704468 C115.35353088 302.38095093 115.35353088 302.38095093 118.41603088 299.88095093 C121.40906961 297.49389987 121.40906961 297.49389987 123.60353088 294.56845093 C124.18103088 293.84657593 124.75853088 293.12470093 125.35353088 292.38095093 C126.01353088 292.38095093 126.67353088 292.38095093 127.35353088 292.38095093 C127.5971637 291.79829468 127.84079651 291.21563843 128.09181213 290.61532593 C129.57349859 287.99141059 131.22953725 286.55653254 133.54103088 284.63095093 C136.44325627 282.21158266 138.97612641 279.70645607 141.41603088 276.83432007 C145.69981496 271.90682107 150.29809394 267.32884773 154.93556213 262.73641968 C156.27864693 261.39901482 156.27864693 261.39901482 157.64886475 260.03459167 C160.48549637 257.21009478 163.32526175 254.3887846 166.16603088 251.56845093 C169.92555419 247.83579039 173.68147285 244.09954758 177.43556213 240.36141968 C178.30010513 239.50517502 179.16464813 238.64893036 180.0553894 237.76673889 C180.85349533 236.97193619 181.65160126 236.17713348 182.47389221 235.35824585 C183.17669815 234.66067673 183.87950409 233.9631076 184.60360718 233.24440002 C188.19519089 229.41981418 188.69199158 226.83468216 189.04078674 221.70761108 C189.08698151 221.03152392 189.13317627 220.35543676 189.18077087 219.65886211 C189.75446027 210.78294378 190.08059484 201.89720122 190.29103088 193.00595093 C190.32233093 191.72952036 190.32233093 191.72952036 190.35426331 190.42730331 C191.48625148 164.05056124 191.48625148 164.05056124 180.3034668 141.12155151 C175.06392959 135.79640865 169.07799199 131.3489063 162.70899963 127.46932983 C159.15453452 125.25709944 156.18797146 122.81238261 153.16212463 119.9402771 C147.03356961 114.65638388 143.25091939 113.79431132 135.22071838 113.8633728 C134.21510864 113.85636353 133.2094989 113.84935425 132.17341614 113.84213257 C128.85817128 113.82456585 125.54378402 113.83617116 122.22853088 113.84970093 C119.91977271 113.84700565 117.61101564 113.84312293 115.30226135 113.83810425 C110.46702756 113.83221097 105.63208963 113.84076703 100.79689026 113.85946655 C94.60275216 113.88225558 88.40930737 113.86913164 82.2151947 113.8451767 C77.44877408 113.83071438 72.68251751 113.8353268 67.91609192 113.84568787 C65.63235899 113.84835393 63.3486111 113.84508965 61.06489563 113.83576965 C57.87164424 113.82559736 54.67951158 113.84111586 51.48634338 113.8633728 C50.5448645 113.85527588 49.60338562 113.84717896 48.63337708 113.83883667 C42.99785101 113.91151127 39.84705475 114.67426901 35.35353088 118.38095093 C34.66663681 118.8885495 33.97974274 119.39614807 33.27203369 119.91912842 C9.50826671 137.8888025 9.50826671 137.8888025 -2.84564209 163.65194702 C-3.7454449 173.65448459 -3.31524525 183.7593929 -2.07304382 193.72068787 C-1.62845513 197.49377243 -1.39449194 199.76187569 -2.84934998 203.33627319 C-5.12627798 205.92685491 -7.17393667 207.18937658 -10.62396145 207.63821983 C-11.3217172 207.64157152 -12.01947294 207.64492321 -12.7383728 207.64837646 C-13.54440445 207.65690643 -14.3504361 207.6654364 -15.18089294 207.67422485 C-16.4940448 207.6728653 -16.4940448 207.6728653 -17.83372498 207.67147827 C-18.76262039 207.6781955 -19.69151581 207.68491272 -20.64855957 207.6918335 C-23.71953172 207.71083331 -26.7902856 207.71473853 -29.86131287 207.71688843 C-31.99596243 207.72331436 -34.13061109 207.73004256 -36.26525879 207.73706055 C-40.73992455 207.74903784 -45.21451307 207.75274084 -49.68919373 207.7515564 C-55.42384106 207.75135304 -61.15799373 207.77867034 -66.89252377 207.81310081 C-71.30116045 207.83533265 -75.70967732 207.8393951 -80.11836433 207.83833694 C-82.23268402 207.84069792 -84.34700675 207.84954929 -86.46127129 207.86500168 C-89.41780698 207.88458861 -92.37326585 207.87885239 -95.32981873 207.86679077 C-96.20322906 207.87802979 -97.0766394 207.8892688 -97.97651672 207.90084839 C-102.02398277 207.85887022 -104.1389809 207.69065195 -107.66625977 205.53808594 C-111.48098114 201.38253086 -110.80079444 196.67920158 -110.80760193 191.35482788 C-110.81504929 189.96893211 -110.81504929 189.96893211 -110.82264709 188.55503845 C-110.83727189 185.49309548 -110.84407218 182.43120436 -110.84959412 179.36923218 C-110.85534645 177.24034117 -110.86110417 175.11145018 -110.86686707 172.9825592 C-110.87737874 168.51452391 -110.88321994 164.04650662 -110.88670349 159.57846069 C-110.89218066 153.86323666 -110.91619149 148.14825177 -110.94467545 142.43310261 C-110.96333568 138.03293676 -110.96850929 133.63282803 -110.97003937 129.23262596 C-110.97306008 127.12637211 -110.98106891 125.02011912 -110.99422455 122.91390419 C-111.0113514 119.96043572 -111.00938822 117.00754513 -111.00291443 114.05404663 C-111.01212921 113.18985107 -111.02134399 112.32565552 -111.03083801 111.43527222 C-110.97799917 103.70823648 -109.23629585 97.44534054 -103.77146912 91.69345093 C-103.11404724 90.98833374 -102.45662537 90.28321655 -101.77928162 89.55673218 C-99.91742454 87.65736517 -98.03978334 85.77508973 -96.15832138 83.89520645 C-93.07631843 80.80830431 -90.00879776 77.70699291 -86.93797302 74.60897827 C-79.19992225 66.80551025 -71.4516332 59.01228854 -63.69753456 51.22476768 C-59.01046781 46.51678505 -54.32722723 41.80512031 -49.65232849 37.08505249 C-45.1230865 32.51234119 -40.58413415 27.94947925 -36.03829575 23.39326859 C-34.31005168 21.65764344 -32.58532753 19.91850588 -30.86423111 18.17579269 C-28.45665084 15.73916004 -26.03682416 13.31535072 -23.61375427 10.89413452 C-22.90806808 10.17406723 -22.2023819 9.45399994 -21.47531128 8.71211243 C-20.80819626 8.05049606 -20.14108124 7.3888797 -19.45375061 6.70721436 C-18.59931083 5.84724381 -18.59931083 5.84724381 -17.72760963 4.96990013 C-12.06300915 0.64498197 -6.8910422 -0.05915496 0 0 Z M-13.64646912 28.38095093 C-15.18886429 29.90653746 -16.74333118 31.42010553 -18.31443787 32.91610718 C-19.82355021 34.42261984 -21.33007413 35.93172995 -22.83396912 37.44345093 C-23.58871521 38.19432983 -24.3434613 38.94520874 -25.12107849 39.71884155 C-25.86551208 40.46456421 -26.60994568 41.21028687 -27.37693787 41.97860718 C-28.03073425 42.63353149 -28.68453064 43.28845581 -29.35813904 43.96322632 C-31.19478937 45.90373077 -32.92831387 47.87284258 -34.66184998 49.90292358 C-39.1875878 55.10305762 -44.08901977 59.91992078 -48.98620224 64.76528358 C-50.70370665 66.46518581 -52.41746159 68.16878952 -54.13026428 69.87342834 C-58.99448913 74.71336622 -63.86453425 79.54741773 -68.73875427 84.37728882 C-71.7336248 87.34541974 -74.72363989 90.31837018 -77.71069717 93.29436302 C-78.84673181 94.42418959 -79.98466044 95.55211506 -81.1245079 96.67809486 C-82.71109195 98.24551734 -84.29147012 99.81895371 -85.87059021 101.39389038 C-86.77103058 102.28687332 -87.67147095 103.17985626 -88.59919739 104.09989929 C-92.09700092 107.99712034 -91.79491752 111.79622753 -91.79173279 116.75814819 C-91.7950914 117.50639862 -91.79845001 118.25464905 -91.8019104 119.02557373 C-91.81141175 121.49951841 -91.81336285 123.97339539 -91.81443787 126.44735718 C-91.81765012 128.16463753 -91.82101417 129.88191761 -91.82452393 131.59919739 C-91.83051251 135.19792313 -91.83236401 138.79662485 -91.83177185 142.39535522 C-91.83167004 147.01478818 -91.84534308 151.63406808 -91.86254406 156.2534647 C-91.87363974 159.79898288 -91.87569184 163.34446371 -91.87516212 166.88999748 C-91.87634512 168.59370389 -91.88078467 170.29741117 -91.88849449 172.00110054 C-91.89824902 174.37856042 -91.89543494 176.75568334 -91.88938904 179.13314819 C-91.89500854 179.84125137 -91.90062805 180.54935455 -91.90641785 181.27891541 C-91.98814717 185.27568528 -91.98814717 185.27568528 -89.64646912 188.38095093 C-86.74618787 188.68868247 -86.74618787 188.68868247 -83.30076599 188.63973999 C-82.6501973 188.64324463 -81.9996286 188.64674927 -81.3293457 188.65036011 C-79.17452894 188.65917722 -77.02003934 188.65332855 -74.86521912 188.64657593 C-73.37071164 188.64792259 -71.87620458 188.64986313 -70.38169861 188.65237427 C-67.2477451 188.65532549 -64.1139055 188.651028 -60.97996521 188.64169312 C-56.95796898 188.63029849 -52.93623966 188.63685798 -48.91425323 188.64883804 C-45.82766195 188.65605673 -42.74113419 188.65376869 -39.65454102 188.64858246 C-38.17133554 188.64724598 -36.68812434 188.64889362 -35.20492554 188.65354156 C-33.1338518 188.65860704 -31.06321345 188.65089677 -28.99217224 188.63973999 C-27.22251099 188.63735321 -27.22251099 188.63735321 -25.417099 188.63491821 C-22.50492341 188.66581122 -22.50492341 188.66581122 -20.64646912 186.38095093 C-20.43720757 183.82498406 -20.34537272 181.3686662 -20.33787537 178.81063843 C-20.31269213 177.25855172 -20.28729448 175.70646847 -20.26170349 174.15438843 C-20.23309722 171.71234226 -20.20908067 169.27035714 -20.19017029 166.82821655 C-20.16832395 164.46785169 -20.12884791 162.10823802 -20.08787537 159.74813843 C-20.08775955 159.03012054 -20.08764374 158.31210266 -20.08752441 157.57232666 C-19.87649728 146.59811885 -15.05885118 141.06507977 -7.37693787 133.55282593 C-6.46317886 132.64139832 -5.54941986 131.7299707 -4.60797119 130.79092407 C-2.68133361 128.87042269 -0.74677978 126.95842645 1.19459534 125.05282593 C3.67108779 122.62163454 6.13202889 120.17542253 8.5878191 117.72333908 C10.94782508 115.36885011 13.31667468 113.02338068 15.68556213 110.67782593 C16.56388199 109.80486877 17.44220184 108.93191162 18.34713745 108.03250122 C28.516468 98.05887815 36.28214205 95.07140153 50.34010315 95.10629272 C51.41267365 95.10118179 52.48524414 95.09607086 53.59031677 95.09080505 C57.11691447 95.07696494 60.64331559 95.07786124 64.16993713 95.08016968 C66.630382 95.07628052 69.0908262 95.0719454 71.55126953 95.06718445 C76.69981568 95.05973486 81.84829323 95.06000502 86.99684143 95.0652771 C93.58976984 95.07107894 100.18241797 95.05411706 106.77530003 95.03093243 C111.85311521 95.01619437 116.93086282 95.01532335 122.0086956 95.01844215 C124.43953444 95.01792928 126.8703771 95.01269786 129.30119514 95.00263023 C132.69976634 94.99027812 136.09779055 94.99704999 139.49635315 95.00863647 C140.49654984 95.00099274 141.49674652 94.993349 142.5272522 94.98547363 C150.08018152 95.04231565 155.63920511 96.35997801 161.35353088 101.63095093 C162.02384338 102.24454468 162.69415588 102.85813843 163.38478088 103.49032593 C165.79608531 105.80594367 168.15433345 108.16834338 170.49562073 110.55453491 C172.20748086 112.23737666 173.9666547 113.78864981 175.79884338 115.33798218 C181.12697368 119.97279289 186.11063382 124.95199477 191.10108948 129.94320679 C192.74105398 131.58095712 194.3889008 133.2105023 196.03712463 134.8399353 C197.08839371 135.88827447 198.13919236 136.93708563 199.18946838 137.98641968 C199.67902008 138.46878586 200.16857178 138.95115204 200.67295837 139.44813538 C205.92508838 144.73581644 206.65378795 148.4345496 206.65992737 155.78622437 C206.66825089 156.63227234 206.6765744 157.47832031 206.68515015 158.3500061 C206.7092432 161.14682625 206.71802226 163.94341301 206.72462463 166.74032593 C206.73359288 168.6884264 206.74271476 170.63652618 206.75198364 172.58462524 C206.76847527 176.67007113 206.77617383 180.75543507 206.77906799 184.84091187 C206.78444594 190.06421359 206.82210103 195.28673982 206.86781216 200.50982285 C206.89762664 204.53513364 206.90479254 208.56025888 206.90579414 212.58567047 C206.90998923 214.51052647 206.92239487 216.43538339 206.94331169 218.36013031 C206.97031181 221.06002444 206.96537499 223.75813703 206.95289612 226.45809937 C206.97514755 227.63982727 206.97514755 227.63982727 206.99784851 228.84542847 C206.90639257 235.83003965 203.9609396 240.33891682 199.50074768 245.54257202 C198.94040833 246.07447144 198.38006897 246.60637085 197.80274963 247.15438843 C197.18722229 247.75122437 196.57169495 248.3480603 195.93751526 248.96298218 C195.31167542 249.55466187 194.68583557 250.14634155 194.04103088 250.75595093 C192.76974823 251.96754299 191.50257793 253.18346984 190.24024963 254.40438843 C189.68554993 254.92952026 189.13085022 255.4546521 188.55934143 255.99569702 C187.13467632 257.32628317 187.13467632 257.32628317 187.35353088 259.38095093 C186.7775415 259.61933182 186.20155212 259.85771271 185.60810852 260.10331726 C182.87997636 261.64930682 181.32048321 263.44305589 179.2802887 265.8230896 C174.24995866 271.54917307 168.92744972 276.93403099 163.52540588 282.30673218 C162.47130247 283.35891095 161.41743054 284.41132167 160.36376953 285.46394348 C158.11614073 287.7084399 155.86697592 289.95138093 153.61656189 292.19308472 C150.05905165 295.73696251 146.50545774 299.28475047 142.95240784 302.83309937 C135.42242795 310.35203752 127.88818547 317.86669771 120.35353088 325.38095093 C112.1896056 333.52282981 104.02644054 341.665463 95.86811256 349.81295109 C92.33395813 353.34211969 88.79737972 356.86883574 85.25893307 360.3937006 C83.06671552 362.57848082 80.87655206 364.76531115 78.68695259 366.95271492 C77.66911084 367.96867887 76.65040221 368.98377516 75.63078117 369.99795341 C74.24335195 371.37820612 72.85925756 372.76180864 71.47535706 374.14559937 C70.69891342 374.91982239 69.92246979 375.69404541 69.12249756 376.49172974 C65.85192743 379.98463352 66.21118529 383.10993366 66.22413635 387.66049194 C66.22238403 388.41020264 66.22063171 389.15991333 66.21882629 389.93234253 C66.2144161 392.41653745 66.21734255 394.9006615 66.22071838 397.38485718 C66.22004518 399.10596226 66.21907501 400.82706724 66.21781921 402.548172 C66.21634343 406.157073 66.21849325 409.76594928 66.22315979 413.37484741 C66.22886128 418.01117956 66.22557466 422.64745388 66.21958733 427.28378391 C66.21598215 430.83783915 66.21712002 434.39188056 66.21971512 437.9459362 C66.22038429 439.65604598 66.21955632 441.366157 66.21723557 443.07626534 C66.21470928 445.46114577 66.21854906 447.84593113 66.22413635 450.23080444 C66.22110001 451.30070869 66.22110001 451.30070869 66.21800232 452.39222717 C65.95052225 455.66796007 65.95052225 455.66796007 67.35353088 458.38095093 C69.33696288 458.48550913 71.3241433 458.51950697 73.31031799 458.5262146 C75.22251381 458.53578438 75.22251381 458.53578438 77.17333984 458.54554749 C78.57585106 458.54707604 79.97836278 458.54819007 81.38087463 458.54891968 C82.80955032 458.55213058 84.23822566 458.55549452 85.66690063 458.55900574 C88.66556053 458.56500331 91.66419158 458.566845 94.66285706 458.56625366 C98.51111038 458.56615202 102.35917929 458.5798039 106.20738888 458.59702587 C109.15929011 458.60812799 112.11114651 458.61017342 115.06306648 458.60964394 C116.48208311 458.61082677 117.9011008 458.61526547 119.32009697 458.6229763 C121.30249038 458.63273947 123.28493754 458.62864345 125.26734924 458.62387085 C126.39684494 458.62529587 127.52634064 458.62672089 128.69006348 458.62818909 C131.50767539 458.65262189 131.50767539 458.65262189 133.35353088 456.38095093 C133.67676734 453.50145432 133.67676734 453.50145432 133.66212463 450.12313843 C133.68726135 448.85727905 133.71239807 447.59141968 133.73829651 446.28720093 C133.77619687 443.62316163 133.80445878 440.9591994 133.83204651 438.29501343 C134.04698245 427.93614974 134.69301012 421.77626238 142.35353088 414.38095093 C143.53804202 413.19882911 144.72003366 412.01417976 145.90011597 410.82763672 C146.89016129 409.83542366 146.89016129 409.83542366 147.90020752 408.82316589 C148.60837112 408.11343124 149.31653473 407.40369659 150.04615784 406.67245483 C157.77879044 398.92344475 165.51400163 391.17701376 173.25065327 383.43201637 C177.92584236 378.75160574 182.60009127 374.07026402 187.27223206 369.3868103 C191.80155696 364.84659174 196.333346 360.30884606 200.86682701 355.77277756 C202.58878686 354.04897718 204.30986975 352.3243003 206.03003883 350.59871292 C208.4419214 348.17953226 210.85695542 345.76353906 213.27272034 343.34823608 C213.97481125 342.6425499 214.67690216 341.93686371 215.40026855 341.20979309 C219.3086689 337.30942988 223.32685285 333.60857105 227.50632381 330.00091362 C230.1116673 327.71608085 232.55153604 325.31017279 235.00343323 322.86044312 C235.50857452 322.35705414 236.01371582 321.85366516 236.53416443 321.33502197 C238.17175754 319.70176327 239.80574482 318.06495454 241.43946838 316.42782593 C242.58895039 315.27901885 243.7385807 314.13036014 244.88835144 312.98184204 C247.28185381 310.58980477 249.67356113 308.19599127 252.0639801 305.8008728 C255.12716472 302.73195916 258.19486122 299.66760086 261.26389122 296.60453415 C263.63169567 294.24033999 265.99711737 291.87377342 268.36182022 289.50647736 C269.49260206 288.37502922 270.62412505 287.2443213 271.75640488 286.11437225 C273.33336688 284.53994794 274.90709139 282.96235729 276.47999573 281.38388062 C277.37519928 280.48788147 278.27040283 279.59188232 279.19273376 278.66873169 C283.24187986 274.38162928 283.74500697 271.21976576 283.96803284 265.55599976 C284.00556073 264.72818151 284.04308863 263.90036325 284.08175373 263.0474596 C284.56793272 250.92717439 284.51845345 238.79265619 284.52078795 226.66472602 C284.52150775 224.55640202 284.52365896 222.44808418 284.52628517 220.33976173 C284.53547132 212.95138777 284.5396277 205.56303159 284.53883362 198.1746521 C284.53823132 191.33703727 284.54883028 184.49950091 284.56457728 177.66190594 C284.57771694 171.74117949 284.58301499 165.82047855 284.58237821 159.89973766 C284.58212555 156.38509728 284.58484767 152.87052727 284.59555626 149.35590172 C284.60717489 145.4380328 284.60245126 141.52026972 284.59645081 137.60238647 C284.60207031 136.46697418 284.60768982 135.33156189 284.61347961 134.16174316 C284.56374136 121.28837314 284.36542905 108.22571719 274.85353088 98.69345093 C273.93894104 97.8368689 273.93894104 97.8368689 273.00587463 96.96298218 C271.35353088 95.38095093 271.35353088 95.38095093 269.41603088 92.88095093 C267.66396469 90.75723433 266.07289235 89.25051418 263.97853088 87.50595093 C259.76713539 83.9254761 256.08578832 79.94536 252.35353088 75.88095093 C248.12166706 71.27366631 243.89661062 66.91777508 239.07618713 62.91610718 C236.50140409 60.62157263 234.3683322 57.98860454 232.14259338 55.36141968 C229.73967347 52.70141881 227.09254 50.41584859 224.34571838 48.11923218 C221.89661966 45.98227349 219.64427287 43.68708517 217.35353088 41.38095093 C216.54053528 40.56271851 215.72753967 39.74448608 214.88990784 38.90145874 C213.62860046 37.63060425 213.62860046 37.63060425 212.34181213 36.33407593 C210.93270199 34.91807286 209.52358443 33.50207708 208.11402893 32.08651733 C207.14244428 31.10985443 206.17175165 30.13230338 205.20191956 29.15390015 C203.79256548 27.73245979 202.37974126 26.3144627 200.96681213 24.89657593 C200.12932434 24.05385132 199.29183655 23.21112671 198.42897034 22.34286499 C194.73776605 18.85356753 191.505121 19.22074806 186.66346741 19.20013428 C185.86027085 19.19292976 185.05707429 19.18572524 184.22953844 19.17830241 C181.52283659 19.15547924 178.81614397 19.13997804 176.10939026 19.12460327 C174.17460401 19.11015936 172.23982009 19.09540179 170.30503845 19.08035278 C152.62350239 18.94995099 134.94132935 18.88418911 117.25940704 18.83250999 C104.18880455 18.79361335 91.11906472 18.72529149 78.048841 18.61796224 C68.85977473 18.54505147 59.67094403 18.50666566 50.48160028 18.49348414 C44.99343698 18.48462599 39.50633948 18.46043019 34.01849365 18.39881516 C28.85038427 18.34145177 23.68388694 18.32692914 18.51550674 18.34468842 C16.62326473 18.343812 14.73095539 18.32762929 12.8390007 18.2946434 C1.03759704 18.09964493 -5.69589886 18.77362226 -13.64646912 28.38095093 Z " fill="#B79D60" transform="translate(294.64646911621094,41.619049072265625)"/>
<path d="M0 0 C4.50231099 4.22349903 8.80236888 8.6569044 13.125 13.0625 C14.86203922 14.82735313 16.60061164 16.59062648 18.34225464 18.35093689 C19.41815107 19.43888804 20.49136824 20.52949831 21.56130981 21.62330627 C24.87803134 24.98385294 28.35054619 28.00442845 32 31 C33.6171875 32.7734375 33.6171875 32.7734375 34.875 34.375 C36.92457198 36.85622746 39.03974734 38.97952333 41.5 41.05078125 C46.41494281 45.30056922 51.06072959 49.80380687 55.67333984 54.37817383 C56.64025031 55.33353861 57.6116178 56.28441366 58.58740234 57.23071289 C69.524436 67.83937871 76.90307326 78.24516617 77.4375 93.8125 C76.90892902 114.07438745 64.31184165 125.03057336 50.93359375 138.5078125 C49.84411281 139.6076478 49.84411281 139.6076478 48.73262215 140.729702 C44.89014831 144.6078476 41.04168739 148.47993462 37.18823242 152.34716797 C33.23818894 156.31375752 29.30955574 160.3008641 25.38545132 164.29309273 C22.33692657 167.38665434 19.27265463 170.4642587 16.20408821 173.53792953 C14.74993715 174.99991018 13.30159633 176.46769662 11.85958672 177.94165421 C0.35983324 189.67928037 -10.32178283 198.85690386 -27.5625 199.3125 C-45.15641307 199.11604191 -56.15080636 189.31574266 -67.7890625 177.46875 C-68.90212281 176.34753176 -70.01593741 175.22706188 -71.13046265 174.1072998 C-74.0440851 171.17668004 -76.94900083 168.23759164 -79.85162354 165.29608154 C-84.50058288 160.58760016 -89.16246801 155.89192582 -93.82502365 151.19691467 C-95.44019168 149.5679319 -97.05139869 147.9351147 -98.66201782 146.30163574 C-103.60416892 141.30315618 -108.58006927 136.48035573 -114 132 C-115.70993434 130.3777546 -117.37347684 128.70586575 -119 127 C-119.63035156 126.35289062 -120.26070313 125.70578125 -120.91015625 125.0390625 C-131.16445367 114.11392319 -133.50637611 104.2879967 -133.2734375 89.78515625 C-132.58524323 72.31796799 -118.50044552 61.17638588 -106.9765625 49.640625 C-105.50582797 48.1634524 -104.03523926 46.6861346 -102.56478882 45.2086792 C-99.4936703 42.12563836 -96.41850028 39.04670495 -93.34082031 35.97021484 C-89.41132779 32.04092596 -85.49580299 28.09802911 -81.58364296 24.15149307 C-78.55520437 21.10075439 -75.51765504 18.0592129 -72.47751999 15.02013397 C-71.03031731 13.57058274 -69.58632957 12.11781391 -68.14574051 10.66168976 C-66.12694804 8.6231621 -64.09570409 6.59786068 -62.06103516 4.57519531 C-61.47789047 3.98081161 -60.89474579 3.38642792 -60.29393005 2.77403259 C-43.46637797 -13.80411153 -18.08318301 -15.49230693 0 0 Z " fill="#323328" transform="translate(419,579)"/>
<path d="M0 0 C3.09942031 0.54915903 4.11504083 1.42454097 6.28857422 3.66992188 C6.96275391 4.35570312 7.63693359 5.04148437 8.33154297 5.74804688 C9.36601562 6.83859375 9.36601562 6.83859375 10.42138672 7.95117188 C11.44425781 8.9953125 11.44425781 8.9953125 12.48779297 10.06054688 C15.71764124 13.38267653 18.84363897 16.76541408 21.85888672 20.28320312 C26.52028799 25.66785677 31.61656941 30.6282833 36.67138672 35.63867188 C37.65730049 36.61955382 38.64297893 37.60067237 39.62841797 38.58203125 C41.44094113 40.38647755 43.25504454 42.18927639 45.0703125 43.9909668 C46.78478221 45.69444849 48.49417005 47.40305439 50.19946289 49.11572266 C52.64057522 51.54489987 55.16294116 53.8477688 57.73388672 56.13867188 C64.49772605 62.17238162 64.49772605 62.17238162 65.0221405 65.17689514 C64.37317554 69.64326186 62.03599139 71.80380525 58.93432617 74.83959961 C58.33763626 75.44680344 57.74094635 76.05400726 57.12617493 76.67961121 C55.15215739 78.68001056 53.15702793 80.65769278 51.15966797 82.63476562 C49.7807108 84.01776431 48.40264537 85.40165264 47.0254364 86.78639221 C44.13721227 89.68346005 41.23841863 92.56940226 38.33178711 95.44799805 C34.6030968 99.14247177 30.90203293 102.86327194 27.2084322 106.59278774 C24.36854652 109.45432981 21.51455553 112.30145706 18.65605736 115.14439583 C17.28528211 116.51116333 15.91896448 117.8824164 14.55718422 119.25814629 C12.65405111 121.17648134 10.7328097 123.074586 8.80541992 124.96850586 C7.96276581 125.82937805 7.96276581 125.82937805 7.10308838 126.7076416 C3.28179707 130.40661314 3.28179707 130.40661314 -0.00546265 130.60578918 C-3.2146395 129.09225032 -5.44860531 126.9757352 -7.88305664 124.45996094 C-8.40084183 123.94115356 -8.91862701 123.42234619 -9.45210266 122.88781738 C-11.15874137 121.17330582 -12.85087519 119.44517731 -14.54345703 117.71679688 C-15.73167884 116.51856653 -16.92086736 115.32129412 -18.11097717 114.12493896 C-21.24258928 110.97239631 -24.3624519 107.80848473 -27.47955322 104.64160156 C-32.46166621 99.58424545 -37.46238532 94.54527101 -42.46121407 89.50444794 C-44.20028583 87.74777844 -45.93499971 85.98690158 -47.66893005 84.22515869 C-48.74415388 83.13670219 -49.81943282 82.04830013 -50.89477539 80.95996094 C-51.37028839 80.47456848 -51.84580139 79.98917603 -52.33572388 79.48907471 C-54.70516996 77.09670365 -57.13065016 74.85644967 -59.73854065 72.73187256 C-62.7735028 70.18246001 -63.30018697 69.528134 -63.84590149 65.69754028 C-63.32167743 61.35934102 -61.20251116 59.40455109 -58.17700195 56.50927734 C-57.61611374 55.94911926 -57.05522552 55.38896118 -56.4773407 54.81182861 C-54.62246867 52.96622336 -52.74737789 51.1426739 -50.87158203 49.31835938 C-49.57701797 48.03753286 -48.28384895 46.75529493 -46.99201965 45.47171021 C-43.58819919 42.09645376 -40.16720524 38.73915775 -36.74188232 35.38574219 C-32.58694308 31.31228654 -28.45071874 27.21984942 -24.31356525 23.12834358 C-21.09363074 19.94412994 -17.87043465 16.76349591 -14.63652039 13.59347534 C-13.74427261 12.7161525 -13.74427261 12.7161525 -12.83399963 11.82110596 C-11.72728285 10.73294388 -10.61863177 9.64674393 -9.50762939 8.56295776 C-7.41878926 6.50508573 -5.48552808 4.49483957 -3.75291443 2.12417603 C-2.45361328 0.45117188 -2.45361328 0.45117188 0 0 Z " fill="#B79E61" transform="translate(390.45361328125,607.548828125)"/>
<path d="M0 0 C4.3542195 0.42430909 6.37046558 3.26205814 9.0625 6.375 C14.50035665 12.46270198 20.16503532 18.29169265 25.9375 24.0625 C26.75420166 24.88347168 27.57090332 25.70444336 28.41235352 26.55029297 C32.1255128 30.25540266 35.78420684 33.85731783 40 37 C39.91140306 40.89826523 38.55428364 42.71585874 35.859375 45.3125 C34.49874681 46.55180256 33.12832761 47.78041281 31.75 49 C30.28615381 50.33287307 28.82393869 51.66753948 27.36328125 53.00390625 C26.62932129 53.67180176 25.89536133 54.33969727 25.13916016 55.02783203 C17.32526189 62.23174326 9.79425088 69.82219257 3 78 C-0.13509653 76.62464976 -2.10050706 75.08257493 -4.390625 72.55078125 C-5.01839844 71.86693359 -5.64617187 71.18308594 -6.29296875 70.47851562 C-7.26169922 69.40633789 -7.26169922 69.40633789 -8.25 68.3125 C-12.67966086 63.42537927 -17.16954262 58.85512484 -22.18798828 54.56958008 C-24.51533505 52.55361237 -26.6671265 50.39472211 -28.8125 48.1875 C-31.16885369 45.76441771 -33.1746415 43.88357233 -36 42 C-36.61328125 39.7890625 -36.61328125 39.7890625 -36 37 C-33.98805911 34.50269123 -31.6055154 32.47134748 -29.1875 30.375 C-27.8045943 29.13175861 -26.42309543 27.88695067 -25.04296875 26.640625 C-24.01308838 25.71926758 -24.01308838 25.71926758 -22.96240234 24.77929688 C-14.61885728 17.21426124 -6.69717969 9.0690975 0 0 Z " fill="#34352A" transform="translate(389,634)"/>
<path d="M0 0 C0.99 0.495 0.99 0.495 2 1 C-27.04 30.04 -56.08 59.08 -86 89 C-86.33 88.01 -86.66 87.02 -87 86 C-83.48259521 82.43326807 -79.95875538 78.87307049 -76.42871094 75.31884766 C-75.22801105 74.10807151 -74.0291098 72.89550899 -72.83203125 71.68115234 C-71.11404252 69.93898662 -69.38975125 68.20328456 -67.6640625 66.46875 C-67.12754059 65.92190552 -66.59101868 65.37506104 -66.03823853 64.81164551 C-64.72957713 63.50258902 -63.36903374 62.24578094 -62 61 C-61.34 61 -60.68 61 -60 61 C-60 60.34 -60 59.68 -60 59 C-59.34 59 -58.68 59 -58 59 C-57.773125 58.44828125 -57.54625 57.8965625 -57.3125 57.328125 C-55.61274074 54.31307583 -53.45195184 52.18769631 -51 49.75 C-50.113125 48.85796875 -49.22625 47.9659375 -48.3125 47.046875 C-46 45 -46 45 -44 45 C-43.72905518 44.4030835 -43.45811035 43.80616699 -43.17895508 43.19116211 C-42.01563082 41.02905086 -40.88073546 39.64906014 -39.13671875 37.94140625 C-38.57919922 37.39033203 -38.02167969 36.83925781 -37.44726562 36.27148438 C-36.86654297 35.70751953 -36.28582031 35.14355469 -35.6875 34.5625 C-35.11837891 34.00240234 -34.54925781 33.44230469 -33.96289062 32.86523438 C-32.83987177 31.76026634 -31.71466733 30.65751469 -30.5871582 29.55712891 C-29.13603664 28.13346281 -27.70370715 26.69070708 -26.2734375 25.24609375 C-24 23 -24 23 -20.9375 20.5 C-17.94446128 18.11294894 -17.94446128 18.11294894 -15.75 15.1875 C-15.1725 14.465625 -14.595 13.74375 -14 13 C-13.34 13 -12.68 13 -12 13 C-11.77570313 12.43796875 -11.55140625 11.8759375 -11.3203125 11.296875 C-9.61328077 8.32724583 -7.45193456 6.49655833 -4.875 4.25 C-3.96492188 3.45078125 -3.05484375 2.6515625 -2.1171875 1.828125 C-1.06917969 0.92320312 -1.06917969 0.92320312 0 0 Z " fill="#A9965E" transform="translate(434,321)"/>
<path d="M0 0 C2.67643442 2.60495694 5.0323491 5.39933651 7.40234375 8.28125 C9.11848594 10.12746653 10.94675059 11.54543022 13 13 C12.45730469 13.36351562 11.91460937 13.72703125 11.35546875 14.1015625 C6.84581443 17.27050878 4.02425927 19.68631943 2 25 C1.34 25 0.68 25 0 25 C-0.495 23.948125 -0.99 22.89625 -1.5 21.8125 C-3.99573274 17.36358512 -7.57977454 15.32812846 -12 13 C-11.443125 12.608125 -10.88625 12.21625 -10.3125 11.8125 C-5.95511221 8.39725011 -2.64738777 4.87676694 0 0 Z " fill="#9E8956" transform="translate(390,660)"/>
<path d="M0 0 C0.99 0.33 1.98 0.66 3 1 C-11.85 15.85 -26.7 30.7 -42 46 C-42.66 45.34 -43.32 44.68 -44 44 C-29.48 29.48 -14.96 14.96 0 0 Z " fill="#373930" transform="translate(434,264)"/>
<path d="M0 0 C0.33 0.99 0.66 1.98 1 3 C-1.76536151 5.83963775 -4.5405724 8.66923467 -7.32519531 11.48999023 C-8.73511441 12.9223772 -10.13713794 14.36252195 -11.5390625 15.80273438 C-12.42851562 16.70185547 -13.31796875 17.60097656 -14.234375 18.52734375 C-15.05131836 19.35999756 -15.86826172 20.19265137 -16.70996094 21.05053711 C-18.93070865 22.94101371 -20.15286698 23.63124482 -23 24 C-18.32533663 18.37696243 -13.32234333 13.20258446 -8.125 8.0625 C-7.34125 7.28326172 -6.5575 6.50402344 -5.75 5.70117188 C-3.83561419 3.79845915 -1.91891966 1.89813829 0 0 Z " fill="#AA965D" transform="translate(234,90)"/>
<path d="M0 0 C3.46629835 1.48653506 5.69022036 3.45722351 8.328125 6.1328125 C9.12734375 6.93847656 9.9265625 7.74414062 10.75 8.57421875 C11.575 9.41597656 12.4 10.25773438 13.25 11.125 C14.51070313 12.39923828 14.51070313 12.39923828 15.796875 13.69921875 C17.86915683 15.79504923 19.93662393 17.89540713 22 20 C21.34 20.99 20.68 21.98 20 23 C19.64550781 22.57332031 19.29101562 22.14664063 18.92578125 21.70703125 C14.32302011 16.3018517 9.37336166 11.32049749 4.26879883 6.39379883 C2.80961522 4.96531244 1.40011006 3.48643264 0 2 C0 1.34 0 0.68 0 0 Z " fill="#4C4D44" transform="translate(464,625)"/>
<path d="M0 0 C0.33 0.99 0.66 1.98 1 3 C-3.29 7.29 -7.58 11.58 -12 16 C-12.99 15.67 -13.98 15.34 -15 15 C-10.05 10.05 -5.1 5.1 0 0 Z " fill="#383932" transform="translate(322,619)"/>
<path d="M0 0 C1.485 0.99 1.485 0.99 3 2 C3.22107787 4.7885289 3.28107535 7.34653181 3.1875 10.125 C3.17396484 10.87910156 3.16042969 11.63320313 3.14648438 12.41015625 C3.11109985 14.27374127 3.05729167 16.13695978 3 18 C1.51171875 16.98046875 1.51171875 16.98046875 0 15 C-0.2172101 12.35003674 -0.28351554 9.94923442 -0.1875 7.3125 C-0.17396484 6.61060547 -0.16042969 5.90871094 -0.14648438 5.18554688 C-0.11120182 3.45670171 -0.05739583 1.72825235 0 0 Z " fill="#38392F" transform="translate(482,509)"/>
<path d="M0 0 C3 3 3 3 3.3984375 6.03125 C3.39070313 7.1759375 3.38296875 8.320625 3.375 9.5 C3.38273437 10.6446875 3.39046875 11.789375 3.3984375 12.96875 C3 16 3 16 0 19 C0 12.73 0 6.46 0 0 Z " fill="#414239" transform="translate(286,664)"/>
<path d="M0 0 C0.99 0.33 1.98 0.66 3 1 C1.44716875 2.63424183 -0.1176881 4.25706248 -1.6875 5.875 C-2.55761719 6.77992188 -3.42773438 7.68484375 -4.32421875 8.6171875 C-6.87943979 10.89263982 -8.76901814 11.98704352 -12 13 C-8.19524578 8.43969176 -4.25030379 4.14910608 0 0 Z " fill="#AC985E" transform="translate(413,689)"/>
<path d="M0 0 C0.99 0.33 1.98 0.66 3 1 C3.08082094 2.95766281 3.13910778 4.91626728 3.1875 6.875 C3.23970703 8.51082031 3.23970703 8.51082031 3.29296875 10.1796875 C3.19628906 11.11039062 3.09960938 12.04109375 3 13 C2.01 13.66 1.02 14.32 0 15 C0 10.05 0 5.1 0 0 Z " fill="#383930" transform="translate(303,405)"/>
<path d="M0 0 C-1.44781793 3.44428265 -3.27694609 5.36130962 -6.125 7.75 C-7.21167969 8.67039063 -7.21167969 8.67039063 -8.3203125 9.609375 C-8.87460937 10.06828125 -9.42890625 10.5271875 -10 11 C-10.66 10.67 -11.32 10.34 -12 10 C-10.38113585 8.32737283 -8.7547271 6.66204463 -7.125 5 C-6.22007812 4.071875 -5.31515625 3.14375 -4.3828125 2.1875 C-2 0 -2 0 0 0 Z " fill="#3E3D2D" transform="translate(334,157)"/>
<path d="M0 0 C4.29238623 1.65091778 6.8793915 4.73754566 10 8 C9.67 8.99 9.34 9.98 9 11 C7.49403892 9.54782324 5.99537896 8.08807139 4.5 6.625 C3.6646875 5.81289062 2.829375 5.00078125 1.96875 4.1640625 C0 2 0 2 0 0 Z " fill="#A8945C" transform="translate(503,73)"/>
<path d="M0 0 C3.72114571 2.31537955 6.61229661 4.28579473 9 8 C8.01 8.33 7.02 8.66 6 9 C4.99105628 8.07213211 3.99309093 7.13231567 3 6.1875 C2.1646875 5.40439453 2.1646875 5.40439453 1.3125 4.60546875 C0 3 0 3 0 0 Z " fill="#4C4C45" transform="translate(296,699)"/>
<path d="M0 0 C4.2742558 1.5830577 6.26531794 4.50568404 9 8 C8.34 8.66 7.68 9.32 7 10 C5.82739389 8.71372289 4.6620717 7.42080217 3.5 6.125 C2.8503125 5.40570312 2.200625 4.68640625 1.53125 3.9453125 C0 2 0 2 0 0 Z " fill="#42433B" transform="translate(477,638)"/>
<path d="M0 0 C0.66 0.66 1.32 1.32 2 2 C-0.31 4.31 -2.62 6.62 -5 9 C-5.66 8.34 -6.32 7.68 -7 7 C-4.69 4.69 -2.38 2.38 0 0 Z " fill="#383931" transform="translate(303,638)"/>
<path d="M0 0 C3.36591866 1.44253657 5.51047079 3.33264727 8 6 C7.67 6.99 7.34 7.98 7 9 C5.82737096 7.88121617 4.66204862 6.75476949 3.5 5.625 C2.8503125 4.99851562 2.200625 4.37203125 1.53125 3.7265625 C0 2 0 2 0 0 Z " fill="#A8945B" transform="translate(515,85)"/>
<path d="M0 0 C4.2742558 1.5830577 6.26531794 4.50568404 9 8 C4.75153925 7.52794881 2.73180712 5.11122478 0 2 C0 1.34 0 0.68 0 0 Z " fill="#AA965C" transform="translate(509,54)"/>
<path d="M0 0 C-1.26691507 0.67408308 -2.53870749 1.33900497 -3.8125 2 C-4.52019531 2.37125 -5.22789062 2.7425 -5.95703125 3.125 C-8 4 -8 4 -11 4 C-11 3.34 -11 2.68 -11 2 C-4.03571429 -1.34821429 -4.03571429 -1.34821429 0 0 Z " fill="#3D3E35" transform="translate(414,772)"/>
<path d="M0 0 C1.2077558 3.62326739 0.54311128 4.64146369 -1 8 C-1.66 8 -2.32 8 -3 8 C-3 8.66 -3 9.32 -3 10 C-3.99 10.33 -4.98 10.66 -6 11 C-4.54955729 6.89041233 -2.48889248 3.56741255 0 0 Z " fill="#43443C" transform="translate(313,384)"/>
<path d="M0 0 C0.33 0.99 0.66 1.98 1 3 C-0.65 4.65 -2.3 6.3 -4 8 C-4.99 7.67 -5.98 7.34 -7 7 C-4.69 4.69 -2.38 2.38 0 0 Z " fill="#3B3C34" transform="translate(166,101)"/>
<path d="M0 0 C3.3 0.33 6.6 0.66 10 1 C9.67 1.66 9.34 2.32 9 3 C6.03 2.67 3.06 2.34 0 2 C0 1.34 0 0.68 0 0 Z " fill="#393A31" transform="translate(328,554)"/>
<path d="M0 0 C-1.28519565 2.86697492 -2.57129254 4.97607712 -5 7 C-5.66 7 -6.32 7 -7 7 C-3.86206897 0 -3.86206897 0 0 0 Z " fill="#4D4D46" transform="translate(348,196)"/>
<path d="M0 0 C-1.39332574 3.36720387 -2.9789286 4.9859524 -6 7 C-6 4 -6 4 -4.125 1.8125 C-2 0 -2 0 0 0 Z " fill="#4F5048" transform="translate(496,479)"/>
<path d="M0 0 C0.66 0.99 1.32 1.98 2 3 C0.625 5.5 0.625 5.5 -1 8 C-1.66 8 -2.32 8 -3 8 C-1.125 2.25 -1.125 2.25 0 0 Z " fill="#3C3D34" transform="translate(152,116)"/>
<path d="M0 0 C3.36720387 1.39332574 4.9859524 2.9789286 7 6 C3.75728494 5.4409112 2.06942576 4.5867822 0 2 C0 1.34 0 0.68 0 0 Z " fill="#A8945E" transform="translate(525,70)"/>
</svg>
