<?xml version="1.0" encoding="UTF-8"?>
<svg version="1.1" xmlns="http://www.w3.org/2000/svg" width="780" height="780">
<path d="M0 0 C0.845625 0.5775 1.69125 1.155 2.5625 1.75 C10.99698906 9.53568221 16.45930029 20.68646465 18 32 C18.08947073 34.53874057 18.13447929 37.04893481 18.12584114 39.58682346 C18.12729458 40.33425933 18.12874802 41.08169519 18.13024551 41.85178062 C18.13389756 44.3587729 18.13042257 46.86570408 18.12698364 49.37269592 C18.12813586 51.18801242 18.12972406 53.00332869 18.13171089 54.81864446 C18.13589226 59.81067719 18.13381866 64.80269083 18.13072467 69.79472363 C18.1284652 75.18014158 18.13195344 80.56555622 18.13470459 85.95097351 C18.13915963 96.51575878 18.13818576 107.08053696 18.13529195 117.64532251 C18.13303127 126.25790254 18.1327283 134.87048059 18.13381577 143.48306084 C18.133969 144.71030742 18.13412223 145.937554 18.13428011 147.20198987 C18.13459987 149.69593291 18.13492408 152.18987595 18.1352527 154.68381899 C18.1380267 177.43945669 18.13514676 200.19509079 18.1299101 222.95072788 C18.12519206 243.6088371 18.12558351 264.26693918 18.13037109 284.92504883 C18.13576122 308.19355615 18.13780598 331.46206001 18.13475883 354.73056787 C18.13444034 357.22957798 18.13412597 359.72858808 18.13381577 362.22759819 C18.13366149 363.45669192 18.13350721 364.68578565 18.13334826 365.95212464 C18.13249435 374.50539234 18.13394891 383.05865777 18.13629532 391.61192513 C18.14344972 421.07480055 18.12433707 450.5373511 18 480 C17.99675732 480.80460873 17.99351464 481.60921747 17.9901737 482.43820828 C17.95411765 491.22483549 17.897173 500.01048451 17.78251624 508.79651725 C17.7560096 510.95661277 17.73539472 513.11679157 17.72169328 515.27700627 C17.59456094 533.22051731 14.97434418 547.67319954 2.1875 561.3125 C-10.64578189 573.44805006 -24.69062554 573.87706953 -41.4296875 573.49609375 C-50.09978655 573.18869381 -56.02677734 571.37217845 -63 566 C-64.02480469 565.25105469 -65.04960937 564.50210938 -66.10546875 563.73046875 C-68.28667978 562.10515455 -70.42073376 560.43284408 -72.5390625 558.7265625 C-76.3072202 555.71422078 -80.23333479 552.94873052 -84.1875 550.1875 C-90.22171999 545.96272632 -96.22180613 541.69608002 -102.1875 537.375 C-107.44675675 533.56684317 -112.71167938 529.76770742 -118 526 C-125.58674197 520.59222937 -133.13590337 515.13272731 -140.68554688 509.67333984 C-144.45593019 506.94736861 -148.22803694 504.22378466 -152 501.5 C-153.50000859 500.41667856 -155.00000858 499.33334521 -156.5 498.25 C-157.2425 497.71375 -157.985 497.1775 -158.75 496.625 C-201.5 465.75 -201.5 465.75 -203.7512207 464.12402344 C-205.24703147 463.04377882 -206.74296193 461.96369993 -208.23901367 460.88378906 C-212.05412158 458.12956456 -215.86692646 455.37224197 -219.67578125 452.609375 C-220.45244141 452.04669922 -221.22910156 451.48402344 -222.02929688 450.90429688 C-223.47801784 449.8546248 -224.92602137 448.80396124 -226.37304688 447.75195312 C-227.74361693 446.75956129 -229.12762852 445.78547844 -230.5242157 444.83004761 C-233 443 -233 443 -235.3261261 440.7472229 C-246.40051129 431.10924621 -259.48143909 432.81963138 -273.4296875 433.0078125 C-276.11055137 433.00978043 -278.79112885 433.00791411 -281.47195435 433.0007019 C-287.79000203 432.99119542 -294.10697918 433.02456966 -300.42479622 433.07607162 C-311.71479872 433.16674113 -323.0050394 433.18395103 -334.29536641 433.18526542 C-338.87497293 433.18776111 -343.45376987 433.22045217 -348.03317261 433.26150513 C-368.86956448 433.38307304 -386.93169662 432.48662199 -402.8125 417.29296875 C-408.06240733 411.78994089 -412.00102653 405.98346955 -415 399 C-415.40542825 398.07261756 -415.40542825 398.07261756 -415.81904697 397.12650013 C-419.15632259 387.96962109 -418.42796809 378.21029003 -418.40405273 368.61010742 C-418.40976117 366.54107801 -418.41672726 364.47205174 -418.42485046 362.4030304 C-418.44274623 356.80370904 -418.44161999 351.20454472 -418.43590808 345.60520339 C-418.43281052 340.92107184 -418.43891511 336.2369702 -418.44494683 331.55284292 C-418.45897919 320.49638478 -418.45744195 309.44000394 -418.44604492 298.38354492 C-418.43456963 287.00003986 -418.44863256 275.61677057 -418.4754414 264.23329657 C-418.49763816 254.43932543 -418.50422667 244.64542807 -418.49836498 234.85143358 C-418.49500318 229.01102286 -418.49735868 223.17076319 -418.51461601 217.33037376 C-418.53014605 211.83498619 -418.52606244 206.33994621 -418.50731087 200.84457207 C-418.50364149 198.83594069 -418.50668485 196.82728322 -418.51719666 194.81867599 C-418.60766796 176.09114012 -415.45861765 161.28347266 -402.25390625 147.1015625 C-392.76723735 138.25610692 -379.73335796 132.77959227 -366.69844055 132.92926025 C-365.64898254 132.93825851 -364.59952454 132.94725677 -363.51826477 132.95652771 C-362.37697617 132.97119583 -361.23568756 132.98586395 -360.05981445 133.00097656 C-357.55056727 133.02374122 -355.04131502 133.04595222 -352.53205872 133.06768799 C-351.87279125 133.07406328 -351.21352378 133.08043857 -350.53427851 133.08700705 C-345.68017208 133.1333726 -340.82627591 133.15852847 -335.9719696 133.17108154 C-334.91123331 133.17383335 -334.91123331 133.17383335 -333.82906801 133.17664075 C-330.91201731 133.18373455 -327.99496572 133.19003836 -325.07791197 133.19573832 C-316.83245157 133.21249794 -308.58838054 133.24990138 -300.34350586 133.35302734 C-293.7811233 133.43497468 -287.22031991 133.46979031 -280.65742654 133.45151305 C-277.19360215 133.4435531 -273.73336803 133.45764918 -270.27019691 133.5291214 C-253.12407846 133.83183827 -241.78430684 132.62379032 -228.94205666 120.71947002 C-225.53688814 117.70458105 -221.78823313 115.16176427 -218.0625 112.5625 C-209.39622784 106.31184603 -200.79670174 99.97207817 -192.20166016 93.62402344 C-188.97288437 91.2423627 -185.73688536 88.87062108 -182.5 86.5 C-174.46812335 80.61531243 -166.45377265 74.7069049 -158.43945312 68.79833984 C-156.03799129 67.02800679 -153.63624801 65.2580564 -151.234375 63.48828125 C-150.45247803 62.91215088 -149.67058105 62.33602051 -148.86499023 61.74243164 C-147.28906296 60.5813505 -145.71305391 59.42038034 -144.13696289 58.25952148 C-140.1137306 55.29592983 -136.09234753 52.32988333 -132.07421875 49.359375 C-124.53501212 43.78900577 -116.98276329 38.2447833 -109.33764648 32.82055664 C-104.43373418 29.33187209 -99.58973072 25.76452269 -94.75 22.1875 C-86.17158827 15.84904052 -77.55047563 9.57365602 -68.88134766 3.35986328 C-67.26675988 2.19281761 -65.66875053 1.00289593 -64.07421875 -0.19140625 C-44.3342699 -14.76811489 -19.2416279 -16.38076236 0 0 Z " fill="#33342B" transform="translate(422,109)"/>
<path d="M0 0 C0.845625 0.5775 1.69125 1.155 2.5625 1.75 C10.99698906 9.53568221 16.45930029 20.68646465 18 32 C18.08947073 34.53874057 18.13447929 37.04893481 18.12584114 39.58682346 C18.12729458 40.33425933 18.12874802 41.08169519 18.13024551 41.85178062 C18.13389756 44.3587729 18.13042257 46.86570408 18.12698364 49.37269592 C18.12813586 51.18801242 18.12972406 53.00332869 18.13171089 54.81864446 C18.13589226 59.81067719 18.13381866 64.80269083 18.13072467 69.79472363 C18.1284652 75.18014158 18.13195344 80.56555622 18.13470459 85.95097351 C18.13915963 96.51575878 18.13818576 107.08053696 18.13529195 117.64532251 C18.13303127 126.25790254 18.1327283 134.87048059 18.13381577 143.48306084 C18.133969 144.71030742 18.13412223 145.937554 18.13428011 147.20198987 C18.13459987 149.69593291 18.13492408 152.18987595 18.1352527 154.68381899 C18.1380267 177.43945669 18.13514676 200.19509079 18.1299101 222.95072788 C18.12519206 243.6088371 18.12558351 264.26693918 18.13037109 284.92504883 C18.13576122 308.19355615 18.13780598 331.46206001 18.13475883 354.73056787 C18.13444034 357.22957798 18.13412597 359.72858808 18.13381577 362.22759819 C18.13366149 363.45669192 18.13350721 364.68578565 18.13334826 365.95212464 C18.13249435 374.50539234 18.13394891 383.05865777 18.13629532 391.61192513 C18.14344972 421.07480055 18.12433707 450.5373511 18 480 C17.99675732 480.80460873 17.99351464 481.60921747 17.9901737 482.43820828 C17.95411765 491.22483549 17.897173 500.01048451 17.78251624 508.79651725 C17.7560096 510.95661277 17.73539472 513.11679157 17.72169328 515.27700627 C17.59456094 533.22051731 14.97434418 547.67319954 2.1875 561.3125 C-10.64578189 573.44805006 -24.69062554 573.87706953 -41.4296875 573.49609375 C-50.09978655 573.18869381 -56.02677734 571.37217845 -63 566 C-64.02480469 565.25105469 -65.04960937 564.50210938 -66.10546875 563.73046875 C-68.28667978 562.10515455 -70.42073376 560.43284408 -72.5390625 558.7265625 C-76.3072202 555.71422078 -80.23333479 552.94873052 -84.1875 550.1875 C-90.22171999 545.96272632 -96.22180613 541.69608002 -102.1875 537.375 C-107.44675675 533.56684317 -112.71167938 529.76770742 -118 526 C-125.58674197 520.59222937 -133.13590337 515.13272731 -140.68554688 509.67333984 C-144.45593019 506.94736861 -148.22803694 504.22378466 -152 501.5 C-153.50000859 500.41667856 -155.00000858 499.33334521 -156.5 498.25 C-157.2425 497.71375 -157.985 497.1775 -158.75 496.625 C-201.5 465.75 -201.5 465.75 -203.7512207 464.12402344 C-205.24703147 463.04377882 -206.74296193 461.96369993 -208.23901367 460.88378906 C-212.05412158 458.12956456 -215.86692646 455.37224197 -219.67578125 452.609375 C-220.45244141 452.04669922 -221.22910156 451.48402344 -222.02929688 450.90429688 C-223.47801784 449.8546248 -224.92602137 448.80396124 -226.37304688 447.75195312 C-227.74361693 446.75956129 -229.12762852 445.78547844 -230.5242157 444.83004761 C-233 443 -233 443 -235.3261261 440.7472229 C-246.40051129 431.10924621 -259.48143909 432.81963138 -273.4296875 433.0078125 C-276.11055137 433.00978043 -278.79112885 433.00791411 -281.47195435 433.0007019 C-287.79000203 432.99119542 -294.10697918 433.02456966 -300.42479622 433.07607162 C-311.71479872 433.16674113 -323.0050394 433.18395103 -334.29536641 433.18526542 C-338.87497293 433.18776111 -343.45376987 433.22045217 -348.03317261 433.26150513 C-368.86956448 433.38307304 -386.93169662 432.48662199 -402.8125 417.29296875 C-408.06240733 411.78994089 -412.00102653 405.98346955 -415 399 C-415.40542825 398.07261756 -415.40542825 398.07261756 -415.81904697 397.12650013 C-419.15632259 387.96962109 -418.42796809 378.21029003 -418.40405273 368.61010742 C-418.40976117 366.54107801 -418.41672726 364.47205174 -418.42485046 362.4030304 C-418.44274623 356.80370904 -418.44161999 351.20454472 -418.43590808 345.60520339 C-418.43281052 340.92107184 -418.43891511 336.2369702 -418.44494683 331.55284292 C-418.45897919 320.49638478 -418.45744195 309.44000394 -418.44604492 298.38354492 C-418.43456963 287.00003986 -418.44863256 275.61677057 -418.4754414 264.23329657 C-418.49763816 254.43932543 -418.50422667 244.64542807 -418.49836498 234.85143358 C-418.49500318 229.01102286 -418.49735868 223.17076319 -418.51461601 217.33037376 C-418.53014605 211.83498619 -418.52606244 206.33994621 -418.50731087 200.84457207 C-418.50364149 198.83594069 -418.50668485 196.82728322 -418.51719666 194.81867599 C-418.60766796 176.09114012 -415.45861765 161.28347266 -402.25390625 147.1015625 C-392.76723735 138.25610692 -379.73335796 132.77959227 -366.69844055 132.92926025 C-365.64898254 132.93825851 -364.59952454 132.94725677 -363.51826477 132.95652771 C-362.37697617 132.97119583 -361.23568756 132.98586395 -360.05981445 133.00097656 C-357.55056727 133.02374122 -355.04131502 133.04595222 -352.53205872 133.06768799 C-351.87279125 133.07406328 -351.21352378 133.08043857 -350.53427851 133.08700705 C-345.68017208 133.1333726 -340.82627591 133.15852847 -335.9719696 133.17108154 C-334.91123331 133.17383335 -334.91123331 133.17383335 -333.82906801 133.17664075 C-330.91201731 133.18373455 -327.99496572 133.19003836 -325.07791197 133.19573832 C-316.83245157 133.21249794 -308.58838054 133.24990138 -300.34350586 133.35302734 C-293.7811233 133.43497468 -287.22031991 133.46979031 -280.65742654 133.45151305 C-277.19360215 133.4435531 -273.73336803 133.45764918 -270.27019691 133.5291214 C-253.12407846 133.83183827 -241.78430684 132.62379032 -228.94205666 120.71947002 C-225.53688814 117.70458105 -221.78823313 115.16176427 -218.0625 112.5625 C-209.39622784 106.31184603 -200.79670174 99.97207817 -192.20166016 93.62402344 C-188.97288437 91.2423627 -185.73688536 88.87062108 -182.5 86.5 C-174.46812335 80.61531243 -166.45377265 74.7069049 -158.43945312 68.79833984 C-156.03799129 67.02800679 -153.63624801 65.2580564 -151.234375 63.48828125 C-150.45247803 62.91215088 -149.67058105 62.33602051 -148.86499023 61.74243164 C-147.28906296 60.5813505 -145.71305391 59.42038034 -144.13696289 58.25952148 C-140.1137306 55.29592983 -136.09234753 52.32988333 -132.07421875 49.359375 C-124.53501212 43.78900577 -116.98276329 38.2447833 -109.33764648 32.82055664 C-104.43373418 29.33187209 -99.58973072 25.76452269 -94.75 22.1875 C-86.17158827 15.84904052 -77.55047563 9.57365602 -68.88134766 3.35986328 C-67.26675988 2.19281761 -65.66875053 1.00289593 -64.07421875 -0.19140625 C-44.3342699 -14.76811489 -19.2416279 -16.38076236 0 0 Z M-44.8125 52.375 C-45.99187766 53.3067315 -47.17291974 54.23635938 -48.35546875 55.1640625 C-48.96181152 55.64004883 -49.5681543 56.11603516 -50.19287109 56.60644531 C-52.94927188 58.7320243 -55.78071025 60.74436324 -58.625 62.75 C-64.30187872 66.76450813 -69.91023608 70.86510614 -75.5 75 C-80.96958167 79.04409694 -86.45163012 83.06461407 -92 87 C-99.92435765 92.62486329 -107.73044034 98.40884501 -115.54443359 104.18554688 C-120.31318637 107.70924648 -125.08857406 111.22394667 -129.86279297 114.74023438 C-133.88606462 117.70396429 -137.90756101 120.67004906 -141.92578125 123.640625 C-149.46498788 129.21099423 -157.01723671 134.7552167 -164.66235352 140.17944336 C-169.5662669 143.66812868 -174.41022825 147.23553159 -179.25 150.8125 C-187.70930084 157.06163689 -196.20474336 163.25733979 -204.75195312 169.38574219 C-206.29418399 170.49317382 -207.83445011 171.6033452 -209.37304688 172.71582031 C-211.70277932 174.39988405 -214.03817168 176.07580173 -216.375 177.75 C-217.43678467 178.52077881 -217.43678467 178.52077881 -218.52001953 179.30712891 C-219.18114746 179.77812012 -219.84227539 180.24911133 -220.5234375 180.734375 C-221.10013184 181.14913086 -221.67682617 181.56388672 -222.27099609 181.99121094 C-225.88177526 184.09792366 -229.47844848 184.12740381 -233.58595276 184.13803101 C-235.29156372 184.14621101 -235.29156372 184.14621101 -237.03163147 184.15455627 C-238.89651466 184.15611977 -238.89651466 184.15611977 -240.79907227 184.15771484 C-242.81370212 184.16551354 -244.82833196 184.17331631 -246.84296119 184.18127275 C-249.00619749 184.18897998 -251.16942958 184.19436605 -253.33267403 184.19923019 C-257.84112048 184.20991983 -262.34949217 184.23016531 -266.8578949 184.25234985 C-279.67695712 184.31424802 -292.49601398 184.36834016 -305.31518555 184.40136719 C-312.39718561 184.41969303 -319.47905953 184.44859827 -326.56096691 184.4893719 C-330.30855056 184.5104669 -334.05597513 184.52590275 -337.80362129 184.52817917 C-341.97936592 184.53071885 -346.15466645 184.55614562 -350.33032227 184.58349609 C-351.57560196 184.58048996 -352.82088165 184.57748383 -354.10389709 184.5743866 C-355.80527832 184.59102608 -355.80527832 184.59102608 -357.54103088 184.60800171 C-359.02239454 184.61296693 -359.02239454 184.61296693 -360.53368473 184.61803246 C-362.98544048 184.84575768 -362.98544048 184.84575768 -364.81863785 186.04875851 C-366.65641794 189.08419753 -366.40173105 192.16873281 -366.36076355 195.61186218 C-366.36332682 196.39438396 -366.3658901 197.17690573 -366.36853105 197.98314029 C-366.37348497 200.61356081 -366.3569498 203.24341138 -366.34057617 205.8737793 C-366.33973025 207.75597113 -366.34020437 209.63816396 -366.34190369 211.52035522 C-366.34276641 216.63786921 -366.32509581 221.75517336 -366.30418181 226.87263846 C-366.28546117 232.21780068 -366.28366822 237.56296741 -366.28010559 242.90815735 C-366.27077155 253.03352902 -366.24613938 263.15880382 -366.21605712 273.28413278 C-366.18255539 284.80996701 -366.16603774 296.3358058 -366.15097082 307.86167657 C-366.11959101 331.57450481 -366.06680411 355.28724698 -366 379 C-362.7087137 380.9599769 -360.24038105 381.25196435 -356.43423462 381.25828552 C-354.73512688 381.26852753 -354.73512688 381.26852753 -353.00169373 381.27897644 C-351.14388023 381.27514702 -351.14388023 381.27514702 -349.24853516 381.27124023 C-347.24122662 381.27926338 -345.2339181 381.28728894 -343.22660995 381.29540551 C-341.07073652 381.30225846 -338.9149055 381.30426054 -336.75902176 381.30496025 C-332.26232383 381.30690235 -327.76577971 381.32496347 -323.26913452 381.34571838 C-312.09936749 381.39488899 -300.92955867 381.42578116 -289.75970459 381.44702148 C-281.08016254 381.463552 -272.40075234 381.48638875 -263.72129858 381.53004223 C-259.25376953 381.55179753 -254.7864911 381.55987842 -250.31891274 381.55764949 C-246.88262182 381.55971111 -243.44649574 381.58107507 -240.01025391 381.59936523 C-238.15851311 381.59249947 -238.15851311 381.59249947 -236.2693634 381.585495 C-225.94448768 381.67299897 -225.94448768 381.67299897 -221 385 C-220.31373535 385.44335693 -219.6274707 385.88671387 -218.92041016 386.34350586 C-218.29956543 386.79604736 -217.6787207 387.24858887 -217.0390625 387.71484375 C-216.32878906 388.22982422 -215.61851562 388.74480469 -214.88671875 389.27539062 C-214.14035156 389.82388672 -213.39398438 390.37238281 -212.625 390.9375 C-211.43970703 391.80084961 -211.43970703 391.80084961 -210.23046875 392.68164062 C-204.4603029 396.89616976 -198.74174165 401.17787048 -193.03710938 405.48046875 C-185.86446706 410.87938375 -178.57715817 416.11650973 -171.28662109 421.35449219 C-169.00692487 422.99501669 -166.73129502 424.64101689 -164.45703125 426.2890625 C-157.16819116 431.56965645 -149.86144159 436.82098927 -142.5 442 C-131.16484593 449.97775566 -119.92462029 458.0829154 -108.78857422 466.33642578 C-101.63104529 471.6404979 -94.42121394 476.82185222 -87.04931641 481.82348633 C-81.85693492 485.36503263 -76.79463701 489.06416931 -71.75 492.8125 C-54.97708612 507.59602825 -54.97708612 507.59602825 -36 516 C-36 361.56 -36 207.12 -36 48 C-40.0075661 48 -41.83627923 49.96318907 -44.8125 52.375 Z " fill="#36372E" transform="translate(422,109)"/>
<path d="M0 0 C11.16403082 8.76595163 19.96593754 20.27662666 28.4375 31.5625 C28.94394043 32.2337793 29.45038086 32.90505859 29.97216797 33.59667969 C53.83862845 65.40393542 72.11936735 100.76758727 84.4375 138.5625 C84.73398437 139.46726074 85.03046875 140.37202148 85.3359375 141.30419922 C96.84482422 176.77148956 101.66266005 213.19778403 101.6875 250.4375 C101.68817474 251.35535278 101.68884949 252.27320557 101.68954468 253.21887207 C101.62408059 309.77739499 89.69736038 365.40679295 65.4375 416.5625 C65.00937012 417.46709961 64.58124023 418.37169922 64.14013672 419.30371094 C50.24257841 448.40356178 32.40312975 476.13436975 10.75439453 500.09912109 C9.54600878 501.44192128 8.36342856 502.8078272 7.18359375 504.17578125 C-0.45379222 512.54455593 -10.78694275 518.04806508 -22.1640625 518.80078125 C-35.75626514 519.17501776 -46.53872488 515.99138402 -56.72265625 506.5625 C-65.96602331 496.8871999 -68.96329743 486.37914883 -68.83984375 473.265625 C-67.89895506 460.70277324 -61.44830577 451.85642768 -53.5 442.625 C-2.32285847 383.04838929 20.06238632 304.30463928 14.97290039 226.67504883 C11.35136931 181.18179584 -4.28903791 135.5563218 -29.5625 97.5625 C-30.04187012 96.84126953 -30.52124023 96.12003906 -31.01513672 95.37695312 C-36.65687275 86.97666302 -42.66064951 79.07069884 -49.32592773 71.45922852 C-60.5420519 58.63468422 -67.19039012 47.83338865 -66.8359375 30.48828125 C-66.13792842 20.46686523 -62.37679761 12.82455433 -55.5625 5.5625 C-54.96566406 4.92441406 -54.36882813 4.28632813 -53.75390625 3.62890625 C-39.24717815 -10.39526956 -16.34930563 -11.11095052 0 0 Z " fill="#36372E" transform="translate(673.5625,134.4375)"/>
<path d="M0 0 C38.46227358 29.19719341 59.13217929 90.14681089 65.625 136.25 C66.04702208 139.45554064 66.43534555 142.66392802 66.8125 145.875 C66.94398438 146.86757813 67.07546875 147.86015625 67.2109375 148.8828125 C74.4747498 211.50865369 49.14400384 280.72785535 10.73046875 329.51953125 C2.33997774 339.49875428 -7.68995549 344.85331025 -20.74609375 346.2578125 C-33.88525762 346.68954844 -44.68902387 342.09915212 -54.3125 333.3125 C-61.65841083 325.66291962 -65.6135491 315.64762062 -66.5 305.1875 C-66.07191478 292.3701249 -61.08341749 283.18216687 -53.70288086 273.1081543 C-25.76942837 234.84854033 -12.52583849 187.36177799 -19.28466797 140.33325195 C-23.68818432 112.9302575 -36.05568158 87.55295262 -53.1875 65.875 C-62.21650874 54.20557526 -67.25386911 43.86341022 -66.1875 28.875 C-64.28701363 17.29491777 -58.85499219 8.44925468 -49.984375 0.85546875 C-34.80489955 -9.89312629 -15.51223758 -10.11044144 0 0 Z " fill="#36372E" transform="translate(583.1875,221.125)"/>
<path d="M0 0 C5.19680514 3.33887999 9.55435987 7.71323204 11.55784285 13.65417576 C12.19673711 17.04377071 12.14253953 20.40950938 12.13701439 23.84568787 C12.13966622 24.64530884 12.14231804 25.44492981 12.14505023 26.26878172 C12.1527477 28.96492548 12.15330257 31.66102372 12.15390015 34.35717773 C12.15791448 36.30310911 12.16235265 38.24903965 12.1671797 40.19496918 C12.1791544 45.55570822 12.18479574 50.91643826 12.18936086 56.27718806 C12.19531357 62.0538217 12.20692426 67.83044455 12.21765137 73.60707092 C12.24218322 87.5647941 12.25680381 101.52252084 12.26971143 115.48025894 C12.27342284 119.42192864 12.27739611 123.36359799 12.2814641 127.30526733 C12.30670041 151.77730991 12.32877178 176.2493524 12.34119225 200.72140503 C12.34411352 206.3909302 12.34708106 212.06045535 12.35009766 217.72998047 C12.35046857 218.43434041 12.35083947 219.13870035 12.35122162 219.86440453 C12.36337384 242.69518863 12.39431268 265.52589558 12.43601918 288.35664345 C12.48003954 312.49810802 12.50572869 336.63952657 12.51111281 360.78103161 C12.51452735 373.93935051 12.5262878 387.09754772 12.55921555 400.25582886 C12.58721222 411.46203987 12.59821698 422.66810424 12.58702008 433.87434751 C12.58183252 439.59128139 12.5847271 445.30790815 12.60948563 451.02479744 C12.63197782 456.26213545 12.63123805 461.4989457 12.61228175 466.73629296 C12.60948175 468.62736414 12.61508026 470.5184711 12.63009469 472.40948474 C12.71460703 483.75019736 12.67600459 495.24771935 4.4375 504.125 C-0.11583982 507.62756909 -3.60423236 508.58481149 -9.31982422 508.45507812 C-14.24362105 507.61904631 -17.68388315 504.7461946 -21.5625 501.75 C-23.32151394 500.45429044 -25.08063018 499.15871976 -26.83984375 497.86328125 C-27.70851074 497.21053223 -28.57717773 496.5577832 -29.47216797 495.88525391 C-33.13362621 493.15454302 -36.87857522 490.54959306 -40.625 487.9375 C-48.70936118 482.23864141 -56.72436387 476.44444089 -64.73388672 470.64111328 C-68.486448 467.92351827 -72.24343419 465.21205527 -76 462.5 C-77.50002146 461.41669638 -79.00002146 460.33336304 -80.5 459.25 C-81.2425 458.71375 -81.985 458.1775 -82.75 457.625 C-89.5 452.75 -89.5 452.75 -91.75097656 451.12426758 C-93.24768701 450.04332809 -94.74443168 448.96243599 -96.24121094 447.8815918 C-100.04182637 445.1370246 -103.84180298 442.39158034 -107.640625 439.64453125 C-118.09913665 432.08300414 -128.56061616 424.52591054 -139.1171875 417.1015625 C-146.55194339 411.8727046 -153.95216096 406.60771801 -161.26757812 401.21289062 C-166.13220712 397.62708103 -171.03111473 394.09089282 -175.9375 390.5625 C-182.02195513 386.18129849 -188.06422379 381.74853735 -194.0625 377.25 C-195.09008423 376.47958374 -195.09008423 376.47958374 -196.13842773 375.69360352 C-200.86444295 372.13555705 -200.86444295 372.13555705 -202 371 C-203.75360026 370.90239101 -205.5111566 370.87535421 -207.26747131 370.87542725 C-208.98130005 370.87158272 -208.98130005 370.87158272 -210.72975159 370.86766052 C-211.99463913 370.86976028 -213.25952667 370.87186005 -214.56274414 370.87402344 C-215.89964864 370.87262941 -217.23655269 370.87073058 -218.57345581 370.86836243 C-221.45999061 370.86385601 -224.34651116 370.86200913 -227.23304939 370.86190033 C-231.80143473 370.86076179 -236.3697389 370.84793503 -240.93809509 370.83233643 C-242.09397608 370.82847715 -242.09397608 370.82847715 -243.2732082 370.8245399 C-244.84947529 370.81927284 -246.42574231 370.81398736 -248.00200927 370.80868387 C-258.64091869 370.77357168 -269.27972904 370.74701726 -279.91870117 370.74951172 C-287.08940441 370.75110264 -294.25983244 370.73500622 -301.43044752 370.69880509 C-305.22473421 370.68037347 -309.01856169 370.6709768 -312.81288338 370.68328094 C-316.38770976 370.69475953 -319.96171646 370.68291792 -323.53643417 370.65364647 C-325.46479341 370.64389209 -327.39322864 370.65873279 -329.32154846 370.67445374 C-337.50342511 370.57701162 -342.51065356 369.17443637 -348.51330662 363.59284592 C-353.75968558 357.93747883 -354.29902245 351.23961587 -354.26069641 343.85379028 C-354.26452196 343.06195024 -354.26834751 342.2701102 -354.27228898 341.45427501 C-354.28256101 338.81596496 -354.27863791 336.1778749 -354.2746582 333.53955078 C-354.2790079 331.64181315 -354.28419191 329.74407727 -354.29014587 327.84634399 C-354.30351966 322.70167035 -354.30411632 317.55707024 -354.30158257 312.4123826 C-354.30051173 308.11325582 -354.30539917 303.81414385 -354.310188 299.51502025 C-354.32127767 289.370191 -354.32172367 279.22539878 -354.31567383 269.08056641 C-354.30963424 258.62468559 -354.32194596 248.16893934 -354.3432439 237.71308148 C-354.3608733 228.72687808 -354.36685912 219.74071746 -354.36360615 210.75449741 C-354.36179523 205.39150195 -354.36441045 200.02860247 -354.37832069 194.66562271 C-354.39091609 189.62094279 -354.38893867 184.57647229 -354.37590981 179.5317955 C-354.37354818 177.68435342 -354.37626383 175.83689652 -354.38453293 173.98947144 C-354.46678824 154.17824066 -354.46678824 154.17824066 -349.45703125 146.6953125 C-348.91433594 146.17710937 -348.37164062 145.65890625 -347.8125 145.125 C-347.28269531 144.59132813 -346.75289063 144.05765625 -346.20703125 143.5078125 C-338.83066232 138.46838169 -331.6298421 138.62183672 -323.00073242 138.78979492 C-321.02434231 138.80867246 -319.04795187 138.82752781 -317.07155383 138.8455559 C-314.95875856 138.86714696 -312.84614394 138.89570398 -310.73344994 138.92552757 C-306.30437906 138.98528447 -301.87553837 139.0097882 -297.44612122 139.02668762 C-295.92292687 139.03287292 -294.39973255 139.03906711 -292.87653828 139.04526997 C-291.73256626 139.04986963 -291.73256626 139.04986963 -290.56548369 139.05456221 C-280.26699731 139.09829542 -269.96963861 139.16839098 -259.67211914 139.31860352 C-252.70839827 139.41990809 -245.74624609 139.4700413 -238.78176767 139.46426088 C-235.10807289 139.46325818 -231.43855065 139.48678763 -227.76579857 139.57372093 C-209.62214089 139.98643515 -197.25033743 138.52978112 -183.72694016 125.61883736 C-181.46398252 123.49753608 -179.013574 121.70622428 -176.48046875 119.921875 C-175.75666016 119.38691406 -175.03285156 118.85195312 -174.28710938 118.30078125 C-167.67605052 113.41782243 -161.04069309 108.57638248 -154.33764648 103.82055664 C-148.60916387 99.74526582 -142.96175797 95.56163149 -137.30859375 91.3828125 C-131.89719931 87.38683862 -126.45993058 83.42935004 -121 79.5 C-114.80341871 75.03984573 -108.64016025 70.53750831 -102.5 66 C-96.35983731 61.46248989 -90.19645339 56.96033424 -84 52.5 C-73.78466215 45.14428652 -63.66173188 37.66493673 -53.54003906 30.18115234 C-45.00380027 23.87095131 -36.46708608 17.56630276 -27.80810547 11.42504883 C-23.22844415 8.17674782 -18.70919649 4.85078059 -14.20703125 1.49609375 C-9.57906578 -1.64109346 -5.22347848 -1.51894366 0 0 Z M-14.8125 24.375 C-15.99187766 25.3067315 -17.17291974 26.23635938 -18.35546875 27.1640625 C-18.96181152 27.64004883 -19.5681543 28.11603516 -20.19287109 28.60644531 C-22.94927188 30.7320243 -25.78071025 32.74436324 -28.625 34.75 C-34.30187872 38.76450813 -39.91023608 42.86510614 -45.5 47 C-50.96958167 51.04409694 -56.45163012 55.06461407 -62 59 C-69.92435765 64.62486329 -77.73044034 70.40884501 -85.54443359 76.18554688 C-90.31318637 79.70924648 -95.08857406 83.22394667 -99.86279297 86.74023438 C-103.88606462 89.70396429 -107.90756101 92.67004906 -111.92578125 95.640625 C-119.46498788 101.21099423 -127.01723671 106.7552167 -134.66235352 112.17944336 C-139.5662669 115.66812868 -144.41022825 119.23553159 -149.25 122.8125 C-157.70930084 129.06163689 -166.20474336 135.25733979 -174.75195312 141.38574219 C-176.29418399 142.49317382 -177.83445011 143.6033452 -179.37304688 144.71582031 C-181.70277932 146.39988405 -184.03817168 148.07580173 -186.375 149.75 C-187.43678467 150.52077881 -187.43678467 150.52077881 -188.52001953 151.30712891 C-189.18114746 151.77812012 -189.84227539 152.24911133 -190.5234375 152.734375 C-191.10013184 153.14913086 -191.67682617 153.56388672 -192.27099609 153.99121094 C-195.88177526 156.09792366 -199.47844848 156.12740381 -203.58595276 156.13803101 C-205.29156372 156.14621101 -205.29156372 156.14621101 -207.03163147 156.15455627 C-208.89651466 156.15611977 -208.89651466 156.15611977 -210.79907227 156.15771484 C-212.81370212 156.16551354 -214.82833196 156.17331631 -216.84296119 156.18127275 C-219.00619749 156.18897998 -221.16942958 156.19436605 -223.33267403 156.19923019 C-227.84112048 156.20991983 -232.34949217 156.23016531 -236.8578949 156.25234985 C-249.67695712 156.31424802 -262.49601398 156.36834016 -275.31518555 156.40136719 C-282.39718561 156.41969303 -289.47905953 156.44859827 -296.56096691 156.4893719 C-300.30855056 156.5104669 -304.05597513 156.52590275 -307.80362129 156.52817917 C-311.97936592 156.53071885 -316.15466645 156.55614562 -320.33032227 156.58349609 C-321.57560196 156.58048996 -322.82088165 156.57748383 -324.10389709 156.5743866 C-325.80527832 156.59102608 -325.80527832 156.59102608 -327.54103088 156.60800171 C-329.02239454 156.61296693 -329.02239454 156.61296693 -330.53368473 156.61803246 C-332.98544048 156.84575768 -332.98544048 156.84575768 -334.81863785 158.04875851 C-336.65641794 161.08419753 -336.40173105 164.16873281 -336.36076355 167.61186218 C-336.36332682 168.39438396 -336.3658901 169.17690573 -336.36853105 169.98314029 C-336.37348497 172.61356081 -336.3569498 175.24341138 -336.34057617 177.8737793 C-336.33973025 179.75597113 -336.34020437 181.63816396 -336.34190369 183.52035522 C-336.34276641 188.63786921 -336.32509581 193.75517336 -336.30418181 198.87263846 C-336.28546117 204.21780068 -336.28366822 209.56296741 -336.28010559 214.90815735 C-336.27077155 225.03352902 -336.24613938 235.15880382 -336.21605712 245.28413278 C-336.18255539 256.80996701 -336.16603774 268.3358058 -336.15097082 279.86167657 C-336.11959101 303.57450481 -336.06680411 327.28724698 -336 351 C-332.7087137 352.9599769 -330.24038105 353.25196435 -326.43423462 353.25828552 C-324.73512688 353.26852753 -324.73512688 353.26852753 -323.00169373 353.27897644 C-321.14388023 353.27514702 -321.14388023 353.27514702 -319.24853516 353.27124023 C-317.24122662 353.27926338 -315.2339181 353.28728894 -313.22660995 353.29540551 C-311.07073652 353.30225846 -308.9149055 353.30426054 -306.75902176 353.30496025 C-302.26232383 353.30690235 -297.76577971 353.32496347 -293.26913452 353.34571838 C-282.09936749 353.39488899 -270.92955867 353.42578116 -259.75970459 353.44702148 C-251.08016254 353.463552 -242.40075234 353.48638875 -233.72129858 353.53004223 C-229.25376953 353.55179753 -224.7864911 353.55987842 -220.31891274 353.55764949 C-216.88262182 353.55971111 -213.44649574 353.58107507 -210.01025391 353.59936523 C-208.15851311 353.59249947 -208.15851311 353.59249947 -206.2693634 353.585495 C-195.94448768 353.67299897 -195.94448768 353.67299897 -191 357 C-190.31373535 357.44335693 -189.6274707 357.88671387 -188.92041016 358.34350586 C-188.29956543 358.79604736 -187.6787207 359.24858887 -187.0390625 359.71484375 C-186.32878906 360.22982422 -185.61851562 360.74480469 -184.88671875 361.27539062 C-184.14035156 361.82388672 -183.39398438 362.37238281 -182.625 362.9375 C-181.43970703 363.80084961 -181.43970703 363.80084961 -180.23046875 364.68164062 C-174.4603029 368.89616976 -168.74174165 373.17787048 -163.03710938 377.48046875 C-155.86446706 382.87938375 -148.57715817 388.11650973 -141.28662109 393.35449219 C-139.00692487 394.99501669 -136.73129502 396.64101689 -134.45703125 398.2890625 C-127.16819116 403.56965645 -119.86144159 408.82098927 -112.5 414 C-101.16484593 421.97775566 -89.92462029 430.0829154 -78.78857422 438.33642578 C-71.63104529 443.6404979 -64.42121394 448.82185222 -57.04931641 453.82348633 C-51.85693492 457.36503263 -46.79463701 461.06416931 -41.75 464.8125 C-24.97708612 479.59602825 -24.97708612 479.59602825 -6 488 C-6 333.56 -6 179.12 -6 20 C-10.0075661 20 -11.83627923 21.96318907 -14.8125 24.375 Z " fill="#B79E5F" transform="translate(392,137)"/>
<path d="M0 0 C21.29352242 15.55747666 34.94449005 42.71191834 39.39794922 68.28515625 C44.33339667 100.56976626 36.56509167 133.10268289 17.48828125 159.74609375 C10.07711065 169.58910104 3.23348789 177.7184128 -9.4375 179.9375 C-16.69023252 180.43028148 -22.82213306 178.33377642 -28.375 173.6875 C-34.17170876 168.14842274 -37.12217236 163.09605331 -37.375 154.9375 C-37.25990342 145.48911675 -33.72317527 139.89225567 -27.6875 132.875 C-14.21900681 116.95564577 -10.58858824 98.39856876 -12 78 C-13.27064863 67.21665753 -17.59387569 56.01620546 -24.7265625 47.71484375 C-27 45 -27 45 -27 43 C-27.58523438 42.75894531 -28.17046875 42.51789063 -28.7734375 42.26953125 C-31.42721174 40.75641436 -32.77633282 39.11031271 -34.625 36.6875 C-35.21539062 35.92824219 -35.80578125 35.16898437 -36.4140625 34.38671875 C-40.8568923 27.70058819 -40.96316502 20.82465033 -40 13 C-37.00811727 4.92936971 -31.84241433 0.36490002 -24.3125 -3.3125 C-15.60807718 -5.11907832 -7.61541511 -4.82405055 0 0 Z " fill="#37382F" transform="translate(494,303)"/>
<path d="M0 0 C4.73563844 1.26231422 7.3471299 4.96536492 10.359375 8.62890625 C11.06835938 9.46164063 11.77734375 10.294375 12.5078125 11.15234375 C14.83960122 13.9423085 17.10631558 16.77503099 19.359375 19.62890625 C20.1534375 20.62921875 20.9475 21.62953125 21.765625 22.66015625 C39.25278745 44.90610888 55.88938333 70.08353314 65.35546875 96.875 C66.37073674 99.66007368 67.57365927 102.27167848 68.859375 104.94140625 C71.54301216 110.71248804 73.35372164 116.65934464 75.17578125 122.7421875 C76.13787172 125.95251518 77.22596856 129.09948593 78.359375 132.25390625 C82.48928055 144.57674184 84.99972802 157.56157422 87.046875 170.37890625 C87.20748413 171.38352905 87.20748413 171.38352905 87.37133789 172.40844727 C87.73214997 174.81169831 88.04608605 177.21897508 88.359375 179.62890625 C88.52856445 180.81460205 88.69775391 182.00029785 88.87207031 183.22192383 C90.76565924 197.38236723 90.75289716 211.55090945 90.734375 225.81640625 C90.73516052 227.09872131 90.73594604 228.38103638 90.73675537 229.70220947 C90.72256678 249.02978915 89.80889479 267.59685627 86.359375 286.62890625 C85.84158169 289.8686005 85.32770828 293.10883551 84.81982422 296.35009766 C84.359375 298.62890625 84.359375 298.62890625 83.359375 299.62890625 C83.13417813 301.55916514 82.91189248 303.49020067 82.73828125 305.42578125 C82.359375 307.62890625 82.359375 307.62890625 81.44921875 309.88671875 C80.33149755 312.69904952 79.61581751 315.51001556 78.91552734 318.44995117 C67.5425872 365.56427785 42.41360171 414.02450974 9.2578125 449.57421875 C7.59665556 451.37209643 6.06254258 453.20906065 4.546875 455.12890625 C1.5641229 458.5377658 -0.14864096 459.40669586 -4.578125 460.06640625 C-7.640625 459.62890625 -7.640625 459.62890625 -10.515625 457.62890625 C-12.77992378 454.43224915 -13.15342752 452.58335296 -13.03759766 448.70703125 C-12.33702583 445.03958515 -9.90601727 442.70712551 -7.390625 440.12890625 C-6.2796562 438.91267556 -5.17302252 437.69247357 -4.0703125 436.46875 C-3.50022461 435.84081543 -2.93013672 435.21288086 -2.34277344 434.56591797 C13.56028672 416.46854573 25.84264107 395.00474355 37.140625 373.85546875 C38.00291559 372.28013018 38.9190505 370.73371468 39.87109375 369.2109375 C41.47156603 366.43426511 42.56817427 363.69908555 43.671875 360.69140625 C45.40678812 356.05285112 47.27294026 351.52332073 49.296875 347.00390625 C59.8895027 322.38685564 66.10483642 295.14453664 69.359375 268.62890625 C69.44551056 267.93135223 69.53164612 267.23379822 69.62039185 266.5151062 C71.24465041 253.01609146 71.72215424 239.65535854 71.671875 226.06640625 C71.67038452 225.06343506 71.66889404 224.06046387 71.6673584 223.02709961 C71.62481332 207.04666047 70.9137769 191.43142604 68.359375 175.62890625 C68.2042041 174.64083984 68.0490332 173.65277344 67.88916016 172.63476562 C66.04719354 161.13608719 63.79805075 149.76749894 60.359375 138.62890625 C60.09141113 137.76072266 59.82344727 136.89253906 59.54736328 135.99804688 C54.35023966 119.3919861 48.30643201 103.13386026 40.359375 87.62890625 C40.03751221 86.99082031 39.71564941 86.35273438 39.3840332 85.6953125 C27.35846155 61.93146029 12.78569403 39.91568587 -4.97265625 20.015625 C-11.1418034 12.89571612 -11.1418034 12.89571612 -11.390625 8.25390625 C-10.640625 4.62890625 -10.640625 4.62890625 -9.203125 2.12890625 C-5.9883949 0.24711302 -3.70614514 -0.18772957 0 0 Z " fill="#B79E5F" transform="translate(651.640625,160.37109375)"/>
<path d="M0 0 C29.53899965 20.39483607 46.11678678 70.91615005 52.50195312 104.1940918 C53.07626644 107.45542468 53.55601029 110.71802804 54 114 C54.13019531 114.94359375 54.26039063 115.8871875 54.39453125 116.859375 C54.72537318 119.91194317 54.88507953 122.93094758 55 126 C55.03254883 126.77537109 55.06509766 127.55074219 55.09863281 128.34960938 C57.11978108 183.43100363 39.69481902 243.01029099 3 285 C-0.20531421 286.6026571 -3.52218208 286.48207377 -7 286 C-10.17374022 283.96555114 -10.84531325 282.49537336 -11.96484375 278.91015625 C-12.01566865 273.25729739 -9.43474123 270.40489932 -6.125 266 C-4.9097834 264.30160531 -3.69756342 262.60106269 -2.48828125 260.8984375 C-1.59036865 259.64691895 -1.59036865 259.64691895 -0.67431641 258.37011719 C10.52264806 242.51999601 19.10136733 224.45037428 25 206 C25.33257813 205.03191406 25.66515625 204.06382812 26.0078125 203.06640625 C28.3830054 195.87536949 30.06782173 188.58049113 31.6875 181.1875 C31.90212891 180.2085376 32.11675781 179.2295752 32.33789062 178.22094727 C34.18729168 169.55224911 35.1595402 161.21932569 35.23828125 152.3671875 C35.24802979 151.46081039 35.25777832 150.55443329 35.26782227 149.62059021 C35.63887327 122.55550472 35.63887327 122.55550472 31 96 C30.81276367 95.26507324 30.62552734 94.53014648 30.43261719 93.77294922 C23.45353092 66.44120811 10.6777481 39.89420842 -7.6875 18.375 C-11.16346006 14.15885638 -12.3734138 11.50785359 -12 6 C-8.74238589 0.72041851 -6.13812058 -0.60177653 0 0 Z " fill="#B79E60" transform="translate(563,247)"/>
<path d="M0 0 C0.33 0.66 0.66 1.32 1 2 C0.01538086 4.45507812 0.01538086 4.45507812 -1.53515625 7.53125 C-2.37916992 9.21347656 -2.37916992 9.21347656 -3.24023438 10.9296875 C-3.54018311 11.51717773 -3.84013184 12.10466797 -4.14916992 12.70996094 C-5.04259186 14.46098196 -5.92282243 16.21871372 -6.80273438 17.9765625 C-10.26462887 24.83009883 -13.93569145 31.48522075 -18 38 C-18.33 36.68 -18.66 35.36 -19 34 C-18.34 34 -17.68 34 -17 34 C-16.87625 33.071875 -16.7525 32.14375 -16.625 31.1875 C-16 28 -16 28 -14 25 C-13.34 25 -12.68 25 -12 25 C-12 23.68 -12 22.36 -12 21 C-11.34 21 -10.68 21 -10 21 C-10 19.68 -10 18.36 -10 17 C-9.34 17 -8.68 17 -8 17 C-7.7834375 15.576875 -7.7834375 15.576875 -7.5625 14.125 C-7 11 -7 11 -6 9 C-5.34 9 -4.68 9 -4 9 C-4 7.68 -4 6.36 -4 5 C-3.34 5 -2.68 5 -2 5 C-2 3.68 -2 2.36 -2 1 C-1.34 0.67 -0.68 0.34 0 0 Z " fill="#666660" transform="translate(741,543)"/>
<path d="M0 0 C-0.76143311 0.01981934 -1.52286621 0.03963867 -2.30737305 0.06005859 C-5.76775472 0.15549922 -9.22754855 0.26510212 -12.6875 0.375 C-13.88568359 0.4059375 -15.08386719 0.436875 -16.31835938 0.46875 C-18.05375977 0.52675781 -18.05375977 0.52675781 -19.82421875 0.5859375 C-20.88729248 0.6173584 -21.95036621 0.6487793 -23.0456543 0.68115234 C-26.04552007 1.00491275 -28.23986637 1.83176692 -31 3 C-31.99 3 -32.98 3 -34 3 C-34.33 3.66 -34.66 4.32 -35 5 C-35.66 4.34 -36.32 3.68 -37 3 C-26.38854828 -1.74177669 -10.63817942 -7.09211961 0 0 Z " fill="#7C7C78" transform="translate(404,100)"/>
<path d="M0 0 C0.15082031 0.60585938 0.30164063 1.21171875 0.45703125 1.8359375 C0.85813713 3.4345897 1.26991216 5.03057372 1.6875 6.625 C1.790625 7.40875 1.89375 8.1925 2 9 C1.34 9.66 0.68 10.32 0 11 C-0.67940467 13.42715206 -0.67940467 13.42715206 -1.125 16.125 C-1.29257812 17.03507813 -1.46015625 17.94515625 -1.6328125 18.8828125 C-1.75398437 19.58148437 -1.87515625 20.28015625 -2 21 C-2.33 21 -2.66 21 -3 21 C-3.43230491 13.65081658 -1.81774185 7.09784913 0 0 Z " fill="#7E7F7A" transform="translate(520,509)"/>
<path d="M0 0 C1.00796724 3.16069729 0.97083624 5.33511958 0.25 8.5625 C0.09015625 9.32691406 -0.0696875 10.09132813 -0.234375 10.87890625 C-1.09956716 13.27584168 -2.01062056 14.42758645 -4 16 C-4.66 16 -5.32 16 -6 16 C-4.27933894 10.55123997 -2.15294651 5.28830549 0 0 Z " fill="#6C6C68" transform="translate(480,411)"/>
<path d="M0 0 C0.99 0.33 1.98 0.66 3 1 C2.06725891 2.12894876 1.12859878 3.25300876 0.1875 4.375 C-0.33457031 5.00148438 -0.85664063 5.62796875 -1.39453125 6.2734375 C-3 8 -3 8 -6 10 C-5.58578031 5.16743695 -3.53586014 3.17320782 0 0 Z " fill="#565750" transform="translate(22,254)"/>
<path d="M0 0 C0.66 0.33 1.32 0.66 2 1 C0.55373881 4.81287042 -1.30194812 6.32707177 -5 8 C-6.32 7.67 -7.64 7.34 -9 7 C-6.03 4.69 -3.06 2.38 0 0 Z " fill="#5D5E59" transform="translate(289,159)"/>
<path d="M0 0 C0.33 0 0.66 0 1 0 C1.144375 0.78375 1.28875 1.5675 1.4375 2.375 C1.87798925 4.96421018 1.87798925 4.96421018 3 7 C2.34 7 1.68 7 1 7 C0.67 9.64 0.34 12.28 0 15 C-0.99 15.33 -1.98 15.66 -3 16 C-2.40984815 10.49191603 -1.43336231 5.35121931 0 0 Z " fill="#757570" transform="translate(682,452)"/>
<path d="M0 0 C1.43410153 3.78819273 0.51009497 6.06521279 -0.9375 9.75 C-1.31777344 10.73484375 -1.69804688 11.7196875 -2.08984375 12.734375 C-2.39019531 13.48203125 -2.69054687 14.2296875 -3 15 C-3.95721871 11.96541304 -4.00893515 10.00458518 -3.1875 6.9375 C-3.01605469 6.26589844 -2.84460938 5.59429687 -2.66796875 4.90234375 C-2 3 -2 3 0 0 Z " fill="#51534C" transform="translate(524,502)"/>
<path d="M0 0 C0.33 0 0.66 0 1 0 C0.03644647 10.55808656 0.03644647 10.55808656 -1 15 C-2.5625 13.4375 -2.5625 13.4375 -4 11 C-3.6875 7.25 -3.6875 7.25 -3 4 C-2.34 4 -1.68 4 -1 4 C-0.67 2.68 -0.34 1.36 0 0 Z " fill="#757570" transform="translate(646,426)"/>
<path d="M0 0 C1.38609004 3.15020465 0.89180331 4.31918022 -0.25 7.6875 C-2 11 -2 11 -5 12 C-3.68938409 7.76570244 -2.05643741 3.92592596 0 0 Z " fill="#6C6D68" transform="translate(659,517)"/>
<path d="M0 0 C0.33 0 0.66 0 1 0 C0.03644647 11.52164009 0.03644647 11.52164009 -1 17 C-1.33 17 -1.66 17 -2 17 C-3.31281522 10.43592388 -2.52653315 6.16645379 0 0 Z " fill="#7F807B" transform="translate(769,447)"/>
<path d="M0 0 C0.33 0 0.66 0 1 0 C1 4.66666667 1 9.33333333 1 14 C0.01 14.33 -0.98 14.66 -2 15 C-1.47462276 9.9697924 -0.89405214 4.98114761 0 0 Z " fill="#7E7F7B" transform="translate(685,437)"/>
<path d="M0 0 C1.07310858 3.27185553 0.89263102 5.42947592 0.0625 8.75 C-0.22947266 9.94882812 -0.22947266 9.94882812 -0.52734375 11.171875 C-0.68332031 11.77515625 -0.83929687 12.3784375 -1 13 C-1.33 13 -1.66 13 -2 13 C-3.22764228 5.63414634 -3.22764228 5.63414634 -2.125 2.5625 C-1 1 -1 1 0 0 Z " fill="#74756F" transform="translate(766,465)"/>
<path d="M0 0 C0.66 0.99 1.32 1.98 2 3 C-0.97 5.475 -0.97 5.475 -4 8 C-4.66 7.67 -5.32 7.34 -6 7 C-4.02 4.69 -2.04 2.38 0 0 Z " fill="#5D5E57" transform="translate(469,433)"/>
<path d="M0 0 C2.40034102 3.60051153 4.32187705 6.96144535 3.625 11.375 C3.41875 11.91125 3.2125 12.4475 3 13 C3 12.01 3 11.02 3 10 C2.34 10 1.68 10 1 10 C0.37542727 6.56484998 0 3.50935186 0 0 Z " fill="#6E6F69" transform="translate(757,273)"/>
<path d="M0 0 C0.66 0 1.32 0 2 0 C5.125 6.625 5.125 6.625 4 10 C0 3.375 0 3.375 0 0 Z " fill="#656661" transform="translate(520,538)"/>
<path d="M0 0 C1.32 0.33 2.64 0.66 4 1 C3.67 1.66 3.34 2.32 3 3 C3.33 3.33 3.66 3.66 4 4 C3.71269945 6.33944736 3.38063221 8.6739143 3 11 C0.87953208 7.46588679 0.46800711 4.05606165 0 0 Z " fill="#747570" transform="translate(680,310)"/>
<path d="M0 0 C0.33 0 0.66 0 1 0 C0.67 3.63 0.34 7.26 0 11 C-2.17612725 6.64774551 -2.10721485 5.5295153 -1 1 C-0.67 0.67 -0.34 0.34 0 0 Z " fill="#6D6E68" transform="translate(532,407)"/>
<path d="M0 0 C0.66 0 1.32 0 2 0 C2.33 1.98 2.66 3.96 3 6 C3.99 6.33 4.98 6.66 6 7 C5.01 8.485 5.01 8.485 4 10 C3.32845067 8.71086513 2.66291141 7.41859796 2 6.125 C1.62875 5.40570313 1.2575 4.68640625 0.875 3.9453125 C0 2 0 2 0 0 Z " fill="#696965" transform="translate(7,506)"/>
<path d="M0 0 C0.66 0.33 1.32 0.66 2 1 C1.1875 2.9375 1.1875 2.9375 0 5 C-0.99 5.33 -1.98 5.66 -3 6 C-3.66 5.34 -4.32 4.68 -5 4 C-3.35 2.68 -1.7 1.36 0 0 Z " fill="#62635D" transform="translate(308,145)"/>
<path d="M0 0 C0.66 0.33 1.32 0.66 2 1 C1.1875 2.9375 1.1875 2.9375 0 5 C-0.99 5.33 -1.98 5.66 -3 6 C-3.66 5.34 -4.32 4.68 -5 4 C-3.35 2.68 -1.7 1.36 0 0 Z " fill="#5A5B55" transform="translate(315,140)"/>
<path d="M0 0 C0.66 0.33 1.32 0.66 2 1 C0.68 2.65 -0.64 4.3 -2 6 C-3.32 5.67 -4.64 5.34 -6 5 C-4.02 3.35 -2.04 1.7 0 0 Z " fill="#646561" transform="translate(278,167)"/>
<path d="M0 0 C2.50298434 2.93828597 3.46930939 5.17902761 4 9 C3.01 9 2.02 9 1 9 C1.33 7.68 1.66 6.36 2 5 C1.01 4.67 0.02 4.34 -1 4 C-0.67 2.68 -0.34 1.36 0 0 Z " fill="#6B6B66" transform="translate(433,123)"/>
<path d="M0 0 C0.66 0.99 1.32 1.98 2 3 C0 6 0 6 -2.125 6.6875 C-2.74375 6.790625 -3.3625 6.89375 -4 7 C-2.79618552 4.50638429 -1.54571278 2.31856917 0 0 Z " fill="#5D5E59" transform="translate(532,491)"/>
<path d="M0 0 C2.15377564 2.62198774 3.40072174 4.64404172 4 8 C3.01 7.67 2.02 7.34 1 7 C-0.1875 3.9375 -0.1875 3.9375 -1 1 C-0.67 0.67 -0.34 0.34 0 0 Z " fill="#5F5F59" transform="translate(731,212)"/>
<path d="M0 0 C0.66 0.33 1.32 0.66 2 1 C1.67 1.99 1.34 2.98 1 4 C-0.98 4.33 -2.96 4.66 -5 5 C-3.35 3.35 -1.7 1.7 0 0 Z " fill="#63655F" transform="translate(359,108)"/>
</svg>
