<?xml version="1.0" encoding="UTF-8"?>
<svg version="1.1" xmlns="http://www.w3.org/2000/svg" width="780" height="780">
<path d="M0 0 C2.46984289 2.18789736 4.87004303 4.43000447 7.25390625 6.7109375 C8.26517578 7.62746094 8.26517578 7.62746094 9.296875 8.5625 C22.53935088 20.98558116 31.97458757 38.03912599 37.62890625 55.1484375 C37.8815625 55.90785645 38.13421875 56.66727539 38.39453125 57.44970703 C39.40195255 60.59305523 40.22695509 63.50299079 40.65234375 66.78515625 C41.06642809 69.7895682 41.39074686 71.28837917 43.25390625 73.7109375 C47.46568564 76.3216433 52.12014859 78.0326586 56.71484375 79.84375 C69.3861926 84.86545498 79.13937785 94.64202311 85.25390625 106.7109375 C90.05944413 118.78227919 91.45944218 130.52682816 91.49414062 143.45922852 C91.50374326 145.61189996 91.5347781 147.76357158 91.56640625 149.91601562 C91.63961749 159.82805156 90.41215173 169.04359283 88.25390625 178.7109375 C89.1962915 179.01491455 90.13867676 179.3188916 91.10961914 179.63208008 C102.08325563 183.39731804 110.14787917 192.19514546 115.57958984 202.15112305 C120.99982224 213.67524212 121.98699444 226.23845409 122.50390625 238.7734375 C122.57808598 240.33953167 122.65255427 241.90561219 122.72729492 243.47167969 C125.64155417 307.75775157 125.64155417 307.75775157 106.71875 328.48828125 C104.28781056 330.98218027 101.89269689 333.43759089 99.25390625 335.7109375 C98.59390625 335.7109375 97.93390625 335.7109375 97.25390625 335.7109375 C98.58988861 339.71888458 101.20365173 340.96305727 104.56640625 343.2109375 C130.17880323 361.00388149 144.7771264 385.56414606 150.6328125 416.1328125 C151.21954397 419.94433445 151.50413764 423.75604797 151.78125 427.6015625 C153.13824808 446.22582229 153.13824808 446.22582229 162.06201172 462.03515625 C169.93304036 473.10167419 173.42719091 487.64882633 176.25390625 500.7109375 C176.60582031 502.33322266 176.60582031 502.33322266 176.96484375 503.98828125 C182.14480544 532.55314245 179.74637304 563.20322331 165.25390625 588.7109375 C164.4959375 589.66097656 163.73796875 590.61101563 162.95703125 591.58984375 C160.49000805 596.11083351 161.29530969 599.55037802 162.00390625 604.5234375 C165.06873191 631.1332298 165.13735154 657.82308499 148.75390625 680.2734375 C147.28057691 682.10768309 145.78320453 683.92308879 144.25390625 685.7109375 C143.7021875 686.36320313 143.15046875 687.01546875 142.58203125 687.6875 C109.20819996 723.87002006 45.80616885 723.46667961 0.64837646 725.59664917 C-0.99417255 725.67504822 -2.63654482 725.75721435 -4.27874756 725.84255981 C-27.08575252 727.00397302 -49.91457104 726.8983696 -72.74462891 726.89624023 C-77.29675315 726.89615953 -81.84877555 726.903026 -86.40087891 726.91674805 C-261.29003527 727.43528694 -261.29003527 727.43528694 -303.87109375 686.9609375 C-320.06909238 670.33601487 -325.03778882 648.34111858 -324.9140625 625.7734375 C-324.74669011 620.09708158 -324.10269829 614.45388713 -323.45776367 608.81494141 C-323.19185774 606.44854438 -322.95565101 604.08296352 -322.74609375 601.7109375 C-322.68268799 600.99736084 -322.61928223 600.28378418 -322.55395508 599.54858398 C-322.30182472 594.41623558 -323.52650055 591.67719543 -326.43359375 587.5234375 C-342.45808657 563.36114773 -342.88355808 529.83804918 -337.72265625 502.1484375 C-336.25536931 495.14920541 -334.1710925 488.43075046 -331.74609375 481.7109375 C-331.32714844 480.49277344 -330.90820312 479.27460937 -330.4765625 478.01953125 C-328.43829032 472.48036505 -326.3984405 467.49578457 -322.98828125 462.6484375 C-314.62691475 450.7040203 -313.46681957 441.14090687 -312.92382812 426.73828125 C-311.14552324 396.44847279 -296.4221701 369.62630184 -274.25366211 349.54663086 C-269.34751145 345.23136989 -264.12890765 341.40897303 -258.74609375 337.7109375 C-259.38546875 337.0921875 -260.02484375 336.4734375 -260.68359375 335.8359375 C-261.70475075 334.79458813 -262.7255268 333.75286515 -263.74609375 332.7109375 C-264.42414063 332.05222656 -265.1021875 331.39351563 -265.80078125 330.71484375 C-280.23027504 315.91088213 -284.66963709 297.27211436 -284.76293945 277.06201172 C-284.69305033 273.27588837 -284.57615764 269.49501752 -284.43359375 265.7109375 C-284.40898071 265.0312793 -284.38436768 264.35162109 -284.35900879 263.65136719 C-284.20309833 259.37808211 -284.02706681 255.10594858 -283.83856201 250.83398438 C-283.74763169 248.74624813 -283.66270176 246.65833416 -283.57861328 244.5703125 C-282.01177715 206.87693805 -282.01177715 206.87693805 -269.74609375 192.7109375 C-269.05386719 191.90914062 -268.36164063 191.10734375 -267.6484375 190.28125 C-262.69775153 184.95511518 -257.5788203 181.28128265 -250.74609375 178.7109375 C-250.08609375 178.7109375 -249.42609375 178.7109375 -248.74609375 178.7109375 C-248.95105469 178.02128906 -249.15601563 177.33164063 -249.3671875 176.62109375 C-249.63660156 175.68136719 -249.90601563 174.74164063 -250.18359375 173.7734375 C-250.45042969 172.85691406 -250.71726562 171.94039062 -250.9921875 170.99609375 C-255.73537019 150.32761373 -254.72626389 121.68507039 -243.734375 103.171875 C-234.75062674 89.07427005 -222.07276693 80.36442341 -206.2421875 75.33984375 C-202.59169533 72.95759769 -201.90350175 69.7084162 -200.74609375 65.7109375 C-200.30634648 64.32499336 -199.86494106 62.93957424 -199.421875 61.5546875 C-199.20225098 60.85037598 -198.98262695 60.14606445 -198.75634766 59.42041016 C-188.77865227 27.82553849 -168.29253016 1.12646954 -138.74609375 -14.2890625 C-94.48069888 -35.98588625 -38.23623808 -31.87259675 0 0 Z " fill="#B99F5F" transform="translate(469.74609375,40.2890625)"/>
<path d="M0 0 C6.6254488 3.4797877 13.06970558 6.26319854 20.3125 8.25 C21.49070312 8.57484375 22.66890625 8.8996875 23.8828125 9.234375 C32.75871208 11.54765007 41.74955535 13.05845234 50.8125 14.4375 C51.89088135 14.60443359 52.9692627 14.77136719 54.08032227 14.94335938 C71.85927046 17.52900128 89.72845754 17.46557731 107.65600586 17.49023438 C110.36936029 17.49459863 113.08239309 17.50844052 115.7956543 17.53125 C149.59356793 17.80915062 193.2390616 16.62487434 222.875 -2.39453125 C227.11351632 -4.7515267 230.71755931 -3.80227649 235.3125 -2.75 C255.23196755 3.21845878 272.59548994 13.35035155 282.84375 32.04296875 C289.27852719 45.30534383 290.61299765 61.68001782 289.3125 76.25 C286.18399628 79.37850372 282.32804199 78.56898619 278.125 78.59375 C277.19389404 78.6083728 276.26278809 78.62299561 275.3034668 78.63806152 C272.30652266 78.68465845 269.30964046 78.71869953 266.3125 78.75 C252.51514482 78.89828507 238.99616232 79.40923029 225.3125 81.25 C224.28882324 81.38414307 223.26514648 81.51828613 222.21044922 81.65649414 C212.61748568 83.0306847 205.09110469 88.4129782 199 95.78125 C190.24646343 108.58734979 190.92688896 126.01659279 191 140.9375 C191.00215515 141.72825928 191.0043103 142.51901855 191.00653076 143.33374023 C191.00242515 170.48545533 191.00242515 170.48545533 203.3125 194.0625 C212.43593083 202.26558474 224.6383015 205.63881186 236.3125 208.25 C237.80209479 208.60281623 239.29167769 208.95568264 240.78125 209.30859375 C256.27103741 212.87095339 271.88382976 214.3343484 287.75415039 214.82104492 C293.0974229 215.0349229 293.0974229 215.0349229 295.3125 217.25 C295.89913195 219.92504171 296.38931243 222.5489744 296.8125 225.25 C297.06770643 226.81271351 297.32420867 228.37521598 297.58203125 229.9375 C297.70529785 230.68902344 297.82856445 231.44054687 297.95556641 232.21484375 C298.37156346 234.58676676 298.92754059 236.9114424 299.5 239.25 C301.81803326 250.72230019 301.60969954 263.68692881 295.75 274 C286.92935017 282.14213831 276.21479316 284.618768 264.8762207 287.56738281 C262.8808707 288.09866542 260.89769364 288.67574532 258.92041016 289.27075195 C213.87675029 301.49636569 160.80725581 297.7114555 114.73254395 297.51428223 C110.72540575 297.4999118 106.7183403 297.49306208 102.71118164 297.49023438 C102.04832588 297.4897652 101.38547012 297.48929602 100.70252782 297.48881263 C99.71012933 297.48812426 99.71012933 297.48812426 98.69768238 297.48742199 C29.72852567 297.4347876 29.72852567 297.4347876 -0.04370117 294.68530273 C-2.78524479 294.4342728 -5.52804205 294.20385493 -8.27148438 293.97460938 C-64.17580308 289.08685405 -64.17580308 289.08685405 -77.8125 274.1875 C-82.67014364 268.27857528 -83.07359858 262.83633388 -83.0625 255.4375 C-83.06306396 254.48641357 -83.06362793 253.53532715 -83.06420898 252.55541992 C-82.8860702 240.590918 -81.48830304 227.65240912 -77.6875 216.25 C-75.1970206 215.0047603 -73.44209206 215.09211225 -70.65625 215.0390625 C-69.62677246 215.01279785 -68.59729492 214.9865332 -67.53662109 214.95947266 C-66.43141113 214.93159668 -65.32620117 214.9037207 -64.1875 214.875 C-54.14974044 214.54713708 -44.53118951 213.62759694 -34.69140625 211.6484375 C-32.73687948 211.25981814 -30.77464441 210.9106224 -28.8125 210.5625 C-13.33372017 207.7247237 5.69090936 203.85459147 16.3125 191.25 C18.62815705 187.37513387 20.5382013 183.39756447 22.3125 179.25 C22.85390625 178.03763672 22.85390625 178.03763672 23.40625 176.80078125 C30.47553308 156.90318706 29.50129862 121.65428352 22.09375 102.01953125 C17.7424513 93.06310809 10.9471113 86.97915053 1.84594727 83.12231445 C-2.70527099 81.55524277 -7.29057209 81.04525311 -12.0625 80.5625 C-13.73977173 80.37989624 -13.73977173 80.37989624 -15.45092773 80.19360352 C-29.12181903 78.86979786 -42.86358941 78.75987094 -56.58935547 78.62817383 C-57.50715286 78.61623993 -58.42495026 78.60430603 -59.37055969 78.5920105 C-61.11183604 78.57017312 -62.85324189 78.55665265 -64.59465027 78.55252075 C-70.46319445 78.47430555 -70.46319445 78.47430555 -72.6875 76.25 C-74.78283521 58.43965074 -70.57174683 36.95464264 -59.71875 22.65625 C-46.93204126 7.64576582 -19.63846246 -10.91426363 0 0 Z " fill="#34352A" transform="translate(280.6875,413.75)"/>
<path d="M0 0 C2.46984289 2.18789736 4.87004303 4.43000447 7.25390625 6.7109375 C8.26517578 7.62746094 8.26517578 7.62746094 9.296875 8.5625 C22.53935088 20.98558116 31.97458757 38.03912599 37.62890625 55.1484375 C37.8815625 55.90785645 38.13421875 56.66727539 38.39453125 57.44970703 C39.40195255 60.59305523 40.22695509 63.50299079 40.65234375 66.78515625 C41.06642809 69.7895682 41.39074686 71.28837917 43.25390625 73.7109375 C47.46568564 76.3216433 52.12014859 78.0326586 56.71484375 79.84375 C69.3861926 84.86545498 79.13937785 94.64202311 85.25390625 106.7109375 C90.05944413 118.78227919 91.45944218 130.52682816 91.49414062 143.45922852 C91.50374326 145.61189996 91.5347781 147.76357158 91.56640625 149.91601562 C91.63961749 159.82805156 90.41215173 169.04359283 88.25390625 178.7109375 C89.1962915 179.01491455 90.13867676 179.3188916 91.10961914 179.63208008 C102.08325563 183.39731804 110.14787917 192.19514546 115.57958984 202.15112305 C120.99982224 213.67524212 121.98699444 226.23845409 122.50390625 238.7734375 C122.57808598 240.33953167 122.65255427 241.90561219 122.72729492 243.47167969 C125.64155417 307.75775157 125.64155417 307.75775157 106.71875 328.48828125 C104.28781056 330.98218027 101.89269689 333.43759089 99.25390625 335.7109375 C98.59390625 335.7109375 97.93390625 335.7109375 97.25390625 335.7109375 C98.58988861 339.71888458 101.20365173 340.96305727 104.56640625 343.2109375 C130.17880323 361.00388149 144.7771264 385.56414606 150.6328125 416.1328125 C151.21954397 419.94433445 151.50413764 423.75604797 151.78125 427.6015625 C153.13824808 446.22582229 153.13824808 446.22582229 162.06201172 462.03515625 C169.93304036 473.10167419 173.42719091 487.64882633 176.25390625 500.7109375 C176.60582031 502.33322266 176.60582031 502.33322266 176.96484375 503.98828125 C182.14480544 532.55314245 179.74637304 563.20322331 165.25390625 588.7109375 C164.4959375 589.66097656 163.73796875 590.61101563 162.95703125 591.58984375 C160.49000805 596.11083351 161.29530969 599.55037802 162.00390625 604.5234375 C165.06873191 631.1332298 165.13735154 657.82308499 148.75390625 680.2734375 C147.28057691 682.10768309 145.78320453 683.92308879 144.25390625 685.7109375 C143.7021875 686.36320313 143.15046875 687.01546875 142.58203125 687.6875 C109.20819996 723.87002006 45.80616885 723.46667961 0.64837646 725.59664917 C-0.99417255 725.67504822 -2.63654482 725.75721435 -4.27874756 725.84255981 C-27.08575252 727.00397302 -49.91457104 726.8983696 -72.74462891 726.89624023 C-77.29675315 726.89615953 -81.84877555 726.903026 -86.40087891 726.91674805 C-261.29003527 727.43528694 -261.29003527 727.43528694 -303.87109375 686.9609375 C-320.06909238 670.33601487 -325.03778882 648.34111858 -324.9140625 625.7734375 C-324.74669011 620.09708158 -324.10269829 614.45388713 -323.45776367 608.81494141 C-323.19185774 606.44854438 -322.95565101 604.08296352 -322.74609375 601.7109375 C-322.68268799 600.99736084 -322.61928223 600.28378418 -322.55395508 599.54858398 C-322.30182472 594.41623558 -323.52650055 591.67719543 -326.43359375 587.5234375 C-342.45808657 563.36114773 -342.88355808 529.83804918 -337.72265625 502.1484375 C-336.25536931 495.14920541 -334.1710925 488.43075046 -331.74609375 481.7109375 C-331.32714844 480.49277344 -330.90820312 479.27460937 -330.4765625 478.01953125 C-328.43829032 472.48036505 -326.3984405 467.49578457 -322.98828125 462.6484375 C-314.62691475 450.7040203 -313.46681957 441.14090687 -312.92382812 426.73828125 C-311.14552324 396.44847279 -296.4221701 369.62630184 -274.25366211 349.54663086 C-269.34751145 345.23136989 -264.12890765 341.40897303 -258.74609375 337.7109375 C-259.38546875 337.0921875 -260.02484375 336.4734375 -260.68359375 335.8359375 C-261.70475075 334.79458813 -262.7255268 333.75286515 -263.74609375 332.7109375 C-264.42414063 332.05222656 -265.1021875 331.39351563 -265.80078125 330.71484375 C-280.23027504 315.91088213 -284.66963709 297.27211436 -284.76293945 277.06201172 C-284.69305033 273.27588837 -284.57615764 269.49501752 -284.43359375 265.7109375 C-284.40898071 265.0312793 -284.38436768 264.35162109 -284.35900879 263.65136719 C-284.20309833 259.37808211 -284.02706681 255.10594858 -283.83856201 250.83398438 C-283.74763169 248.74624813 -283.66270176 246.65833416 -283.57861328 244.5703125 C-282.01177715 206.87693805 -282.01177715 206.87693805 -269.74609375 192.7109375 C-269.05386719 191.90914062 -268.36164063 191.10734375 -267.6484375 190.28125 C-262.69775153 184.95511518 -257.5788203 181.28128265 -250.74609375 178.7109375 C-250.08609375 178.7109375 -249.42609375 178.7109375 -248.74609375 178.7109375 C-248.95105469 178.02128906 -249.15601563 177.33164063 -249.3671875 176.62109375 C-249.63660156 175.68136719 -249.90601563 174.74164063 -250.18359375 173.7734375 C-250.45042969 172.85691406 -250.71726562 171.94039062 -250.9921875 170.99609375 C-255.73537019 150.32761373 -254.72626389 121.68507039 -243.734375 103.171875 C-234.75062674 89.07427005 -222.07276693 80.36442341 -206.2421875 75.33984375 C-202.59169533 72.95759769 -201.90350175 69.7084162 -200.74609375 65.7109375 C-200.30634648 64.32499336 -199.86494106 62.93957424 -199.421875 61.5546875 C-199.20225098 60.85037598 -198.98262695 60.14606445 -198.75634766 59.42041016 C-188.77865227 27.82553849 -168.29253016 1.12646954 -138.74609375 -14.2890625 C-94.48069888 -35.98588625 -38.23623808 -31.87259675 0 0 Z M-147.37109375 36.4609375 C-159.86414164 50.7827737 -167.9249237 69.78922985 -169.12109375 88.8359375 C-169.74609375 92.7109375 -169.74609375 92.7109375 -171.9453125 94.34375 C-174.67705766 95.67723788 -177.27044328 96.60436621 -180.18359375 97.4609375 C-194.37905812 102.08799538 -207.60102586 108.80444127 -214.90625 122.375 C-217.46871947 129.50224067 -217.03107678 137.44878404 -217.09619141 144.93432617 C-217.11273098 146.32186682 -217.13999579 147.70932296 -217.17822266 149.09643555 C-217.47224756 159.87180925 -215.75328757 166.9863749 -209.55859375 175.8359375 C-208.96046875 176.4546875 -208.36234375 177.0734375 -207.74609375 177.7109375 C-207.08609375 177.7109375 -206.42609375 177.7109375 -205.74609375 177.7109375 C-206.00003906 178.71511719 -206.25398438 179.71929687 -206.515625 180.75390625 C-206.86357146 182.1353436 -207.21120508 183.51685977 -207.55859375 184.8984375 C-207.73946533 185.61717041 -207.92033691 186.33590332 -208.10668945 187.07641602 C-209.54072098 192.80937929 -210.86505195 198.5598254 -212.1328125 204.33203125 C-212.74609375 206.7109375 -212.74609375 206.7109375 -213.74609375 207.7109375 C-216.27024544 207.89824204 -218.78107688 208.03580306 -221.30859375 208.1484375 C-232.92289649 208.56017344 -232.92289649 208.56017344 -242.18359375 215.1484375 C-246.44650415 220.21220778 -246.95754823 224.31132005 -247.28125 230.76953125 C-247.34625954 231.98199272 -247.34625954 231.98199272 -247.4125824 233.21894836 C-247.88433214 242.20963761 -248.28484427 251.20385989 -248.64532471 260.199646 C-248.70952867 261.7996896 -248.7752434 263.39967381 -248.84295654 264.99957275 C-249.03131514 269.48638427 -249.15846692 273.97076393 -249.24609375 278.4609375 C-249.28871338 279.53915771 -249.33133301 280.61737793 -249.37524414 281.72827148 C-249.45153946 290.43349842 -246.77531343 298.07389543 -241.00146484 304.71875 C-236.9139513 308.60895287 -231.94568958 310.68989318 -226.74609375 312.7109375 C-225.07942708 313.37760417 -223.41276042 314.04427083 -221.74609375 314.7109375 C-221.648125 315.7525 -221.55015625 316.7940625 -221.44921875 317.8671875 C-220.66770688 325.56471763 -219.62616399 333.07263266 -217.74609375 340.5859375 C-217.49714355 341.59237305 -217.49714355 341.59237305 -217.24316406 342.61914062 C-216.41522498 345.7779966 -215.57887064 347.96177217 -213.74609375 350.7109375 C-213.74609375 352.0309375 -213.74609375 353.3509375 -213.74609375 354.7109375 C-214.90625 355.13503906 -216.06640625 355.55914062 -217.26171875 355.99609375 C-230.90859396 361.07852979 -242.67961024 367.07613193 -253.74609375 376.7109375 C-254.3596875 377.22914063 -254.97328125 377.74734375 -255.60546875 378.28125 C-272.22132345 393.44893388 -277.33979173 416.14696823 -278.74609375 437.7109375 C-278.75298559 439.50002511 -278.7409642 441.28927611 -278.7109375 443.078125 C-278.52237377 459.64500761 -278.52237377 459.64500761 -284.30859375 466.0859375 C-285.66210938 467.43558594 -285.66210938 467.43558594 -287.04296875 468.8125 C-303.1595637 486.09358881 -305.44157879 514.09566585 -305.05859375 536.36328125 C-304.5523339 550.62082433 -300.31895563 564.82522599 -290.74609375 575.7109375 C-289.49546749 576.61458362 -288.22570017 577.49266805 -286.93359375 578.3359375 C-284.52486381 580.32777187 -283.81100075 581.14641743 -283.44921875 584.29296875 C-283.78737864 588.41288338 -284.58404947 592.15553866 -285.7421875 596.125 C-288.65469094 606.52841694 -288.9576637 617.34516064 -289.05859375 628.0859375 C-289.07615723 629.08359131 -289.0937207 630.08124512 -289.11181641 631.10913086 C-289.10185223 643.09902499 -285.69141944 652.22708593 -277.58984375 661.0625 C-266.23671393 672.08388252 -251.17897939 676.20286591 -236.05859375 679.2734375 C-235.07181641 679.48162109 -234.08503906 679.68980469 -233.06835938 679.90429688 C-220.28624559 682.5400398 -207.4556873 684.03889102 -194.46264648 685.08862305 C-192.20959403 685.27132907 -189.95735786 685.46232585 -187.70507812 685.65429688 C-166.61685355 687.41700251 -145.5966257 687.8741853 -124.43879557 687.87819457 C-122.28436825 687.87891699 -120.12994689 687.88107329 -117.97552109 687.88369179 C-110.38325358 687.89289099 -102.79100336 687.89703444 -95.19873047 687.89624023 C-89.012506 687.89570974 -82.82634503 687.90272101 -76.64013672 687.91674805 C26.48290699 694.42627587 26.48290699 694.42627587 117.25390625 660.7109375 C125.81556826 651.49365272 127.89612854 641.84058243 127.66552734 629.48095703 C127.62922416 627.47847359 127.62696162 625.47546778 127.625 623.47265625 C127.52068381 611.70810832 126.34426233 600.3725271 122.83984375 589.11328125 C122.19216658 586.45780486 121.89973521 584.42920021 122.25390625 581.7109375 C123.79296875 579.97265625 123.79296875 579.97265625 125.87890625 578.3984375 C136.72552857 569.48392956 141.55781021 557.46211613 143.25390625 543.7109375 C143.54544247 538.81152864 143.58810033 533.93063763 143.56640625 529.0234375 C143.5642511 528.36108093 143.56209595 527.69872437 143.55987549 527.01629639 C143.4528972 506.52407936 139.32047164 486.70610002 127.25390625 469.7109375 C126.45855469 468.97359375 125.66320312 468.23625 124.84375 467.4765625 C118.6627852 461.63844044 117.74092818 457.37874565 117.38085938 449.01416016 C117.29635458 444.27356893 117.27843466 439.53520256 117.28857422 434.79394531 C117.22327104 428.98656119 116.38804614 423.40462627 115.25390625 417.7109375 C114.99867188 416.25880859 114.99867188 416.25880859 114.73828125 414.77734375 C110.92963357 396.39329437 99.78190854 380.52207578 84.55078125 369.76953125 C74.3938804 363.42748534 63.51549789 358.72191535 52.25390625 354.7109375 C52.71103648 351.69387796 53.42809137 349.32211442 54.68359375 346.51953125 C56.65580267 342.08984936 57.48884323 337.51925351 58.37890625 332.7734375 C58.54777344 331.91814453 58.71664063 331.06285156 58.890625 330.18164062 C59.13619141 328.91416992 59.13619141 328.91416992 59.38671875 327.62109375 C59.54769043 326.79496582 59.70866211 325.96883789 59.87451172 325.11767578 C60.30018863 322.74291318 60.30018863 322.74291318 60.32470703 320.44091797 C60.39453125 318.33203125 60.39453125 318.33203125 61.25390625 314.7109375 C63.54352604 312.76648076 66.09986785 311.79444815 68.87890625 310.7109375 C76.91932209 307.16698187 82.7416684 303.07922593 86.25390625 294.7109375 C87.24160302 289.98064462 87.3996675 285.36358715 87.38671875 280.55078125 C87.38812866 279.77197098 87.38953857 278.99316071 87.39099121 278.19075012 C87.39311606 275.67659885 87.38685822 273.16257587 87.37890625 270.6484375 C87.37735535 269.79423218 87.37580444 268.94002686 87.37420654 268.05993652 C87.35309116 258.19046699 87.31194774 248.32247333 86.87890625 238.4609375 C86.84812988 237.69128662 86.81735352 236.92163574 86.78564453 236.12866211 C86.3315578 227.70356331 85.65755487 218.81150329 79.25390625 212.7109375 C73.53554267 208.78174496 68.05220342 208.07580888 61.25390625 207.9609375 C60.38378906 207.93128906 59.51367188 207.90164062 58.6171875 207.87109375 C56.49657409 207.80118342 54.37524062 207.75370634 52.25390625 207.7109375 C51.27032384 204.00376109 50.29282954 200.29500538 49.31640625 196.5859375 C49.03861328 195.53921875 48.76082031 194.4925 48.47460938 193.4140625 C48.20712891 192.39570313 47.93964844 191.37734375 47.6640625 190.328125 C47.41793213 189.39597168 47.17180176 188.46381836 46.91821289 187.50341797 C46.22051883 184.5705901 45.60855978 181.70614062 45.25390625 178.7109375 C46.58203125 176.65625 46.58203125 176.65625 48.50390625 174.8359375 C53.11263662 170.43669487 55.29834225 164.94587727 55.65795898 158.64086914 C55.68407737 157.21781628 55.69331982 155.79437438 55.6875 154.37109375 C55.69274185 153.60470078 55.6979837 152.8383078 55.7033844 152.0486908 C55.70976298 150.43945519 55.70852206 148.83017269 55.69995117 147.22094727 C55.69143792 144.78250733 55.72026254 142.34641275 55.75195312 139.90820312 C55.80493709 128.35732863 54.30877721 120.14532368 46.203125 111.546875 C37.19700795 103.06415954 25.20631957 99.26553555 13.7890625 95.06640625 C10.25390625 93.7109375 10.25390625 93.7109375 9.25390625 92.7109375 C8.9744098 90.54787805 8.73175374 88.3800456 8.50390625 86.2109375 C5.32289168 60.60855251 -6.56099678 38.97909639 -26.74609375 22.7109375 C-64.19817347 -3.75595774 -116.86568689 4.2288095 -147.37109375 36.4609375 Z " fill="#34352A" transform="translate(469.74609375,40.2890625)"/>
<path d="M0 0 C2.87385754 0.00462217 5.74729081 -0.00228091 8.62109375 -0.02050781 C91.80802377 -0.54242315 91.80802377 -0.54242315 110.13647461 13.31567383 C114.04126906 19.8530555 114.85198064 26.83348237 115.13647461 34.31567383 C115.79647461 34.31567383 116.45647461 34.31567383 117.13647461 34.31567383 C119.90876709 45.79488491 121.39410528 57.29112961 122.76147461 69.00317383 C122.9796663 70.82160028 123.19841346 72.63996017 123.41772461 74.45825195 C123.62916277 76.22707239 123.84011698 77.99595075 124.05053711 79.76489258 C124.14533356 80.56102463 124.24013 81.35715668 124.33779907 82.17741394 C125.47867641 91.96198543 126.29016953 101.61063137 126.26928711 111.46801758 C126.27024384 112.48940323 126.27120056 113.51078888 126.27218628 114.56312561 C126.27286178 116.70679791 126.27105183 118.85047234 126.2668457 120.99414062 C126.26149411 124.24133995 126.26680946 127.48840063 126.27319336 130.7355957 C126.28720743 159.06713939 126.28720743 159.06713939 122.44897461 168.56567383 C122.17988281 169.24678223 121.91079102 169.92789063 121.63354492 170.62963867 C117.03389399 181.82820538 110.79556828 186.87763178 99.81225586 191.80786133 C68.42792888 204.84877955 34.69724682 205.56535478 1.26147461 205.69067383 C0.06361328 205.69871033 -1.13424805 205.70674683 -2.3684082 205.71502686 C-19.40874161 205.80166372 -35.98611776 204.64746645 -52.86352539 202.31567383 C-53.78742569 202.19104767 -54.71132599 202.06642151 -55.66322327 201.9380188 C-74.37672958 199.40254973 -99.11085443 195.86916505 -111.86352539 180.31567383 C-121.87689466 165.4827857 -122.53703176 147.09239098 -122.30102539 129.81567383 C-122.29420746 128.88669281 -122.28738953 127.95771179 -122.28036499 127.00057983 C-122.14473327 108.99762703 -121.08914391 91.17962851 -118.86352539 73.31567383 C-118.77866882 72.63202759 -118.69381226 71.94838135 -118.60638428 71.24401855 C-116.72953901 56.33994106 -114.28035289 41.63604963 -110.30102539 27.12817383 C-110.02033203 26.10071045 -109.73963867 25.07324707 -109.45043945 24.01464844 C-106.72952462 14.7371505 -106.72952462 14.7371505 -102.86352539 11.31567383 C-100.33891915 10.19193474 -98.19432639 9.43067249 -95.55102539 8.75317383 C-94.78540283 8.54974365 -94.01978027 8.34631348 -93.23095703 8.13671875 C-80.35943497 4.96493613 -67.0345062 3.63289114 -53.86352539 2.31567383 C-53.00304596 2.22740326 -52.14256653 2.13913269 -51.25601196 2.04818726 C-34.17320397 0.34302509 -17.15058348 -0.02983882 0 0 Z " fill="#333429" transform="translate(386.863525390625,209.684326171875)"/>
<path d="M0 0 C1.04091797 0.20431641 2.08183594 0.40863281 3.15429688 0.61914062 C12.34566083 2.46893864 21.06859882 4.72136522 29.5 8.875 C30.65113281 9.42800781 31.80226563 9.98101562 32.98828125 10.55078125 C37.12798603 13.15389231 39.97042102 16.12834205 42.1875 20.5625 C42.44562405 24.95096485 42.4585009 29.34318944 42.48266602 33.73828125 C42.49988187 35.9225131 42.54377034 38.10523175 42.58789062 40.2890625 C42.59801777 41.67967638 42.60653381 43.07030311 42.61328125 44.4609375 C42.63515503 46.35851807 42.63515503 46.35851807 42.6574707 48.29443359 C42.1875 51.5625 42.1875 51.5625 40.36279297 53.98339844 C37.17771513 56.29552901 35.06251854 55.93996295 31.1875 55.5625 C28.38206069 55.05841372 25.63532792 54.39527639 22.875 53.6875 C21.36223815 53.31665029 19.84921828 52.94685145 18.3359375 52.578125 C17.61631836 52.40087891 16.89669922 52.22363281 16.15527344 52.04101562 C8.37416473 50.14883534 0.51235804 48.91008972 -7.42462158 47.87922668 C-9.06923126 47.6610867 -10.71271352 47.43433102 -12.35516357 47.20048523 C-32.93269166 44.30595007 -53.26641911 44.13186776 -74.00549316 44.2399292 C-77.50568245 44.25338582 -81.00574542 44.24807849 -84.50594902 44.24308491 C-108.07529513 44.21733641 -131.02971674 45.10252638 -154.30371094 49.11206055 C-156.60437232 49.50719143 -158.9073344 49.88610736 -161.2109375 50.26367188 C-168.20648894 51.43266251 -175.0684275 52.67847461 -181.80419922 54.96508789 C-185.38937027 56.03157386 -188.08810115 56.07621019 -191.8125 55.5625 C-194.49069114 52.95234536 -195.689547 51.2564951 -196.34594727 47.55151367 C-196.38169267 43.94970054 -196.40638565 40.35196539 -196.375 36.75 C-196.39884766 35.50412109 -196.42269531 34.25824219 -196.44726562 32.97460938 C-196.43546073 25.55720295 -195.90662981 20.1840874 -190.8125 14.5625 C-179.29520993 3.70839362 -161.71250756 1.39200152 -146.8125 -1.4375 C-146.00345215 -1.59492676 -145.1944043 -1.75235352 -144.36083984 -1.91455078 C-98.51849884 -10.59747977 -45.52498104 -9.27733052 0 0 Z " fill="#34352A" transform="translate(465.8125,149.4375)"/>
<path d="M0 0 C2.06722492 -0.02179995 4.13435246 -0.05615361 6.20117188 -0.10253906 C9.23380252 -0.16955457 12.26458545 -0.19696744 15.29785156 -0.21606445 C16.6699176 -0.25781044 16.6699176 -0.25781044 18.06970215 -0.30039978 C26.04283189 -0.27493494 30.19514975 3.02736736 35.68066406 8.50268555 C49.70625286 26.59209879 52.80526696 49.1494681 51.57910156 71.4050293 C50.21968646 81.50965806 46.64407972 91.52875422 38.61816406 98.15112305 C31.32855234 102.63381531 25.35284171 102.88190772 16.89160156 102.7800293 C15.09662231 102.76697754 15.09662231 102.76697754 13.26538086 102.75366211 C-5.41035469 102.44928168 -35.80891032 100.59761505 -50.04980469 86.97143555 C-54.1798209 82.25309794 -54.54301264 78.48918986 -54.42089844 72.4050293 C-52.63474121 72.37530029 -52.63474121 72.37530029 -50.8125 72.3449707 C-46.39171312 72.26885935 -41.97125301 72.18015035 -37.55078125 72.08764648 C-35.63808649 72.04937962 -33.72532033 72.01452272 -31.8125 71.9831543 C-29.06191502 71.93745403 -26.3118206 71.87946785 -23.56152344 71.8190918 C-22.70721741 71.80754059 -21.85291138 71.79598938 -20.97271729 71.78408813 C-19.77192535 71.7542836 -19.77192535 71.7542836 -18.546875 71.72387695 C-17.84516174 71.71055328 -17.14344849 71.69722961 -16.42047119 71.6835022 C-14.03488966 71.35127132 -12.46143338 70.68103901 -10.42089844 69.4050293 C-8.09046286 65.90937593 -7.83326599 64.5184564 -8.42089844 60.4050293 C-11.29874624 57.18262731 -13.61202703 56.14959703 -17.81225586 55.89086914 C-19.55009307 55.8632333 -21.2883384 55.85607621 -23.02636719 55.8659668 C-23.94678299 55.85417389 -24.86719879 55.84238098 -25.81550598 55.83023071 C-28.74664343 55.79500215 -31.67706661 55.78580106 -34.60839844 55.7800293 C-37.5502282 55.7637058 -40.49173847 55.74173537 -43.4334259 55.70840454 C-45.26186366 55.68871727 -47.09044849 55.67944581 -48.91899109 55.68148804 C-49.74357315 55.67452911 -50.56815521 55.66757019 -51.41772461 55.66040039 C-52.14432785 55.65914154 -52.87093109 55.65788269 -53.61955261 55.65658569 C-55.42089844 55.4050293 -55.42089844 55.4050293 -57.42089844 53.4050293 C-57.61938914 50.85967789 -57.69941618 48.44786171 -57.67089844 45.9050293 C-57.67863281 45.21538086 -57.68636719 44.52573242 -57.69433594 43.81518555 C-57.67423136 38.65836222 -57.67423136 38.65836222 -55.42089844 36.4050293 C-53.61955261 36.16020203 -53.61955261 36.16020203 -51.41772461 36.16552734 C-50.59314255 36.16179611 -49.76856049 36.15806488 -48.91899109 36.15422058 C-47.57995476 36.16042168 -47.57995476 36.16042168 -46.21386719 36.16674805 C-44.32909438 36.15132597 -42.44432862 36.13502216 -40.55957031 36.11791992 C-37.58374525 36.10147076 -34.60843509 36.09252921 -31.63256836 36.09960938 C-28.76324037 36.1022302 -25.89548518 36.0740982 -23.02636719 36.04174805 C-22.13974899 36.0519548 -21.2531308 36.06216156 -20.33964539 36.07267761 C-15.88844193 36.00229574 -13.99534681 35.8457039 -10.35961914 33.05664062 C-8.22290309 30.52090925 -8.22290309 30.52090925 -7.79589844 27.3425293 C-8.18406445 24.30000428 -8.18406445 24.30000428 -10.38476562 22.25732422 C-14.53403256 19.7259244 -17.85151184 19.82004476 -22.62402344 19.83081055 C-23.94161652 19.80956367 -23.94161652 19.80956367 -25.28582764 19.78788757 C-28.08097713 19.74606756 -30.87548037 19.73075607 -33.67089844 19.7175293 C-36.48029955 19.68850458 -39.28953608 19.65403206 -42.09881592 19.61503601 C-43.84487458 19.59248696 -45.59103574 19.57670523 -47.33721924 19.56819153 C-53.31129664 19.5146311 -53.31129664 19.5146311 -54.42089844 18.4050293 C-54.49698481 14.60071079 -54.29235478 12.49157792 -51.88574219 9.4909668 C-38.64739517 -2.87886044 -16.91226705 0.13385948 0 0 Z " fill="#34352A" transform="translate(545.4208984375,508.594970703125)"/>
<path d="M0 0 C0.99440598 0.00091644 1.98881195 0.00183289 3.01335144 0.0027771 C5.11889413 0.00880867 7.22442842 0.02454125 9.32983398 0.04931641 C12.4943138 0.08538296 15.65760344 0.09033819 18.82226562 0.08984375 C57.90433222 0.22436167 57.90433222 0.22436167 65.60546875 7.3359375 C66.15976562 7.82835937 66.7140625 8.32078125 67.28515625 8.828125 C68.92309346 10.67855137 69.91038136 12.1215303 70.73046875 14.4609375 C70.44182819 16.13592273 70.11265642 17.80479093 69.73046875 19.4609375 C68.5094043 19.4702832 67.28833984 19.47962891 66.03027344 19.48925781 C61.49751376 19.52914673 56.9654336 19.59490243 52.43310547 19.66845703 C50.47193128 19.69667303 48.51064324 19.71788444 46.54931641 19.73193359 C43.72889898 19.75335449 40.90985132 19.79999959 38.08984375 19.8515625 C37.21366394 19.85279114 36.33748413 19.85401978 35.43475342 19.85528564 C30.47269461 19.96864975 30.47269461 19.96864975 26.16503906 22.27636719 C24.10626219 25.41148213 24.39690487 27.79173477 24.73046875 31.4609375 C25.22546875 32.9459375 25.22546875 32.9459375 25.73046875 34.4609375 C28.47275215 35.37503197 30.15676454 35.59868961 32.98657227 35.63452148 C33.84078262 35.64801132 34.69499298 35.66150116 35.5750885 35.67539978 C36.49390305 35.68583817 37.41271759 35.69627655 38.359375 35.70703125 C40.300135 35.73995282 42.2408901 35.77316473 44.18164062 35.80664062 C47.24532884 35.85417594 50.30899479 35.89864203 53.37280273 35.93774414 C56.3268656 35.97732124 59.28052964 36.02888159 62.234375 36.08203125 C63.61563316 36.09465248 63.61563316 36.09465248 65.02479553 36.10752869 C65.87585373 36.12417068 66.72691193 36.14081268 67.60375977 36.15795898 C68.35416031 36.16826645 69.10456085 36.17857391 69.87770081 36.18919373 C71.73046875 36.4609375 71.73046875 36.4609375 73.73046875 38.4609375 C73.90210606 41.02386067 73.96311433 43.46439607 73.91796875 46.0234375 C73.91700195 47.07047852 73.91700195 47.07047852 73.91601562 48.13867188 C73.87078033 53.32062592 73.87078033 53.32062592 72.73046875 54.4609375 C69.61523168 54.57192307 66.51844258 54.62260988 63.40234375 54.63671875 C61.46873919 54.65992308 59.53514541 54.68404066 57.6015625 54.70898438 C54.54240784 54.74407656 51.48364764 54.77342353 48.42431641 54.78686523 C45.47900089 54.80235185 42.53485103 54.84257534 39.58984375 54.88671875 C38.67821472 54.88481033 37.76658569 54.88290192 36.82733154 54.88093567 C32.60628454 54.96213254 30.31208185 55.09947286 26.65576172 57.37182617 C24.58756876 59.61599649 24.04678406 60.4562816 24.10546875 63.4609375 C24.09257812 64.1209375 24.0796875 64.7809375 24.06640625 65.4609375 C25.13611471 68.68264769 26.88023083 69.66560415 29.73046875 71.4609375 C32.79775541 72.0491849 35.81716788 72.04218626 38.93359375 72.03515625 C39.81198914 72.04932083 40.69038452 72.06348541 41.59539795 72.07807922 C44.39054744 72.11989924 47.18505069 72.13521073 49.98046875 72.1484375 C52.78986987 72.17746222 55.59910639 72.21193474 58.40838623 72.25093079 C60.15444489 72.27347984 61.90060605 72.28926157 63.64678955 72.29777527 C69.62086695 72.3513357 69.62086695 72.3513357 70.73046875 73.4609375 C71.46359302 78.47062004 70.09080801 81.55225719 67.3125 85.578125 C56.54267162 98.39555038 30.55150848 100.46261529 14.99951172 102.2734375 C9.77050239 102.70553123 4.53708681 102.77292789 -0.70703125 102.8359375 C-1.88330078 102.87332031 -3.05957031 102.91070313 -4.27148438 102.94921875 C-13.20324137 103.03908551 -18.86156188 101.33845632 -25.57421875 95.43359375 C-33.79326634 85.43579706 -35.6477295 76.21672647 -35.58203125 63.5234375 C-35.5778418 62.42112793 -35.57365234 61.31881836 -35.56933594 60.18310547 C-35.30175406 40.64678171 -31.01187239 21.18788805 -17.95703125 5.99609375 C-11.97619879 0.55519755 -7.96493527 -0.12128415 0 0 Z " fill="#34352A" transform="translate(217.26953125,508.5390625)"/>
<path d="M0 0 C0.83660156 0.38671875 1.67320312 0.7734375 2.53515625 1.171875 C19.57387687 9.70321753 28.99647654 23.90696782 36 41 C37.48385918 45.46617288 38.2410784 49.23632489 38.125 53.9375 C38.10695313 54.89527344 38.08890625 55.85304687 38.0703125 56.83984375 C38.04710937 57.55269531 38.02390625 58.26554687 38 59 C31.18217058 59.21643903 24.6080457 58.70813485 17.85766602 57.79931641 C2.82333319 55.83871039 -12.23176038 55.8136767 -27.36669922 55.81469727 C-30.9646406 55.81252138 -34.56226923 55.79433723 -38.16015625 55.77539062 C-55.26344764 55.73415277 -72.05193427 56.81231276 -89.03025818 58.80865479 C-92.04455963 59.10147091 -95.03645194 59.09435314 -98.0625 59.0625 C-99.75052734 59.04896484 -99.75052734 59.04896484 -101.47265625 59.03515625 C-102.72369141 59.01775391 -102.72369141 59.01775391 -104 59 C-104.7855272 43.6922904 -96.23689488 27.19702815 -86.36328125 15.87109375 C-64.90656221 -6.62632208 -28.45313412 -13.51094498 0 0 Z " fill="#333429" transform="translate(422,71)"/>
<path d="M0 0 C1.546875 0.185625 1.546875 0.185625 3.125 0.375 C5.48867694 3.66277404 7.07245763 7.33800218 8.77539062 10.99633789 C12.53017501 18.95644316 16.70588664 25.24143439 23.125 31.375 C23.72570312 31.99503906 24.32640625 32.61507812 24.9453125 33.25390625 C31.50362013 39.59928181 40.50276557 44.31200269 49.03125 47.44140625 C49.7221875 47.74949219 50.413125 48.05757812 51.125 48.375 C51.9375 51 51.9375 51 52.125 53.375 C49.25833575 55.25624841 46.70324844 56.51796663 43.4375 57.625 C26.8998191 63.6245722 15.76363045 78.37696073 8.41015625 93.59375 C6.91524893 96.82892936 5.51110467 100.09212052 4.125 103.375 C3.125 104.375 3.125 104.375 0.75 104.75 C-0.11625 104.62625 -0.9825 104.5025 -1.875 104.375 C-4.18923796 101.07074744 -5.84369506 97.43641541 -7.57543945 93.80493164 C-15.65504673 76.98424047 -25.70242097 65.8303586 -42.7109375 57.8828125 C-45.5549657 56.52751017 -48.20630287 55.0441851 -50.875 53.375 C-50.80859375 51.0859375 -50.80859375 51.0859375 -49.875 48.375 C-47.5246021 46.99812175 -45.44203796 45.99377794 -42.9375 45 C-26.94512339 38.08657952 -14.36203677 26.97888645 -7.296875 10.75 C-6.42924418 8.4762089 -5.58900962 6.19164443 -4.78515625 3.89453125 C-3.54534522 0.46243633 -3.54534522 0.46243633 0 0 Z " fill="#BAA060" transform="translate(388.875,491.625)"/>
<path d="M0 0 C3.87901737 1.71534436 6.190396 4.00404559 7.7890625 7.9453125 C8.36893143 10.29075249 8.67205893 12.60577059 9 15 C9.31467738 16.95058973 9.62982008 18.90110443 9.9453125 20.8515625 C11.09743573 28.31435795 11.85048543 35.7967906 12.5625 43.3125 C12.77670359 56.00701655 12.77670359 56.00701655 16.125 67.8125 C18.20334775 69.20115648 18.20334775 69.20115648 21.5625 70.5 C25 72 25 72 27 75 C27.67540029 82.09170306 27.67540029 82.09170306 25.1875 85.4375 C21.69789269 87.93007665 18.86023436 88.13673144 14.68994141 88.19287109 C13.06277695 88.21696548 13.06277695 88.21696548 11.40274048 88.24154663 C6.4517685 88.28600816 1.50092948 88.32704309 -3.45019531 88.35009766 C-6.06324151 88.36667707 -8.676242 88.39399268 -11.2890625 88.43212891 C-15.05492701 88.48681002 -18.81972983 88.50875755 -22.5859375 88.5234375 C-23.75377777 88.54610687 -24.92161804 88.56877625 -26.12484741 88.59213257 C-34.21030204 88.57101237 -34.21030204 88.57101237 -38.20556641 85.68212891 C-40.50965099 82.23822778 -41.14577807 80.1546751 -41 76 C-37.96259293 71.12174016 -35.40360269 69.56104078 -30 68 C-25.58437861 61.37656792 -25.94461371 52.06940832 -25.5625 44.3125 C-25.17498486 36.62104885 -24.49142251 28.97131177 -23.6875 21.3125 C-23.58187744 20.18948486 -23.47625488 19.06646973 -23.36743164 17.90942383 C-22.70353357 11.87419396 -22.15542722 7.5525831 -18 3 C-12.58773785 -1.23451075 -6.57233805 -0.9700868 0 0 Z " fill="#B99E5E" transform="translate(396,249)"/>
<path d="M0 0 C1.26481201 -0.01253311 2.52962402 -0.02506622 3.83276367 -0.03797913 C5.20492587 -0.02571038 6.57707819 -0.0122903 7.94921875 0.00219727 C9.36499209 0.001368 10.78076532 -0.00109358 12.1965332 -0.00511169 C15.15898737 -0.0079656 18.12068377 0.00668972 21.08300781 0.03417969 C24.87291214 0.06826339 28.6614621 0.0622413 32.45143127 0.04351711 C35.37352713 0.03292867 38.29530994 0.04190134 41.21737671 0.05690193 C42.61436024 0.06207078 44.01137665 0.06161769 45.40835571 0.05535698 C47.36342616 0.04988362 49.31851262 0.07317922 51.2734375 0.09765625 C52.93959106 0.10695412 52.93959106 0.10695412 54.6394043 0.11643982 C58.30901964 0.74654314 59.99768967 2.05361643 62.63671875 4.63110352 C63.49973205 7.37559302 63.27337055 9.83786544 62.63671875 12.63110352 C60.76656781 15.06229974 59.3553353 16.27179524 56.63671875 17.63110352 C54.69266256 17.74283754 52.7447913 17.79038806 50.79760742 17.80810547 C49.57261032 17.8209407 48.34761322 17.83377594 47.085495 17.84700012 C45.7418966 17.85516784 44.39829364 17.86261151 43.0546875 17.86938477 C42.37874353 17.87346029 41.70279957 17.87753582 41.00637245 17.88173485 C37.42799815 17.9025948 33.84966218 17.91689624 30.27124023 17.92626953 C26.5789345 17.93732829 22.88723239 17.97172113 19.19513988 18.01144123 C16.35291948 18.0376149 13.51084266 18.04596201 10.66851234 18.04955101 C9.30776205 18.05441587 7.94701812 18.06602723 6.58638573 18.084589 C4.67907653 18.10898913 2.77147358 18.10559476 0.86401367 18.10107422 C-0.2202742 18.10694046 -1.30456207 18.1128067 -2.42170715 18.11885071 C-6.06893484 17.51409794 -7.72865335 16.17157744 -10.36328125 13.63110352 C-11.8075898 10.74248642 -11.74016631 8.8346265 -11.36328125 5.63110352 C-7.82965275 1.2097305 -5.62471144 0.00487017 0 0 Z " fill="#BBA161" transform="translate(363.36328125,360.368896484375)"/>
<path d="M0 0 C1.63630371 -0.00361794 1.63630371 -0.00361794 3.30566406 -0.00730896 C5.60876099 -0.0063308 7.91188152 0.00705511 10.21484375 0.03198242 C13.7377926 0.06628738 17.25823252 0.05263877 20.78125 0.03320312 C23.020844 0.04010173 25.26043153 0.04977424 27.5 0.0625 C28.55219727 0.05754013 29.60439453 0.05258026 30.68847656 0.04747009 C35.15407406 0.11930062 37.97077512 0.17510735 41.8828125 2.45336914 C44.55000258 5.56102223 44.89048066 7.55496712 44.75 11.62890625 C43.14825559 14.49733066 42.3709418 15.82653652 39.75 17.62890625 C35.8460044 18.52018816 32.01752071 18.44610735 28.02734375 18.390625 C26.88971085 18.39399368 25.75207794 18.39736237 24.57997131 18.40083313 C22.17851228 18.4005345 19.77701509 18.38530665 17.37573242 18.35620117 C13.69657382 18.31650415 10.0210152 18.33550301 6.34179688 18.36132812 C4.0077985 18.35376981 1.67380812 18.34281716 -0.66015625 18.328125 C-2.31181541 18.33860115 -2.31181541 18.33860115 -3.99684143 18.34928894 C-11.57928489 18.20877188 -11.57928489 18.20877188 -14.93920898 15.30395508 C-16.68833789 11.73435079 -16.88121043 9.55643784 -16.25 5.62890625 C-11.95435864 -0.65369821 -6.96087051 -0.08771043 0 0 Z " fill="#B79E5D" transform="translate(441.25,267.37109375)"/>
<path d="M0 0 C1.63630371 -0.00361794 1.63630371 -0.00361794 3.30566406 -0.00730896 C5.60876099 -0.0063308 7.91188152 0.00705511 10.21484375 0.03198242 C13.7377926 0.06628738 17.25823252 0.05263877 20.78125 0.03320312 C23.020844 0.04010173 25.26043153 0.04977424 27.5 0.0625 C28.55219727 0.05754013 29.60439453 0.05258026 30.68847656 0.04747009 C35.15281205 0.11928032 37.97274349 0.17778531 41.88671875 2.44946289 C44.5124924 5.52077859 44.82034631 7.61916653 44.75 11.62890625 C42.98358828 14.43080071 41.71950178 16.14415536 38.75 17.62890625 C37.17371596 17.74414796 35.59276908 17.7983826 34.01245117 17.82177734 C33.02770309 17.83784027 32.04295502 17.8539032 31.02836609 17.87045288 C26.52274219 17.9148642 22.01726614 17.95596593 17.51147461 17.97900391 C15.13409642 17.99556874 12.75676814 18.02286537 10.37963867 18.06103516 C6.95465213 18.1157588 3.53083341 18.13767167 0.10546875 18.15234375 C-0.95613968 18.17501312 -2.01774811 18.1976825 -3.11152649 18.22103882 C-10.46753879 18.1999517 -10.46753879 18.1999517 -14.4206543 15.31494141 C-16.84747153 11.75163656 -17.00505316 9.85720392 -16.25 5.62890625 C-11.94712361 -0.65089007 -6.96521053 -0.08776512 0 0 Z " fill="#B89F5E" transform="translate(309.25,267.37109375)"/>
<path d="M0 0 C0.88429688 -0.02578125 1.76859375 -0.0515625 2.6796875 -0.078125 C5.125 0.25 5.125 0.25 6.73608398 1.41333008 C12.38652308 8.88533804 9.38480727 28.53122978 9.42016602 37.68481445 C9.43181168 39.78611924 9.45245545 41.8873917 9.48168945 43.98852539 C9.52419592 47.05635241 9.54049492 50.12332219 9.55078125 53.19140625 C9.56828934 54.12787491 9.58579742 55.06434357 9.60383606 56.02919006 C9.58964989 60.27397971 9.50325306 62.62441426 7.26635742 66.32397461 C4.83699832 68.50904062 3.36677333 69.07476901 0.125 69.25 C-1.78928564 67.33571436 -1.18890711 63.88748294 -1.3046875 61.33984375 C-1.37671817 59.87083005 -1.4491638 58.40183666 -1.52197266 56.93286133 C-1.55897278 56.15794342 -1.5959729 55.38302551 -1.63409424 54.58462524 C-2.24818365 41.88422788 -3.09882773 29.30974905 -4.90966797 16.71264648 C-5.65364964 11.49280595 -6.10416358 6.52679292 -5.875 1.25 C-4.21733202 -0.40766798 -2.27153595 0.03950497 0 0 Z " fill="#35362A" transform="translate(530.875,265.75)"/>
<path d="M0 0 C1.19496094 0.02320313 1.19496094 0.02320313 2.4140625 0.046875 C4.375 0.25 4.375 0.25 5.375 1.25 C5.33392993 3.66049744 5.2208711 6.03342675 5.0625 8.4375 C4.99192383 9.59813965 4.99192383 9.59813965 4.91992188 10.78222656 C4.74529848 13.60530482 4.5606766 16.42762711 4.375 19.25 C4.29846191 20.4270752 4.22192383 21.60415039 4.14306641 22.81689453 C3.64796992 30.41064354 3.1502572 38.00424284 2.62109375 45.59570312 C2.45323474 48.08827623 2.30021336 50.58188213 2.16015625 53.07617188 C2.08667969 54.30400391 2.01320312 55.53183594 1.9375 56.796875 C1.87691406 57.89354492 1.81632813 58.99021484 1.75390625 60.12011719 C1.35906419 63.38163475 0.51674786 66.17721907 -0.625 69.25 C-3.82764844 68.98311263 -5.35333378 68.49208369 -7.77734375 66.33203125 C-10.43181595 61.90416959 -10.09603789 58.18919002 -9.9375 53.125 C-9.92130615 52.12960205 -9.9051123 51.1342041 -9.88842773 50.10864258 C-9.82568356 46.82130492 -9.72847576 43.53629605 -9.625 40.25 C-9.59212891 39.07646973 -9.55925781 37.90293945 -9.52539062 36.69384766 C-9.30132615 28.87590007 -9.05708251 21.05953869 -8.625 13.25 C-8.57456543 12.2904541 -8.52413086 11.3309082 -8.47216797 10.34228516 C-8.40787598 9.45202637 -8.34358398 8.56176758 -8.27734375 7.64453125 C-8.22441162 6.8656958 -8.17147949 6.08686035 -8.11694336 5.28442383 C-7.02126273 0.75325426 -4.33069493 -0.14106498 0 0 Z " fill="#35362A" transform="translate(247.625,265.75)"/>
<path d="M0 0 C3.72916212 1.51523517 5.72147813 3.71256761 8.3125 6.75 C11.96481141 10.9223425 15.69246271 14.51731028 20 18 C18.60859106 21.25603819 17.06896049 22.99424558 14.3125 25.1875 C10.37846617 28.47778284 7.48436593 32.09231545 4.54296875 36.27734375 C4.03378906 36.84582031 3.52460938 37.41429687 3 38 C2.01 38 1.02 38 0 38 C-1.47265625 36.34765625 -1.47265625 36.34765625 -3.0625 34.0625 C-7.08120264 28.62949 -11.87117205 24.36517952 -17 20 C-15.60859106 16.74396181 -14.06896049 15.00575442 -11.3125 12.8125 C-6.82917782 9.04224734 -3.42874097 4.72523365 0 0 Z " fill="#35362A" transform="translate(388,524)"/>
<path d="M0 0 C1.54229599 -0.00682738 3.0845807 -0.01707274 4.62683105 -0.03076172 C6.82422593 -0.04871458 9.02122896 -0.05292171 11.21868896 -0.05322266 C12.50122559 -0.05733154 13.78376221 -0.06144043 15.10516357 -0.06567383 C18.15584352 0.1606985 19.83144747 0.5600351 22.37884521 2.17724609 C20.64598267 2.21483032 20.64598267 2.21483032 18.87811279 2.25317383 C14.58226893 2.34751555 10.28657668 2.44767046 5.99090576 2.54956055 C4.13352003 2.5928083 2.27609714 2.63449037 0.41864014 2.67456055 C-2.25489486 2.73250979 -4.9282446 2.79613262 -7.60162354 2.86083984 C-8.4288945 2.87755234 -9.25616547 2.89426483 -10.10850525 2.91148376 C-14.07127831 3.01275898 -17.74425477 3.27275555 -21.62115479 4.17724609 C-23.51392953 4.31337927 -25.41124508 4.39618345 -27.30865479 4.42724609 C-28.73758057 4.46591797 -28.73758057 4.46591797 -30.19537354 4.50537109 C-30.99588135 4.39708984 -31.79638916 4.28880859 -32.62115479 4.17724609 C-33.28115479 3.18724609 -33.94115479 2.19724609 -34.62115479 1.17724609 C-23.08750547 0.32515591 -11.56170123 0.04623585 0 0 Z " fill="#3E3E2F" transform="translate(388.62115478515625,142.82275390625)"/>
<path d="M0 0 C1.57875408 0.05338782 3.15753026 0.10612614 4.73632812 0.15820312 C8.55368085 0.28550534 12.3706292 0.42151332 16.1875 0.5625 C16.1875 0.8925 16.1875 1.2225 16.1875 1.5625 C10.94010312 2.63932737 5.89201042 2.71506558 0.5625 2.6875 C-0.3452417 2.68556641 -1.2529834 2.68363281 -2.18823242 2.68164062 C-11.7456437 2.62230342 -21.27406124 2.13624068 -30.8125 1.5625 C-30.8125 1.2325 -30.8125 0.9025 -30.8125 0.5625 C-20.47000261 -0.52948007 -10.3712823 -0.38550462 0 0 Z " fill="#3C3C35" transform="translate(322.8125,763.4375)"/>
<path d="M0 0 C1.80373872 3.36387419 2.27111825 5.65647895 2.25 9.5 C2.25515625 10.4384375 2.2603125 11.376875 2.265625 12.34375 C2 15 2 15 1.00927734 16.71777344 C-0.39841318 19.90091107 -0.32868653 22.69991876 -0.4140625 26.171875 C-0.43342865 26.8542926 -0.4527948 27.53671021 -0.4727478 28.23980713 C-0.53231098 30.40974608 -0.57883446 32.57973877 -0.625 34.75 C-0.66320131 36.22528297 -0.7022543 37.70054415 -0.7421875 39.17578125 C-0.83799235 42.78365418 -0.92210916 46.39169083 -1 50 C-1.33 50 -1.66 50 -2 50 C-2.05014865 45.12940909 -2.08606618 40.25897467 -2.10986328 35.38818359 C-2.11980362 33.73776628 -2.13336063 32.087366 -2.15087891 30.43701172 C-2.25799131 20.07231114 -1.84740704 10.23259388 0 0 Z " fill="#9B8A55" transform="translate(473,523)"/>
<path d="M0 0 C1.83069903 3.12929178 2.23931181 5.37643146 2.1953125 8.984375 C2.18886719 9.91894531 2.18242187 10.85351562 2.17578125 11.81640625 C2.15902344 12.78449219 2.14226562 13.75257813 2.125 14.75 C2.11597656 15.73355469 2.10695312 16.71710938 2.09765625 17.73046875 C2.07412785 20.15389407 2.04125368 22.57682222 2 25 C1.34 25 0.68 25 0 25 C-1.44827586 7.05172414 -1.44827586 7.05172414 -1 1 C-0.67 0.67 -0.34 0.34 0 0 Z " fill="#42433B" transform="translate(186,310)"/>
<path d="M0 0 C0.33 0 0.66 0 1 0 C1.89604368 6.04829486 2.11269443 11.8894576 2 18 C1.34 18 0.68 18 0 18 C-0.33 23.28 -0.66 28.56 -1 34 C-1.33 34 -1.66 34 -2 34 C-2.34176603 22.5318511 -1.28241685 11.38144957 0 0 Z " fill="#565850" transform="translate(147,642)"/>
<path d="M0 0 C1.86398437 0.02126953 1.86398437 0.02126953 3.765625 0.04296875 C4.75477905 0.05263672 4.75477905 0.05263672 5.76391602 0.0625 C12.53415973 0.16557972 19.2705085 0.64845562 26.015625 1.23046875 C26.015625 1.56046875 26.015625 1.89046875 26.015625 2.23046875 C23.64078138 2.3996688 21.26579022 2.56589738 18.890625 2.73046875 C18.22546875 2.77816406 17.5603125 2.82585938 16.875 2.875 C11.3800876 3.25210183 6.36038804 3.56665951 1.015625 2.23046875 C-0.98400528 2.19201432 -2.98489133 2.18502594 -4.984375 2.23046875 C-2.984375 0.23046875 -2.984375 0.23046875 0 0 Z " fill="#3C3C2D" transform="translate(260.984375,723.76953125)"/>
<path d="M0 0 C0.87462891 0.09990234 1.74925781 0.19980469 2.65039062 0.30273438 C4.78867914 0.54811175 6.92573286 0.80420947 9.0625 1.0625 C9.0625 1.7225 9.0625 2.3825 9.0625 3.0625 C0.20161833 3.35461698 -8.19797454 2.51046872 -16.9375 1.0625 C-16.9375 0.7325 -16.9375 0.4025 -16.9375 0.0625 C-11.07712379 -1.07458792 -5.90220799 -0.72262775 0 0 Z " fill="#AD975B" transform="translate(262.9375,720.9375)"/>
<path d="M0 0 C0.33 0.99 0.66 1.98 1 3 C-0.32 3.33 -1.64 3.66 -3 4 C-3 4.66 -3 5.32 -3 6 C-4.8253125 6.680625 -4.8253125 6.680625 -6.6875 7.375 C-9.8080927 8.54452941 -12.91230616 9.74562438 -16 11 C-16.33 10.01 -16.66 9.02 -17 8 C-15.85660156 7.50628906 -14.71320313 7.01257813 -13.53515625 6.50390625 C-12.044217 5.85689488 -10.5533345 5.2097527 -9.0625 4.5625 C-8.30775391 4.23701172 -7.55300781 3.91152344 -6.77539062 3.57617188 C-3.12971311 2.19897394 -3.12971311 2.19897394 0 0 Z " fill="#404239" transform="translate(267,113)"/>
<path d="M0 0 C2.18185426 3.27278139 2.21432326 3.9351248 1.9765625 7.66796875 C1.925 8.56064453 1.8734375 9.45332031 1.8203125 10.37304688 C1.75585938 11.30181641 1.69140625 12.23058594 1.625 13.1875 C1.56828125 14.12787109 1.5115625 15.06824219 1.453125 16.03710938 C1.31169923 18.35884909 1.1602967 20.6794993 1 23 C0.01 23 -0.98 23 -2 23 C-2.02698189 21.37509046 -2.04638757 19.75005367 -2.0625 18.125 C-2.07410156 17.22007812 -2.08570313 16.31515625 -2.09765625 15.3828125 C-2 13 -2 13 -1 11 C-0.7724985 9.12943209 -0.59037189 7.25314042 -0.4375 5.375 C-0.35371094 4.37210938 -0.26992188 3.36921875 -0.18359375 2.3359375 C-0.12300781 1.56507813 -0.06242188 0.79421875 0 0 Z " fill="#494A41" transform="translate(647,566)"/>
<path d="M0 0 C3.04172719 -0.0271045 6.08320997 -0.04688964 9.125 -0.0625 C9.9809375 -0.07087891 10.836875 -0.07925781 11.71875 -0.08789062 C16.26678411 -0.10538306 20.52383164 0.06807642 25 1 C25 1.33 25 1.66 25 2 C16.57142857 3.28571429 16.57142857 3.28571429 12 2 C12 2.33 12 2.66 12 3 C8.37 3 4.74 3 1 3 C0.67 2.01 0.34 1.02 0 0 Z " fill="#B49C5C" transform="translate(414,127)"/>
<path d="M0 0 C0.92232422 0.00451172 1.84464844 0.00902344 2.79492188 0.01367188 C5.05085048 0.02536062 7.30663967 0.04174545 9.5625 0.0625 C8.5725 1.5475 8.5725 1.5475 7.5625 3.0625 C5.3984375 3.35546875 5.3984375 3.35546875 2.9375 3.25 C2.12023437 3.22292969 1.30296875 3.19585937 0.4609375 3.16796875 C-0.16554688 3.13316406 -0.79203125 3.09835938 -1.4375 3.0625 C-1.4375 2.7325 -1.4375 2.4025 -1.4375 2.0625 C-6.7175 2.0625 -11.9975 2.0625 -17.4375 2.0625 C-17.4375 1.7325 -17.4375 1.4025 -17.4375 1.0625 C-11.58861957 0.04355924 -5.92830831 -0.05548453 0 0 Z " fill="#A28F56" transform="translate(357.4375,126.9375)"/>
<path d="M0 0 C0.33 0 0.66 0 1 0 C2.03026944 6.69675136 2.10152799 13.2314676 2 20 C1.34 20 0.68 20 0 20 C-1.02345486 16.62097444 -1.1338035 13.52139987 -1.125 10 C-1.12886719 8.453125 -1.12886719 8.453125 -1.1328125 6.875 C-1.01863671 4.40342991 -0.71350656 2.3557042 0 0 Z " fill="#3D3E35" transform="translate(646,546)"/>
<path d="M0 0 C0.33 0 0.66 0 1 0 C1.19590444 3.47874757 1.38031592 6.95800904 1.5625 10.4375 C1.61857422 11.43072266 1.67464844 12.42394531 1.73242188 13.44726562 C1.78076172 14.39150391 1.82910156 15.33574219 1.87890625 16.30859375 C1.9260376 17.18314209 1.97316895 18.05769043 2.02172852 18.95874023 C2 21 2 21 1 22 C0.76472227 24.34987262 0.58613583 26.70556039 0.4375 29.0625 C0.35371094 30.35285156 0.26992187 31.64320313 0.18359375 32.97265625 C0.12300781 33.97167969 0.06242188 34.97070312 0 36 C-0.33 36 -0.66 36 -1 36 C-1.15130716 23.96267515 -0.68944522 12.01604528 0 0 Z " fill="#4F5049" transform="translate(187,269)"/>
<path d="M0 0 C13.6332574 0.96355353 13.6332574 0.96355353 20 2 C18 4 18 4 15.13671875 4.01171875 C13.99847656 3.90472656 12.86023438 3.79773438 11.6875 3.6875 C10.55699219 3.58824219 9.42648438 3.48898437 8.26171875 3.38671875 C5.46011344 3.05455237 2.75364423 2.60445849 0 2 C0 1.34 0 0.68 0 0 Z " fill="#3F3F37" transform="translate(231,756)"/>
<path d="M0 0 C0.66 0.33 1.32 0.66 2 1 C2 4 2 4 0.57421875 5.640625 C-0.04839844 6.17171875 -0.67101562 6.7028125 -1.3125 7.25 C-1.92738281 7.79140625 -2.54226562 8.3328125 -3.17578125 8.890625 C-3.77777344 9.25671875 -4.37976563 9.6228125 -5 10 C-5.99 9.67 -6.98 9.34 -8 9 C-6.85459775 7.68712379 -5.70866567 6.37470979 -4.5625 5.0625 C-3.92441406 4.33160156 -3.28632813 3.60070312 -2.62890625 2.84765625 C-1.77458541 1.87860647 -0.91348825 0.91348825 0 0 Z " fill="#3F4038" transform="translate(239,128)"/>
<path d="M0 0 C2.48764445 2.84302222 4.5595859 5.75894033 6.375 9.0625 C6.91253906 10.03896484 6.91253906 10.03896484 7.4609375 11.03515625 C8 13 8 13 7.1015625 15.24609375 C6.73804688 15.82488281 6.37453125 16.40367187 6 17 C0 5.26213592 0 5.26213592 0 0 Z " fill="#42433A" transform="translate(628,497)"/>
<path d="M0 0 C1.53333984 0.23976562 1.53333984 0.23976562 3.09765625 0.484375 C6.02530191 1.27367149 7.67272013 2.27306985 9.9375 4.25 C7.3747008 3.93981396 4.8122789 3.62693109 2.25 3.3125 C1.52876953 3.22548828 0.80753906 3.13847656 0.06445312 3.04882812 C-3.68260584 2.58686195 -7.37042911 2.05832321 -11.0625 1.25 C-11.0625 0.92 -11.0625 0.59 -11.0625 0.25 C-7.10398085 -0.77061267 -4.02159579 -0.67111333 0 0 Z " fill="#AE985D" transform="translate(464.0625,146.75)"/>
<path d="M0 0 C0 0.33 0 0.66 0 1 C-11.50190114 2.6730038 -11.50190114 2.6730038 -17 2 C-17.66 1.34 -18.32 0.68 -19 0 C-12.41816638 -0.8931507 -6.57849492 -0.95494281 0 0 Z " fill="#45463E" transform="translate(530,760)"/>
<path d="M0 0 C0 0.66 0 1.32 0 2 C1.65 2 3.3 2 5 2 C5 2.33 5 2.66 5 3 C-2.3905476 3.14715692 -9.64424835 2.70776992 -17 2 C-17 1.67 -17 1.34 -17 1 C-15.10440036 0.83069605 -13.20850769 0.66467136 -11.3125 0.5 C-10.25675781 0.4071875 -9.20101563 0.314375 -8.11328125 0.21875 C-5.39363975 0.0276585 -2.72460144 -0.04043935 0 0 Z " fill="#575138" transform="translate(306,707)"/>
<path d="M0 0 C0.99 0.33 1.98 0.66 3 1 C2.67 4.3 2.34 7.6 2 11 C1.01 11 0.02 11 -1 11 C-0.67 7.37 -0.34 3.74 0 0 Z " fill="#43433B" transform="translate(133,538)"/>
<path d="M0 0 C0.99 0 1.98 0 3 0 C3.66 3.3 4.32 6.6 5 10 C4.01 10 3.02 10 2 10 C1.34 6.7 0.68 3.4 0 0 Z " fill="#3A3B32" transform="translate(639,525)"/>
<path d="M0 0 C0.66 1.32 1.32 2.64 2 4 C1.01 5.485 1.01 5.485 0 7 C-0.66 7 -1.32 7 -2 7 C-2.33 8.65 -2.66 10.3 -3 12 C-4.1484375 10.265625 -4.1484375 10.265625 -5 8 C-4.1015625 5.859375 -4.1015625 5.859375 -2.625 3.75 C-2.14289063 3.04359375 -1.66078125 2.3371875 -1.1640625 1.609375 C-0.77992188 1.07828125 -0.39578125 0.5471875 0 0 Z " fill="#393A33" transform="translate(286,67)"/>
<path d="M0 0 C6.0018137 -0.21824777 11.19233704 0.4943096 17 2 C17 2.66 17 3.32 17 4 C11.2190275 3.36934845 5.6556294 2.34844868 0 1 C0 0.67 0 0.34 0 0 Z " fill="#413E2D" transform="translate(225,699)"/>
<path d="M0 0 C0.99 0 1.98 0 3 0 C2.45144652 4.571279 1.58255197 8.67435795 0 13 C-0.33 13 -0.66 13 -1 13 C-1.0272415 11.58344207 -1.04650467 10.16672955 -1.0625 8.75 C-1.07410156 7.96109375 -1.08570313 7.1721875 -1.09765625 6.359375 C-1.00385306 4.09308998 -0.63241063 2.1711105 0 0 Z " fill="#3E3F37" transform="translate(642,602)"/>
<path d="M0 0 C0.33 0 0.66 0 1 0 C1.56131481 6.45512034 -0.36536213 11.15439723 -3 17 C-4.56393356 13.02623171 -3.36145292 10.18622097 -2.0625 6.25 C-1.68222656 5.07953125 -1.30195313 3.9090625 -0.91015625 2.703125 C-0.60980469 1.81109375 -0.30945313 0.9190625 0 0 Z " fill="#9C8B56" transform="translate(263,224)"/>
<path d="M0 0 C0.99 0.33 1.98 0.66 3 1 C1.95199219 1.93972656 1.95199219 1.93972656 0.8828125 2.8984375 C-0.02726562 3.71570313 -0.93734375 4.53296875 -1.875 5.375 C-2.77992188 6.18710938 -3.68484375 6.99921875 -4.6171875 7.8359375 C-6.10896183 9.19076205 -7.57505435 10.57505435 -9 12 C-9 9 -9 9 -7.03125 6.73828125 C-5.77828125 5.53751953 -5.77828125 5.53751953 -4.5 4.3125 C-3.6646875 3.50425781 -2.829375 2.69601563 -1.96875 1.86328125 C-1.3190625 1.24839844 -0.669375 0.63351563 0 0 Z " fill="#C0A664" transform="translate(332,67)"/>
<path d="M0 0 C0.22162329 1.62324086 0.42689803 3.248721 0.625 4.875 C0.74101563 5.77992188 0.85703125 6.68484375 0.9765625 7.6171875 C0.98429688 8.40351563 0.99203125 9.18984375 1 10 C0.34 10.66 -0.32 11.32 -1 12 C-3.32590854 8.36576791 -3.16265833 5.22911669 -3 1 C-1 0 -1 0 0 0 Z " fill="#4C4D45" transform="translate(623,481)"/>
<path d="M0 0 C3.93673644 1.31224548 6.22719294 2.91910327 9 6 C8.01 6.33 7.02 6.66 6 7 C2.8125 5.25 2.8125 5.25 0 3 C0 2.01 0 1.02 0 0 Z " fill="#404138" transform="translate(531,123)"/>
<path d="M0 0 C0.66 0.33 1.32 0.66 2 1 C0.55527654 4.80881639 -1.32603071 6.29742886 -5 8 C-5.99 7.67 -6.98 7.34 -8 7 C-5.36 4.69 -2.72 2.38 0 0 Z " fill="#3F4037" transform="translate(311,39)"/>
<path d="M0 0 C3.84974175 2.99424358 6.96160954 5.4435978 9 10 C8.67 10.99 8.34 11.98 8 13 C7.4225 12.113125 6.845 11.22625 6.25 10.3125 C4.83298095 8.17178908 3.38453568 6.24776583 1.75 4.25 C0 2 0 2 0 0 Z " fill="#C4AA67" transform="translate(566,422)"/>
<path d="M0 0 C0.99 0 1.98 0 3 0 C2.34 2.64 1.68 5.28 1 8 C0.01 7.67 -0.98 7.34 -2 7 C-1.34 4.69 -0.68 2.38 0 0 Z " fill="#3E3F36" transform="translate(587,343)"/>
<path d="M0 0 C0.99 0.33 1.98 0.66 3 1 C2.34 2.98 1.68 4.96 1 7 C0.34 7 -0.32 7 -1 7 C-1 7.66 -1 8.32 -1 9 C-1.66 9 -2.32 9 -3 9 C-2.01 6.03 -1.02 3.06 0 0 Z " fill="#40413A" transform="translate(278,81)"/>
<path d="M0 0 C0.99 0.33 1.98 0.66 3 1 C0.69 3.31 -1.62 5.62 -4 8 C-4.66 7.34 -5.32 6.68 -6 6 C-4.02 4.02 -2.04 2.04 0 0 Z " fill="#3B3C2E" transform="translate(414,560)"/>
<path d="M0 0 C5.28 0.33 10.56 0.66 16 1 C16 1.33 16 1.66 16 2 C10.555 2.495 10.555 2.495 5 3 C5 2.67 5 2.34 5 2 C3.35 1.67 1.7 1.34 0 1 C0 0.67 0 0.34 0 0 Z " fill="#9A8650" transform="translate(273,707)"/>
<path d="M0 0 C1.66611905 -0.042721 3.33382885 -0.04063832 5 0 C5.33 0.33 5.66 0.66 6 1 C7.34747084 1.23075082 8.70377565 1.41153063 10.0625 1.5625 C11.361875 1.706875 12.66125 1.85125 14 2 C14 2.33 14 2.66 14 3 C10.37 3 6.74 3 3 3 C3 2.34 3 1.68 3 1 C2.01 0.67 1.02 0.34 0 0 Z " fill="#494A41" transform="translate(499,760)"/>
<path d="M0 0 C0.66 0.33 1.32 0.66 2 1 C1.0409375 1.7734375 1.0409375 1.7734375 0.0625 2.5625 C-2.55791681 5.65935623 -2.69389817 8.02067623 -3 12 C-3.33 12 -3.66 12 -4 12 C-4.49230769 4.61538462 -4.49230769 4.61538462 -2 1.5 C-1.34 1.005 -0.68 0.51 0 0 Z " fill="#9F8D55" transform="translate(245,564)"/>
<path d="M0 0 C4.8333472 -0.08333357 9.23692563 0.04738513 14 1 C14 1.33 14 1.66 14 2 C8.58264203 2.93402724 5.19548425 3.20808081 0 1 C0 0.67 0 0.34 0 0 Z " fill="#968550" transform="translate(425,127)"/>
<path d="M0 0 C0.66 0.33 1.32 0.66 2 1 C0.375 3.0625 0.375 3.0625 -2 5 C-5.25 4.75 -5.25 4.75 -8 4 C-6.66666667 3.33333333 -5.33333333 2.66666667 -4 2 C-3.29875 1.608125 -2.5975 1.21625 -1.875 0.8125 C-1.25625 0.544375 -0.6375 0.27625 0 0 Z " fill="#484632" transform="translate(567,712)"/>
<path d="M0 0 C0.66 0.99 1.32 1.98 2 3 C-0.97 5.475 -0.97 5.475 -4 8 C-4.33 7.01 -4.66 6.02 -5 5 C-3.35 3.35 -1.7 1.7 0 0 Z " fill="#403F30" transform="translate(537,539)"/>
<path d="M0 0 C0.33 0.66 0.66 1.32 1 2 C1.99 2.33 2.98 2.66 4 3 C4.33 4.65 4.66 6.3 5 8 C2 7 2 7 0.8125 5.125 C0 3 0 3 0 0 Z " fill="#3C3D33" transform="translate(611,433)"/>
<path d="M0 0 C-0.66 0.66 -1.32 1.32 -2 2 C-4.125 1.625 -4.125 1.625 -6 1 C-6 1.66 -6 2.32 -6 3 C-8.31 2.67 -10.62 2.34 -13 2 C-13 1.67 -13 1.34 -13 1 C-8.59085217 -0.10228696 -4.51617599 -0.07654536 0 0 Z " fill="#4D4B37" transform="translate(332,147)"/>
<path d="M0 0 C0 0.66 0 1.32 0 2 C-4.15267176 5.11450382 -4.15267176 5.11450382 -7.3125 4.6875 C-7.869375 4.460625 -8.42625 4.23375 -9 4 C-2.25 0 -2.25 0 0 0 Z " fill="#AD975B" transform="translate(349,57)"/>
<path d="M0 0 C0 0.33 0 0.66 0 1 C-1.45635371 1.22174933 -2.91522956 1.42698698 -4.375 1.625 C-5.18710937 1.74101563 -5.99921875 1.85703125 -6.8359375 1.9765625 C-7.55007813 1.98429688 -8.26421875 1.99203125 -9 2 C-9.66 1.34 -10.32 0.68 -11 0 C-7.01803543 -1.05404945 -4.01804691 -0.84098656 0 0 Z " fill="#414139" transform="translate(557,755)"/>
<path d="M0 0 C2.64 0.33 5.28 0.66 8 1 C8 1.66 8 2.32 8 3 C5.36 2.67 2.72 2.34 0 2 C0 1.34 0 0.68 0 0 Z " fill="#AD985C" transform="translate(236,718)"/>
<path d="M0 0 C0.99 0 1.98 0 3 0 C2.67 2.64 2.34 5.28 2 8 C0.23537317 4.91190305 0 3.76687864 0 0 Z " fill="#45463D" transform="translate(133,600)"/>
<path d="M0 0 C0.33 0 0.66 0 1 0 C0.67 4.29 0.34 8.58 0 13 C-0.33 13 -0.66 13 -1 13 C-1.33 10.36 -1.66 7.72 -2 5 C-1.34 5 -0.68 5 0 5 C0 3.35 0 1.7 0 0 Z " fill="#A08D58" transform="translate(529,356)"/>
<path d="M0 0 C-0.33 0.66 -0.66 1.32 -1 2 C-3.97 1.67 -6.94 1.34 -10 1 C-10 0.67 -10 0.34 -10 0 C-6.30458414 -0.95024979 -3.69541586 -0.95024979 0 0 Z " fill="#A4915A" transform="translate(463,147)"/>
<path d="M0 0 C0.66 0.33 1.32 0.66 2 1 C1.67 1.99 1.34 2.98 1 4 C-1.31 4.33 -3.62 4.66 -6 5 C-4.06745228 2.9754262 -2.36841312 1.57894208 0 0 Z " fill="#44463F" transform="translate(327,28)"/>
</svg>
