<?xml version="1.0" encoding="UTF-8"?>
<svg version="1.1" xmlns="http://www.w3.org/2000/svg" width="780" height="780">
<path d="M0 0 C1.00562988 0.48251221 2.01125977 0.96502441 3.04736328 1.4621582 C5.27057069 2.52905085 7.48981638 3.60422822 9.70556641 4.68652344 C13.52934228 6.55073419 17.37766 8.36077738 21.23046875 10.1640625 C21.91491562 10.48455063 22.59936249 10.80503876 23.30455017 11.13523865 C24.71534919 11.79580628 26.12617203 12.45632303 27.53701782 13.11679077 C31.1708042 14.82041659 34.80024073 16.53324688 38.4296875 18.24609375 C39.16071182 18.59100357 39.89173615 18.93591339 40.64491272 19.29127502 C42.12669709 19.99042888 43.60846281 20.68962225 45.09020996 21.38885498 C51.66330092 24.49053792 58.23728336 27.59032573 64.8125 30.6875 C65.52008453 31.02083344 66.22766907 31.35416687 66.95669556 31.69760132 C77.46887591 36.64795852 87.99955137 41.55574408 98.56176758 46.39868164 C103.21006385 48.53173521 107.84586499 50.68125113 112.4453125 52.91796875 C113.61308228 53.48257813 113.61308228 53.48257813 114.80444336 54.05859375 C116.19997904 54.73642093 117.59189666 55.42178816 118.97875977 56.1171875 C124.25099251 58.67274522 128.74082601 60.23122654 134.4765625 58.4609375 C135.61867188 57.91695312 136.76078125 57.37296875 137.9375 56.8125 C139.36953445 56.14788301 140.80184934 55.48387008 142.234375 54.8203125 C143.43803711 54.25231934 143.43803711 54.25231934 144.66601562 53.67285156 C148.64154285 51.81711653 152.65257497 50.04289387 156.66064453 48.25878906 C180.41963573 37.67365357 204.10178683 26.91154021 227.7734375 16.1328125 C228.51605835 15.79476593 229.2586792 15.45671936 230.02380371 15.10842896 C233.45252567 13.54746718 236.88067509 11.9852756 240.30761719 10.42041016 C243.97126126 8.7491083 247.64087163 7.09117475 251.3125 5.4375 C252.00102051 5.12588928 252.68954102 4.81427856 253.39892578 4.4932251 C255.53659925 3.52818536 257.67792993 2.57172084 259.8203125 1.6171875 C260.46952667 1.32293884 261.11874084 1.02869019 261.78762817 0.7255249 C272.62962278 -4.07013105 281.17318152 -4.16600039 292.3125 -0.5625 C296.58172864 1.20117461 300.69007231 3.23174931 304.8125 5.3125 C306.59537492 6.19156237 308.37827445 7.07057828 310.16249084 7.94691467 C311.38846181 8.54916231 312.61383185 9.15263473 313.83860779 9.75730896 C320.13506591 12.8608821 326.49975083 15.81211613 332.875 18.75 C340.45411051 22.25228166 348.02757187 25.76515114 355.58203125 29.3203125 C356.28636795 29.65175262 356.99070465 29.98319275 357.71638489 30.32467651 C361.30765859 32.01575884 364.89717225 33.71048256 368.48461914 35.40966797 C374.8664436 38.42882765 381.25297479 41.42900814 387.697052 44.3134613 C390.42631675 45.53528216 393.14991742 46.76948 395.87359619 48.00369263 C397.14021672 48.57288838 398.40978191 49.13558833 399.68255615 49.69088745 C410.87138042 54.57415667 420.15697168 60.48755947 425.375 71.8828125 C427.4838573 77.62944865 428.56276845 82.67563387 428.56697559 88.81178665 C428.57178531 89.88010154 428.57178531 89.88010154 428.57669219 90.96999854 C428.58497767 93.35078906 428.57907305 95.73132705 428.57319641 98.11212158 C428.57621777 99.83861638 428.58010717 101.56510985 428.58478898 103.29160094 C428.59507995 108.03183124 428.59288433 112.771986 428.58860838 117.51222253 C428.58614313 122.62620375 428.5951529 127.74016669 428.60264587 132.85414124 C428.61540099 142.87196139 428.61718551 152.88975475 428.61484561 162.90758166 C428.61306301 171.05091675 428.61481086 179.1942437 428.61907005 187.33757782 C428.61966524 188.4963298 428.62026043 189.65508178 428.62087366 190.84894745 C428.6220854 193.20293667 428.62329954 195.55692589 428.62451603 197.91091511 C428.63539495 219.99190712 428.63322756 242.07288387 428.62713119 264.15387675 C428.62196314 284.35068168 428.63321389 304.54743837 428.65222941 324.74423376 C428.67160602 345.48363064 428.67986402 366.22300469 428.67610615 386.96241069 C428.67419366 398.60540145 428.67668628 410.24835116 428.69082069 421.89133453 C428.70273327 431.80448474 428.70414082 441.71756863 428.69203053 451.63071975 C428.68614068 456.6872396 428.68504536 461.74363814 428.69703293 466.80014992 C428.70788772 471.43274927 428.70479308 476.06512597 428.69077124 480.6977149 C428.68812319 482.36996476 428.69049426 484.04223205 428.69850711 485.71446481 C428.7580111 499.06349419 427.8214807 512.36857619 418.26953125 522.6328125 C408.57841009 531.6734109 398.93698795 534.58545146 385.8515625 534.80078125 C375.43534761 533.73156714 366.24568791 528.78788918 356.9375 524.3125 C354.26451655 523.03590981 351.58964577 521.76331878 348.9140625 520.4921875 C348.22946457 520.16655823 347.54486664 519.84092896 346.83952332 519.50543213 C338.92062814 515.75353358 330.92064561 512.18399883 322.921875 508.60650635 C318.51534383 506.63236966 314.115506 504.64342531 309.71484375 502.65625 C307.10289184 501.47827453 304.4907842 500.30064491 301.87866211 499.12304688 C300.09556109 498.31885457 298.31269091 497.51415027 296.5300293 496.70898438 C293.90474217 495.52338608 291.27862956 494.33963407 288.65234375 493.15625 C287.45725441 492.61575012 287.45725441 492.61575012 286.23802185 492.06433105 C285.5019722 491.73308228 284.76592255 491.4018335 284.00756836 491.06054688 C283.36395859 490.77014526 282.72034882 490.47974365 282.05723572 490.18054199 C276.92363031 487.99425994 272.9045568 487.52742123 267.65625 489.37011719 C264.34025388 490.78308559 261.07595474 492.28199975 257.8125 493.8125 C256.54643209 494.39455413 255.27981367 494.97541201 254.01269531 495.55517578 C250.52134755 497.15670407 247.03784704 498.77469216 243.55541992 500.39550781 C239.67137995 502.19991432 235.78065435 503.9898021 231.890625 505.78125 C226.94190562 508.06148006 221.99396695 510.34336117 217.04882812 512.63134766 C203.17391497 519.05074302 189.26886704 525.40122714 175.34004211 531.70271301 C171.16370235 533.59369121 166.99381978 535.49826562 162.82772827 537.41171265 C159.98412357 538.71685153 157.13811181 540.01668714 154.29174805 541.3157959 C152.95112821 541.929198 151.61157119 542.54492935 150.27319336 543.16320801 C136.31217955 549.60996901 125.1788976 552.88224467 110.3125 547.4375 C105.41126714 545.38920981 100.60885761 543.11702912 95.80142212 540.85958862 C91.71429473 538.94115399 87.6164594 537.04582863 83.51953125 535.1484375 C82.67760727 534.75794724 81.83568329 534.36745697 80.96824646 533.96513367 C72.06171431 529.84215311 63.09955634 525.84725979 54.125 521.875 C53.40548157 521.55632965 52.68596313 521.2376593 51.94464111 520.90933228 C48.47952954 519.3749591 45.01374014 517.84212343 41.54760742 516.31005859 C36.93953517 514.27288838 32.33227702 512.23390186 27.7265625 510.19140625 C26.62964836 509.70612709 26.62964836 509.70612709 25.51057434 509.21104431 C20.93516078 507.18046536 16.39816004 505.08202101 11.875 502.9375 C6.09769436 500.23187312 0.28858343 497.60491129 -5.5625 495.0625 C-6.3352124 494.71638672 -7.1079248 494.37027344 -7.90405273 494.01367188 C-17.50380181 489.90228916 -23.61655014 489.92047602 -33.3686676 493.79095459 C-35.48153289 494.65821352 -37.58526636 495.54481211 -39.6875 496.4375 C-40.95702234 496.96558216 -42.22671134 497.49326388 -43.49658203 498.02050781 C-46.73197773 499.37534376 -49.95272395 500.76218698 -53.16995239 502.1595459 C-55.33414636 503.09902815 -57.50061447 504.03308561 -59.66772461 504.96582031 C-62.88834999 506.3520522 -66.10845666 507.73947638 -69.328125 509.12792969 C-78.41613259 513.04542333 -87.50876593 516.95197817 -96.60836792 520.84246826 C-98.68765185 521.73267527 -100.76605659 522.62493888 -102.84353638 523.51934814 C-105.78028175 524.78355613 -108.71987956 526.04090613 -111.66015625 527.296875 C-112.5255603 527.67127716 -113.39096436 528.04567932 -114.28259277 528.431427 C-127.98257716 534.25710106 -140.02910436 536.83961748 -154.54296875 531.8203125 C-164.1207319 527.60847628 -170.1874614 521.82153954 -174.6875 512.4375 C-175.01363281 511.78394531 -175.33976562 511.13039063 -175.67578125 510.45703125 C-178.45067299 504.49956224 -178.812465 498.73029659 -178.82172108 492.23869991 C-178.82407331 491.53330815 -178.82642554 490.82791638 -178.82884905 490.10114911 C-178.83550577 487.73757806 -178.83508183 485.3740624 -178.83467102 483.01048279 C-178.83797171 481.29865166 -178.84169771 479.58682131 -178.8458125 477.87499195 C-178.85581713 473.17059014 -178.85954681 468.46620109 -178.86220181 463.76179016 C-178.86610937 458.68797444 -178.87568734 453.61416878 -178.88441467 448.5403595 C-178.90416537 436.28759502 -178.91424311 424.03482973 -178.92314246 411.78205332 C-178.92752728 406.01027583 -178.93289356 400.23849926 -178.93813133 394.46672249 C-178.95514153 375.27757552 -178.96963572 356.08842913 -178.97688007 336.89927578 C-178.97878992 331.92105038 -178.98071026 326.94282499 -178.98266602 321.96459961 C-178.98314976 320.72730691 -178.9836335 319.49001421 -178.9841319 318.21522779 C-178.99243232 298.17166447 -179.01777041 278.12816083 -179.05024669 258.08462357 C-179.0833256 237.50119377 -179.10132955 216.91779429 -179.10452431 196.33433777 C-179.10668853 184.77955521 -179.11542453 173.22485971 -179.14098549 161.67010307 C-179.16270373 151.82980826 -179.1707373 141.98962164 -179.16101871 132.14930557 C-179.15647743 127.13098343 -179.1583504 122.1128845 -179.17778015 117.09459305 C-179.19543655 112.49449049 -179.194394 107.89477357 -179.17888286 103.29466677 C-179.17651057 101.63647843 -179.18081057 99.9782632 -179.19271151 98.32011586 C-179.29016516 83.83709224 -177.40774657 71.41444506 -167.10546875 60.5546875 C-163.01202252 56.50039758 -158.99291738 54.16132606 -153.75 51.875 C-152.86086914 51.46918701 -151.97173828 51.06337402 -151.05566406 50.64526367 C-149.05318637 49.73387098 -147.04692431 48.83076221 -145.03759766 47.93457031 C-141.39481257 46.3067057 -137.76495587 44.65213746 -134.13671875 42.9921875 C-128.54904651 40.43861101 -122.95646573 37.89614655 -117.359375 35.36328125 C-109.64667628 31.87303057 -101.93877512 28.37233223 -94.23269653 24.86749268 C-92.19103275 23.93910641 -90.14914449 23.01121576 -88.10717773 22.08349609 C-81.74106918 19.19104941 -75.37594602 16.29648829 -69.0140686 13.39474487 C-66.05433759 12.04492017 -63.09408171 10.6962487 -60.13378906 9.34765625 C-58.74143857 8.71297383 -57.34933693 8.07774513 -55.95751953 7.44189453 C-49.00803999 4.26718764 -42.04656163 1.12019975 -35.04296875 -1.93359375 C-33.93977295 -2.41626709 -32.83657715 -2.89894043 -31.69995117 -3.39624023 C-20.77939539 -7.6240946 -10.12848461 -5.08948688 0 0 Z " fill="#B19A60" transform="translate(264.6875,117.5625)"/>
<path d="M0 0 C1.00562988 0.48251221 2.01125977 0.96502441 3.04736328 1.4621582 C5.27057069 2.52905085 7.48981638 3.60422822 9.70556641 4.68652344 C13.52934228 6.55073419 17.37766 8.36077738 21.23046875 10.1640625 C21.91491562 10.48455063 22.59936249 10.80503876 23.30455017 11.13523865 C24.71534919 11.79580628 26.12617203 12.45632303 27.53701782 13.11679077 C31.1708042 14.82041659 34.80024073 16.53324688 38.4296875 18.24609375 C39.16071182 18.59100357 39.89173615 18.93591339 40.64491272 19.29127502 C42.12669709 19.99042888 43.60846281 20.68962225 45.09020996 21.38885498 C51.66330092 24.49053792 58.23728336 27.59032573 64.8125 30.6875 C65.52008453 31.02083344 66.22766907 31.35416687 66.95669556 31.69760132 C77.46887591 36.64795852 87.99955137 41.55574408 98.56176758 46.39868164 C103.21006385 48.53173521 107.84586499 50.68125113 112.4453125 52.91796875 C113.61308228 53.48257813 113.61308228 53.48257813 114.80444336 54.05859375 C116.19997904 54.73642093 117.59189666 55.42178816 118.97875977 56.1171875 C124.25099251 58.67274522 128.74082601 60.23122654 134.4765625 58.4609375 C135.61867188 57.91695312 136.76078125 57.37296875 137.9375 56.8125 C139.36953445 56.14788301 140.80184934 55.48387008 142.234375 54.8203125 C143.43803711 54.25231934 143.43803711 54.25231934 144.66601562 53.67285156 C148.64154285 51.81711653 152.65257497 50.04289387 156.66064453 48.25878906 C180.41963573 37.67365357 204.10178683 26.91154021 227.7734375 16.1328125 C228.51605835 15.79476593 229.2586792 15.45671936 230.02380371 15.10842896 C233.45252567 13.54746718 236.88067509 11.9852756 240.30761719 10.42041016 C243.97126126 8.7491083 247.64087163 7.09117475 251.3125 5.4375 C252.00102051 5.12588928 252.68954102 4.81427856 253.39892578 4.4932251 C255.53659925 3.52818536 257.67792993 2.57172084 259.8203125 1.6171875 C260.46952667 1.32293884 261.11874084 1.02869019 261.78762817 0.7255249 C272.62962278 -4.07013105 281.17318152 -4.16600039 292.3125 -0.5625 C296.58172864 1.20117461 300.69007231 3.23174931 304.8125 5.3125 C306.59537492 6.19156237 308.37827445 7.07057828 310.16249084 7.94691467 C311.38846181 8.54916231 312.61383185 9.15263473 313.83860779 9.75730896 C320.13506591 12.8608821 326.49975083 15.81211613 332.875 18.75 C340.45411051 22.25228166 348.02757187 25.76515114 355.58203125 29.3203125 C356.28636795 29.65175262 356.99070465 29.98319275 357.71638489 30.32467651 C361.30765859 32.01575884 364.89717225 33.71048256 368.48461914 35.40966797 C374.8664436 38.42882765 381.25297479 41.42900814 387.697052 44.3134613 C390.42631675 45.53528216 393.14991742 46.76948 395.87359619 48.00369263 C397.14021672 48.57288838 398.40978191 49.13558833 399.68255615 49.69088745 C410.87138042 54.57415667 420.15697168 60.48755947 425.375 71.8828125 C427.4838573 77.62944865 428.56276845 82.67563387 428.56697559 88.81178665 C428.57178531 89.88010154 428.57178531 89.88010154 428.57669219 90.96999854 C428.58497767 93.35078906 428.57907305 95.73132705 428.57319641 98.11212158 C428.57621777 99.83861638 428.58010717 101.56510985 428.58478898 103.29160094 C428.59507995 108.03183124 428.59288433 112.771986 428.58860838 117.51222253 C428.58614313 122.62620375 428.5951529 127.74016669 428.60264587 132.85414124 C428.61540099 142.87196139 428.61718551 152.88975475 428.61484561 162.90758166 C428.61306301 171.05091675 428.61481086 179.1942437 428.61907005 187.33757782 C428.61966524 188.4963298 428.62026043 189.65508178 428.62087366 190.84894745 C428.6220854 193.20293667 428.62329954 195.55692589 428.62451603 197.91091511 C428.63539495 219.99190712 428.63322756 242.07288387 428.62713119 264.15387675 C428.62196314 284.35068168 428.63321389 304.54743837 428.65222941 324.74423376 C428.67160602 345.48363064 428.67986402 366.22300469 428.67610615 386.96241069 C428.67419366 398.60540145 428.67668628 410.24835116 428.69082069 421.89133453 C428.70273327 431.80448474 428.70414082 441.71756863 428.69203053 451.63071975 C428.68614068 456.6872396 428.68504536 461.74363814 428.69703293 466.80014992 C428.70788772 471.43274927 428.70479308 476.06512597 428.69077124 480.6977149 C428.68812319 482.36996476 428.69049426 484.04223205 428.69850711 485.71446481 C428.7580111 499.06349419 427.8214807 512.36857619 418.26953125 522.6328125 C408.57841009 531.6734109 398.93698795 534.58545146 385.8515625 534.80078125 C375.43534761 533.73156714 366.24568791 528.78788918 356.9375 524.3125 C354.26451655 523.03590981 351.58964577 521.76331878 348.9140625 520.4921875 C348.22946457 520.16655823 347.54486664 519.84092896 346.83952332 519.50543213 C338.92062814 515.75353358 330.92064561 512.18399883 322.921875 508.60650635 C318.51534383 506.63236966 314.115506 504.64342531 309.71484375 502.65625 C307.10289184 501.47827453 304.4907842 500.30064491 301.87866211 499.12304688 C300.09556109 498.31885457 298.31269091 497.51415027 296.5300293 496.70898438 C293.90474217 495.52338608 291.27862956 494.33963407 288.65234375 493.15625 C287.45725441 492.61575012 287.45725441 492.61575012 286.23802185 492.06433105 C285.5019722 491.73308228 284.76592255 491.4018335 284.00756836 491.06054688 C283.36395859 490.77014526 282.72034882 490.47974365 282.05723572 490.18054199 C276.92363031 487.99425994 272.9045568 487.52742123 267.65625 489.37011719 C264.34025388 490.78308559 261.07595474 492.28199975 257.8125 493.8125 C256.54643209 494.39455413 255.27981367 494.97541201 254.01269531 495.55517578 C250.52134755 497.15670407 247.03784704 498.77469216 243.55541992 500.39550781 C239.67137995 502.19991432 235.78065435 503.9898021 231.890625 505.78125 C226.94190562 508.06148006 221.99396695 510.34336117 217.04882812 512.63134766 C203.17391497 519.05074302 189.26886704 525.40122714 175.34004211 531.70271301 C171.16370235 533.59369121 166.99381978 535.49826562 162.82772827 537.41171265 C159.98412357 538.71685153 157.13811181 540.01668714 154.29174805 541.3157959 C152.95112821 541.929198 151.61157119 542.54492935 150.27319336 543.16320801 C136.31217955 549.60996901 125.1788976 552.88224467 110.3125 547.4375 C105.41126714 545.38920981 100.60885761 543.11702912 95.80142212 540.85958862 C91.71429473 538.94115399 87.6164594 537.04582863 83.51953125 535.1484375 C82.67760727 534.75794724 81.83568329 534.36745697 80.96824646 533.96513367 C72.06171431 529.84215311 63.09955634 525.84725979 54.125 521.875 C53.40548157 521.55632965 52.68596313 521.2376593 51.94464111 520.90933228 C48.47952954 519.3749591 45.01374014 517.84212343 41.54760742 516.31005859 C36.93953517 514.27288838 32.33227702 512.23390186 27.7265625 510.19140625 C26.62964836 509.70612709 26.62964836 509.70612709 25.51057434 509.21104431 C20.93516078 507.18046536 16.39816004 505.08202101 11.875 502.9375 C6.09769436 500.23187312 0.28858343 497.60491129 -5.5625 495.0625 C-6.3352124 494.71638672 -7.1079248 494.37027344 -7.90405273 494.01367188 C-17.50380181 489.90228916 -23.61655014 489.92047602 -33.3686676 493.79095459 C-35.48153289 494.65821352 -37.58526636 495.54481211 -39.6875 496.4375 C-40.95702234 496.96558216 -42.22671134 497.49326388 -43.49658203 498.02050781 C-46.73197773 499.37534376 -49.95272395 500.76218698 -53.16995239 502.1595459 C-55.33414636 503.09902815 -57.50061447 504.03308561 -59.66772461 504.96582031 C-62.88834999 506.3520522 -66.10845666 507.73947638 -69.328125 509.12792969 C-78.41613259 513.04542333 -87.50876593 516.95197817 -96.60836792 520.84246826 C-98.68765185 521.73267527 -100.76605659 522.62493888 -102.84353638 523.51934814 C-105.78028175 524.78355613 -108.71987956 526.04090613 -111.66015625 527.296875 C-112.5255603 527.67127716 -113.39096436 528.04567932 -114.28259277 528.431427 C-127.98257716 534.25710106 -140.02910436 536.83961748 -154.54296875 531.8203125 C-164.1207319 527.60847628 -170.1874614 521.82153954 -174.6875 512.4375 C-175.01363281 511.78394531 -175.33976562 511.13039063 -175.67578125 510.45703125 C-178.45067299 504.49956224 -178.812465 498.73029659 -178.82172108 492.23869991 C-178.82407331 491.53330815 -178.82642554 490.82791638 -178.82884905 490.10114911 C-178.83550577 487.73757806 -178.83508183 485.3740624 -178.83467102 483.01048279 C-178.83797171 481.29865166 -178.84169771 479.58682131 -178.8458125 477.87499195 C-178.85581713 473.17059014 -178.85954681 468.46620109 -178.86220181 463.76179016 C-178.86610937 458.68797444 -178.87568734 453.61416878 -178.88441467 448.5403595 C-178.90416537 436.28759502 -178.91424311 424.03482973 -178.92314246 411.78205332 C-178.92752728 406.01027583 -178.93289356 400.23849926 -178.93813133 394.46672249 C-178.95514153 375.27757552 -178.96963572 356.08842913 -178.97688007 336.89927578 C-178.97878992 331.92105038 -178.98071026 326.94282499 -178.98266602 321.96459961 C-178.98314976 320.72730691 -178.9836335 319.49001421 -178.9841319 318.21522779 C-178.99243232 298.17166447 -179.01777041 278.12816083 -179.05024669 258.08462357 C-179.0833256 237.50119377 -179.10132955 216.91779429 -179.10452431 196.33433777 C-179.10668853 184.77955521 -179.11542453 173.22485971 -179.14098549 161.67010307 C-179.16270373 151.82980826 -179.1707373 141.98962164 -179.16101871 132.14930557 C-179.15647743 127.13098343 -179.1583504 122.1128845 -179.17778015 117.09459305 C-179.19543655 112.49449049 -179.194394 107.89477357 -179.17888286 103.29466677 C-179.17651057 101.63647843 -179.18081057 99.9782632 -179.19271151 98.32011586 C-179.29016516 83.83709224 -177.40774657 71.41444506 -167.10546875 60.5546875 C-163.01202252 56.50039758 -158.99291738 54.16132606 -153.75 51.875 C-152.86086914 51.46918701 -151.97173828 51.06337402 -151.05566406 50.64526367 C-149.05318637 49.73387098 -147.04692431 48.83076221 -145.03759766 47.93457031 C-141.39481257 46.3067057 -137.76495587 44.65213746 -134.13671875 42.9921875 C-128.54904651 40.43861101 -122.95646573 37.89614655 -117.359375 35.36328125 C-109.64667628 31.87303057 -101.93877512 28.37233223 -94.23269653 24.86749268 C-92.19103275 23.93910641 -90.14914449 23.01121576 -88.10717773 22.08349609 C-81.74106918 19.19104941 -75.37594602 16.29648829 -69.0140686 13.39474487 C-66.05433759 12.04492017 -63.09408171 10.6962487 -60.13378906 9.34765625 C-58.74143857 8.71297383 -57.34933693 8.07774513 -55.95751953 7.44189453 C-49.00803999 4.26718764 -42.04656163 1.12019975 -35.04296875 -1.93359375 C-33.93977295 -2.41626709 -32.83657715 -2.89894043 -31.69995117 -3.39624023 C-20.77939539 -7.6240946 -10.12848461 -5.08948688 0 0 Z M-26.625 33.3125 C-29.91778515 35.41947535 -33.02484755 37.07176519 -36.6875 38.4375 C-42.68710087 40.80983501 -48.50858924 43.24691819 -54.125 46.4375 C-58.95585095 49.1488323 -63.85487379 51.11110097 -69.04296875 53.03125 C-73.27756528 54.66517792 -77.41829802 56.46343227 -81.5625 58.3125 C-82.24449463 58.61591309 -82.92648926 58.91932617 -83.62915039 59.23193359 C-87.7059493 61.06048742 -91.75798192 62.93772287 -95.80158997 64.83854675 C-101.90944741 67.70783682 -108.04579187 70.49153911 -114.23046875 73.19140625 C-116.38704612 74.14120719 -118.54290029 75.09262927 -120.69848633 76.04467773 C-122.16667835 76.68910122 -123.63746136 77.32764939 -125.1105957 77.96069336 C-127.28310973 78.8963294 -129.44467354 79.85407125 -131.60546875 80.81640625 C-132.58666939 81.22917564 -132.58666939 81.22917564 -133.58769226 81.65028381 C-138.23440412 83.75557123 -140.24713197 86.01179592 -142.6875 90.4375 C-143.27929382 93.80284667 -143.27929382 93.80284667 -143.18807125 97.4400034 C-143.19358542 98.1241547 -143.19909958 98.808306 -143.20478085 99.51318917 C-143.21837206 101.80478008 -143.20348202 104.09528553 -143.18870544 106.38685608 C-143.19259846 108.04664554 -143.19823891 109.70643167 -143.20547634 111.36620992 C-143.22024877 115.92655197 -143.21003918 120.48654935 -143.19573963 125.04688036 C-143.18464398 129.96513428 -143.19656774 134.88333929 -143.20558167 139.80158997 C-143.21952541 149.43589946 -143.21194971 159.07007802 -143.19690608 168.70438129 C-143.18005999 179.91915639 -143.18325445 191.13389874 -143.18700016 202.34868257 C-143.19288075 222.35528428 -143.17869899 242.36182307 -143.15405273 262.3684082 C-143.13012818 281.79128375 -143.12304948 301.21407525 -143.13354492 320.63696289 C-143.14494826 341.77793224 -143.14689167 362.91886269 -143.13244683 384.05983156 C-143.13092095 386.31308043 -143.1294006 388.5663293 -143.12788582 390.81957817 C-143.1267491 392.48262643 -143.1267491 392.48262643 -143.12558941 394.17927163 C-143.12084232 402.00068038 -143.12270101 409.8220718 -143.12695122 417.6434803 C-143.1318724 427.17146225 -143.12591794 436.69936466 -143.10605692 446.22732837 C-143.09616978 451.09069266 -143.09109515 455.95393571 -143.09894943 460.81730652 C-143.10598788 465.26645469 -143.09924481 469.71535781 -143.0813458 474.16447359 C-143.07728938 475.7767501 -143.0783211 477.38904881 -143.08486467 479.00131715 C-143.09298265 481.18811927 -143.08274291 483.37408923 -143.06781673 485.56083775 C-143.0667876 486.77686729 -143.06575848 487.99289683 -143.06469816 489.24577576 C-142.64934596 492.76034669 -141.84349434 494.65179743 -139.6875 497.4375 C-134.72930623 499.1798398 -131.65493175 497.97931669 -126.99609375 495.8671875 C-126.36953384 495.58908234 -125.74297394 495.31097717 -125.09742737 495.02444458 C-123.09989138 494.13464282 -121.11243599 493.22460714 -119.125 492.3125 C-116.52200706 491.13768359 -113.91538101 489.97105539 -111.30859375 488.8046875 C-110.35179718 488.37360939 -110.35179718 488.37360939 -109.37567139 487.93382263 C-104.13818136 485.59075473 -98.82166964 483.5073983 -93.44018555 481.51538086 C-90.88814511 480.51606747 -88.49047711 479.3921755 -86.0625 478.125 C-79.06822907 474.51577686 -71.76230132 471.6146893 -64.49707031 468.60253906 C-60.37290465 466.8923793 -56.25231584 465.17365793 -52.13134766 463.45581055 C-50.04543099 462.58665203 -47.95918231 461.71828978 -45.87255859 460.85083008 C-44.90914551 460.45017334 -43.94573242 460.0495166 -42.953125 459.63671875 C-41.57592285 459.06993408 -41.57592285 459.06993408 -40.17089844 458.49169922 C-38.6895125 457.86285293 -37.21853201 457.20684627 -35.77441406 456.49658203 C-30.81875211 454.07634155 -26.34064587 453.92102699 -20.9375 453.9375 C-20.10734375 453.90914062 -19.2771875 453.88078125 -18.421875 453.8515625 C-11.19714971 453.82926397 -6.05597335 456.23901736 0.3125 459.4375 C2.52258255 460.4415366 4.7377062 461.43453054 6.95703125 462.41796875 C8.69895752 463.19744873 8.69895752 463.19744873 10.47607422 463.99267578 C11.68021973 464.53134277 12.88436523 465.07000977 14.125 465.625 C24.2150342 470.14102155 34.29278955 474.68250704 44.34692383 479.27807617 C47.79431826 480.85146767 51.24246113 482.40752913 54.7265625 483.8984375 C59.62428586 486.00051049 64.46516461 488.22217983 69.3125 490.4375 C72.12735496 491.72059986 74.94253285 493.0029885 77.7578125 494.28515625 C79.64349193 495.14395454 81.52890437 496.00333926 83.4140625 496.86328125 C88.35740159 499.11340059 93.3125112 501.31647067 98.3125 503.4375 C100.96110963 504.57697866 103.60587502 505.72516021 106.25 506.875 C106.95511719 507.17921875 107.66023437 507.4834375 108.38671875 507.796875 C111.97259984 509.35739732 115.41219477 510.99736561 118.8125 512.9375 C124.18492876 515.23996947 128.5408927 514.1196479 133.8125 512.08984375 C134.9675 511.52394531 136.1225 510.95804688 137.3125 510.375 C138.27071655 509.9119043 138.27071655 509.9119043 139.24829102 509.43945312 C144.61163683 506.83318697 149.92366004 504.12041872 155.24438477 501.4284668 C161.80642894 498.1350635 168.51316578 495.21194794 175.26043701 492.32258606 C182.13146875 489.35900529 188.92735805 486.24066637 195.703125 483.06640625 C197.48297221 482.23611222 199.26292343 481.4060411 201.04296875 480.57617188 C203.79933629 479.2904377 206.55509434 478.00347112 209.30908203 476.71264648 C218.65450385 472.33454317 227.94386355 468.05903142 237.62548828 464.47338867 C241.4315532 463.00608598 245.02089324 461.21414549 248.625 459.3125 C256.77427838 455.04422275 263.72619927 451.90485559 273.0625 451.9375 C273.784375 451.90914062 274.50625 451.88078125 275.25 451.8515625 C282.35407885 451.82672306 287.94456495 454.51998834 294.3125 457.4375 C295.66838187 458.03418017 297.02555089 458.62794144 298.38378906 459.21923828 C302.16918823 460.86818472 305.94588223 462.5359764 309.71972656 464.21118164 C312.04330692 465.24148952 314.36925967 466.26630435 316.6953125 467.29101562 C324.73348387 470.84800744 332.65886423 474.55367809 340.49763489 478.53102112 C347.31520189 481.97730759 354.26592011 485.09647542 361.25 488.1875 C362.49819478 488.74315745 363.74624175 489.29914707 364.99414062 489.85546875 C367.36803902 490.91323327 369.74335491 491.96757879 372.11962891 493.02001953 C374.11421162 493.90551787 376.10648835 494.79625066 378.09521484 495.69482422 C379.29525146 496.23647217 379.29525146 496.23647217 380.51953125 496.7890625 C381.19604736 497.09666504 381.87256348 497.40426758 382.56958008 497.72119141 C385.10942172 498.76502043 386.63406238 499.18151045 389.3125 498.4375 C392.50765273 495.24504311 394.09915745 493.57346517 394.93809515 489.10645187 C394.93836484 487.88364237 394.93863453 486.66083288 394.93891239 485.40096855 C394.94588 484.7131409 394.95284761 484.02531325 394.96002635 483.31664234 C394.97726854 481.01235395 394.95890821 478.70974771 394.94068909 476.40548706 C394.94573436 474.73673239 394.95296305 473.06798314 394.96218723 471.39924634 C394.98113889 466.81410719 394.96885946 462.22950044 394.9514643 457.64437461 C394.93810907 452.69954326 394.95352066 447.75479078 394.96528625 442.80996704 C394.98368016 433.12383207 394.97513918 423.43789861 394.95719803 413.75176989 C394.94318278 405.88198539 394.93927691 398.01225565 394.9426403 390.14245987 C394.94311775 389.02318176 394.94359519 387.90390365 394.9440871 386.75070802 C394.94511341 384.47707214 394.94616876 382.20343626 394.94725286 379.92980041 C394.95582327 359.81888255 394.93913298 339.70806212 394.90942383 319.59716797 C394.88057792 300.07043364 394.8735061 280.54383964 394.88891602 261.01708984 C394.90566495 239.76442021 394.90972634 218.51181721 394.89220566 197.25914586 C394.89036122 194.99440011 394.88852649 192.72965436 394.88670158 190.4649086 C394.88578949 189.35054083 394.8848774 188.23617305 394.88393768 187.08803656 C394.87832473 179.22407346 394.88164644 171.36014283 394.88824654 163.49618149 C394.89596606 153.91800914 394.8892768 144.33997508 394.8640715 134.76183067 C394.85154523 129.87223095 394.84546774 124.98284687 394.85661316 120.09323883 C394.86661446 115.62125231 394.8582843 111.14969692 394.83503198 106.67776312 C394.82984973 105.0560858 394.83147555 103.43437021 394.84042663 101.81270932 C394.85155045 99.61540019 394.83826946 97.4195671 394.81865788 95.22234917 C394.81746639 93.99986438 394.81627491 92.77737959 394.81504732 91.5178498 C394.21383194 87.83271686 393.21000184 86.70898262 390.3125 84.4375 C387.95225661 83.0654584 387.95225661 83.0654584 385.33984375 81.95703125 C384.36724609 81.51979736 383.39464844 81.08256348 382.39257812 80.63208008 C381.35552734 80.17599365 380.31847656 79.71990723 379.25 79.25 C377.07118362 78.27179268 374.89280308 77.29261405 372.71484375 76.3125 C371.63187012 75.8278125 370.54889648 75.343125 369.43310547 74.84375 C365.03574128 72.86214949 360.66960318 70.81837197 356.3125 68.75 C355.54663574 68.38720947 354.78077148 68.02441895 353.99169922 67.65063477 C348.91603003 65.23362352 343.88994455 62.72763804 338.875 60.1875 C334.55369318 58.00038533 330.24749712 55.93307161 325.75 54.125 C319.73781672 51.69716064 313.90823023 48.92419091 308.0625 46.125 C307.06605469 45.64853027 306.06960938 45.17206055 305.04296875 44.68115234 C300.4914529 42.4922951 295.96095696 40.27648554 291.48046875 37.9453125 C290.75827148 37.57188721 290.03607422 37.19846191 289.29199219 36.8137207 C287.97562825 36.12799645 286.66456754 35.43194528 285.36035156 34.72338867 C281.48648809 32.70472761 278.66081087 31.79520049 274.3125 32.4375 C271.91880678 33.60598532 269.79635585 34.77497414 267.5625 36.1875 C262.76913681 39.07370452 258.11923645 41.49181929 252.86328125 43.453125 C245.36775701 46.3457316 238.15652481 49.98807756 231 53.625 C227.28344471 55.5026347 223.63637987 57.12658109 219.71313477 58.50097656 C216.60099436 59.71506896 213.61094472 61.13667901 210.58984375 62.5625 C205.10405714 65.1403311 199.60521097 67.68604825 194.0859375 70.19140625 C193.39685806 70.50424057 192.70777863 70.81707489 191.99781799 71.13938904 C189.89464601 72.09351693 187.79111343 73.04684583 185.6875 74 C180.2273991 76.47528768 174.76848099 78.95314289 169.3125 81.4375 C168.11923096 81.98083984 166.92596191 82.52417969 165.6965332 83.08398438 C161.01727491 85.22764227 156.36475123 87.37785126 151.80859375 89.7734375 C140.99350729 95.33115399 130.44601266 97.92973542 118.3125 95.4375 C113.95044276 93.98971599 110.02363239 91.92407787 106.0859375 89.578125 C103.44940825 88.011517 100.85273049 86.80545573 97.98828125 85.7109375 C90.70450183 82.89424939 83.72528278 79.4208966 76.68969727 76.04336548 C60.05288343 68.05892221 43.34283925 60.24544431 26.55786133 52.57763672 C18.48907097 48.88289903 10.48578151 45.09959472 2.58459473 41.05647278 C-1.75736544 38.84619553 -6.15109862 37.02192866 -10.70703125 35.3125 C-13.39487025 34.1249735 -15.43189747 32.29505502 -17.6875 30.4375 C-22.03530426 30.4375 -23.0927495 31.03749121 -26.625 33.3125 Z " fill="#34352C" transform="translate(264.6875,117.5625)"/>
<path d="M0 0 C4.03448115 0.32597096 6.21610273 1.54948748 9.7109375 3.58203125 C16.33433325 7.30234547 23.10768983 10.56590502 30.0234375 13.70703125 C31.05130371 14.17447754 32.07916992 14.64192383 33.13818359 15.12353516 C38.00559797 17.32878433 42.88128943 19.51513226 47.76171875 21.69140625 C55.87914672 25.31372842 63.92004379 29.00311401 71.84008789 33.03979492 C80.44091326 37.38855073 89.23332672 41.33427793 97.9921875 45.3515625 C104.13396302 48.16930454 110.25043212 51.03802504 116.34936523 53.94726562 C118.99150837 55.20123352 121.55755822 56.34340482 124.3359375 57.26953125 C124.52341584 73.34283035 124.66418199 89.41577094 124.75043488 105.48990154 C124.79156116 112.95465998 124.84755684 120.41873628 124.93945312 127.88305664 C125.019579 134.39446322 125.07089391 140.90537548 125.08864546 147.41726142 C125.09901117 150.86064752 125.12309718 154.30262039 125.18177795 157.74555016 C125.60282494 185.51943378 125.60282494 185.51943378 116.3359375 195.26953125 C114.68436302 196.95115466 113.01964031 198.62007667 111.3359375 200.26953125 C110.66433594 200.93855469 109.99273437 201.60757813 109.30078125 202.296875 C104.02774969 207.26510704 95.97723224 214.26953125 88.3359375 214.26953125 C88.3359375 215.25953125 88.3359375 216.24953125 88.3359375 217.26953125 C89.20734375 217.52734375 90.07875 217.78515625 90.9765625 218.05078125 C103.81090854 222.7069626 114.42722991 233.28202495 121.27734375 244.84765625 C123.50857212 249.95231157 123.4613341 255.24529372 123.46292114 260.74189758 C123.46526113 261.83883754 123.46526113 261.83883754 123.46764839 262.9579379 C123.47162217 265.39686545 123.46848289 267.83573024 123.46533203 270.2746582 C123.46668762 272.02759335 123.46846844 273.7805282 123.47064209 275.53346252 C123.47519598 280.28509606 123.4734357 285.03670785 123.470263 289.78834176 C123.46773087 294.7579989 123.47007914 299.72765419 123.47164917 304.6973114 C123.47346751 313.03722468 123.47107244 321.37712909 123.46630859 329.71704102 C123.4608577 339.37151431 123.46263597 349.02596651 123.468135 358.68043929 C123.47266504 366.96416095 123.47331749 375.24787625 123.47069633 383.53159875 C123.4691341 388.48184219 123.46893851 393.43207569 123.47223282 398.3823185 C123.47511024 403.03046475 123.47313825 407.67858363 123.46733856 412.32672691 C123.46601065 414.0372348 123.4664056 415.74774496 123.46860123 417.45825195 C123.4713113 419.78289399 123.4679335 422.10744686 123.46292114 424.43208313 C123.4623556 426.38796089 123.4623556 426.38796089 123.46177864 428.38335133 C123.3359375 431.26953125 123.3359375 431.26953125 122.3359375 432.26953125 C117.08115589 431.87835644 113.32354431 430.50407356 108.7109375 428.01953125 C103.00080991 425.01626743 97.230771 422.62786868 91.171875 420.390625 C88.79608115 419.45143377 86.70675921 418.45353635 84.5234375 417.14453125 C81.61222667 415.43205429 78.80172309 414.3027542 75.62890625 413.1796875 C72.812002 412.06156367 70.15964377 410.71075571 67.4609375 409.33203125 C63.83980183 407.48525206 60.25827307 405.78101456 56.4609375 404.33203125 C51.70788244 402.50685811 47.24634441 400.2288567 42.71923828 397.90649414 C37.80124718 395.42095073 32.78000669 393.48676066 27.6171875 391.58203125 C22.87206555 389.68398247 18.39750642 387.31520865 13.85546875 384.98046875 C9.26165218 382.74729266 4.58570578 380.96365673 -0.21484375 379.21484375 C-2.6640625 378.26953125 -2.6640625 378.26953125 -3.6640625 377.26953125 C-3.762773 375.27406888 -3.78961943 373.27504772 -3.78990364 371.27714539 C-3.79251139 369.9660143 -3.79511914 368.65488321 -3.79780591 367.30402088 C-3.79564337 365.82987772 -3.7933867 364.35573469 -3.79104614 362.8815918 C-3.79219697 361.33051612 -3.79378423 359.77944072 -3.79577339 358.2283659 C-3.79997204 353.94555678 -3.79787362 349.66276977 -3.79478717 345.37996054 C-3.79253545 340.76914408 -3.79601153 336.15833156 -3.79876709 331.54751587 C-3.80322624 322.50680349 -3.80224768 313.46609938 -3.79935445 304.42538667 C-3.79710098 297.08130974 -3.79678765 289.73723514 -3.79787827 282.39315796 C-3.7980315 281.35004635 -3.79818473 280.30693473 -3.79834261 279.23221368 C-3.79866232 277.11350894 -3.79898653 274.9948042 -3.7993152 272.87609947 C-3.80217042 252.98390198 -3.79888232 233.09170909 -3.79351483 213.19951236 C-3.78904676 196.11119604 -3.78982268 179.02288651 -3.79443359 161.93457031 C-3.79977862 142.11615925 -3.80189572 122.29775223 -3.79882133 102.47934055 C-3.79850276 100.36819522 -3.79818839 98.25704988 -3.79787827 96.14590454 C-3.79772399 95.10703478 -3.79756971 94.06816502 -3.79741076 92.99781436 C-3.79654539 85.65799627 -3.79800891 78.31818073 -3.80035782 70.97836304 C-3.80315523 62.0401314 -3.80241882 53.10190855 -3.79707707 44.16367793 C-3.79443925 39.59859149 -3.79343635 35.03351973 -3.79672623 30.46843338 C-3.79968755 26.29632381 -3.79809915 22.12424264 -3.79274867 17.95213568 C-3.79162378 16.43600735 -3.79221725 14.91987666 -3.79462446 13.40374982 C-3.79762777 11.35647385 -3.79397552 9.30919124 -3.78990364 7.26191711 C-3.78974129 6.12064015 -3.78957894 4.97936319 -3.78941166 3.80350208 C-3.61677264 0.31355264 -3.48405746 0.35249262 0 0 Z " fill="#32332A" transform="translate(259.6640625,175.73046875)"/>
<path d="M0 0 C0.02286993 47.21214081 0.04050004 94.42428104 0.05106533 141.63642629 C0.05231609 147.20545282 0.05361041 152.77447934 0.05493164 158.34350586 C0.05532511 160.00660258 0.05532511 160.00660258 0.05572652 161.70329722 C0.06008233 179.6749825 0.06796939 197.64666459 0.0771528 215.61834798 C0.08649181 234.0477345 0.09205614 252.47711935 0.09408849 270.90650815 C0.0954632 282.28589574 0.09981101 293.66527433 0.10791647 305.04465916 C0.11318697 312.83926992 0.1148036 320.633876 0.11350138 328.42848841 C0.11285848 332.9310337 0.11387014 337.43356322 0.11920547 341.93610573 C0.12404897 346.05346208 0.12433233 350.17079196 0.12089889 354.2881495 C0.12047414 355.782137 0.12176188 357.27612611 0.12488318 358.77011041 C0.12886438 360.79234045 0.12614905 362.81458043 0.12304783 364.83681202 C0.12342755 365.9626828 0.12380727 367.08855358 0.1241985 368.24854165 C0 371 0 371 -1 374 C-6.3816324 377.37476948 -12.32599743 379.84897579 -18.3125 381.9375 C-24.56540801 384.12161435 -30.47270082 386.95031737 -36.44482422 389.79248047 C-41.32995694 392.10108609 -46.23583959 394.36526289 -51.13821411 396.63696289 C-54.20748213 398.0597324 -57.27553983 399.48510732 -60.34375 400.91015625 C-64.13434287 402.67030151 -67.92561705 404.42892988 -71.71875 406.18359375 C-77.29510814 408.76796158 -82.8327225 411.40280804 -88.3125 414.1875 C-92.46116535 416.28378329 -96.61316392 418.07035081 -100.953125 419.72265625 C-103.57678469 420.82257512 -106.11472675 422.00244505 -108.671875 423.24609375 C-109.51548584 423.65561279 -110.35909668 424.06513184 -111.22827148 424.48706055 C-112.92722957 425.3173591 -114.62221483 426.15584574 -116.31274414 427.00317383 C-117.49791626 427.58168091 -117.49791626 427.58168091 -118.70703125 428.171875 C-119.4131958 428.5234668 -120.11936035 428.87505859 -120.84692383 429.23730469 C-123.34265607 430.12138083 -125.3700994 430.05299804 -128 430 C-128.14032049 406.59059945 -128.24604479 383.18126217 -128.31087303 359.77152538 C-128.34177745 348.90133267 -128.38389276 338.03140166 -128.45263672 327.16137695 C-128.51254318 317.68422891 -128.55117395 308.20727046 -128.56453097 298.72993833 C-128.57233569 293.71421761 -128.59060719 288.69903915 -128.63438034 283.68349266 C-128.67529919 278.95640969 -128.68763031 274.23008903 -128.67864609 269.50284576 C-128.68028815 267.77392487 -128.69210813 266.04497681 -128.71523285 264.31620979 C-128.84350728 254.22628109 -128.14741523 246.45717603 -122 238 C-121.57484289 237.40362323 -121.14968578 236.80724646 -120.71164513 236.19279766 C-114.38141194 227.96103118 -103.6270721 217.74941973 -93 216 C-95.96084533 212.54568045 -98.53154773 210.62835953 -102.6875 208.75 C-113.75178702 203.46482718 -122.62819165 193.50020136 -127.364645 182.20224762 C-128.69359189 177.5958935 -128.35324134 172.80758274 -128.28051758 168.05371094 C-128.27441467 166.86757202 -128.26831177 165.68143311 -128.26202393 164.45935059 C-128.24206085 161.22389408 -128.20849032 157.9889433 -128.16811585 154.75368786 C-128.12850941 151.36258586 -128.10476293 147.97136779 -128.07878113 144.58013916 C-128.03275866 138.89085166 -127.97462734 133.20178774 -127.90893555 127.51269531 C-127.83310765 120.93538155 -127.77511318 114.35809707 -127.72690278 107.78052688 C-127.68018369 101.44634001 -127.62226505 95.11230623 -127.55875206 88.77826691 C-127.53185787 86.08457395 -127.50864973 83.39088641 -127.48835182 80.69713593 C-127.45748508 76.94081221 -127.41380632 73.18485817 -127.36645508 69.42871094 C-127.35958176 68.30970398 -127.35270844 67.19069702 -127.34562683 66.03778076 C-127.33012787 65.01724609 -127.31462891 63.99671143 -127.29866028 62.94525146 C-127.28923306 62.05743862 -127.27980585 61.16962578 -127.27009296 60.25490952 C-127 58 -127 58 -125 55 C-122.8059082 53.89892578 -122.8059082 53.89892578 -119.98828125 52.8203125 C-114.72720187 50.72342014 -109.56399028 48.48246748 -104.41796875 46.1171875 C-103.29335739 45.60155243 -103.29335739 45.60155243 -102.14602661 45.07550049 C-99.82573341 44.0103641 -97.50653785 42.94286644 -95.1875 41.875 C-92.84394798 40.79745476 -90.50011435 39.72053032 -88.15583801 38.64456177 C-86.71062055 37.98108278 -85.26583574 37.31666017 -83.82157898 36.65109253 C-79.57505847 34.69966437 -75.29688266 32.83870966 -71 31 C-69.11299117 30.13935016 -67.23010185 29.26960758 -65.3515625 28.390625 C-64.27922363 27.89030762 -63.20688477 27.38999023 -62.10205078 26.87451172 C-60.95462402 26.33842285 -59.80719727 25.80233398 -58.625 25.25 C-46.06895429 19.39476757 -33.4660826 13.64602713 -20.84228516 7.93847656 C-20.16363403 7.63114594 -19.48498291 7.32381531 -18.7857666 7.00717163 C-16.94631183 6.1742417 -15.1062352 5.34268548 -13.26611328 4.51123047 C-11.08917041 3.5039591 -8.9399895 2.43438948 -6.82373047 1.30517578 C-4 0 -4 0 0 0 Z " fill="#32332A" transform="translate(528,177)"/>
<path d="M0 0 C0 124.08 0 248.16 0 376 C-0.66 376 -1.32 376 -2 376 C-2.33 376.99 -2.66 377.98 -3 379 C-5.39823624 380.04979397 -7.71285473 380.92369456 -10.1875 381.75 C-17.0338824 384.16077367 -23.2984291 387.06658834 -29.75 390.40234375 C-33.58320477 392.28669561 -37.46691139 393.72397601 -41.5 395.11328125 C-44.56890183 396.20178237 -47.50137244 397.50697479 -50.46484375 398.8515625 C-53.75728684 400.34305444 -57.06224875 401.80435865 -60.375 403.25 C-61.55835938 403.77078125 -62.74171875 404.2915625 -63.9609375 404.828125 C-67 406 -67 406 -70 406 C-70 406.66 -70 407.32 -70 408 C-70.85722656 408.32613281 -71.71445313 408.65226562 -72.59765625 408.98828125 C-73.74105469 409.42527344 -74.88445312 409.86226562 -76.0625 410.3125 C-77.24972656 410.76496094 -78.43695313 411.21742188 -79.66015625 411.68359375 C-82.16611089 412.6713209 -84.57465152 413.7136416 -87 414.875 C-90 416 -90 416 -95 415 C-95 291.58 -95 168.16 -95 41 C-77.4918717 32.24593585 -77.4918717 32.24593585 -71.01220703 29.35009766 C-67.1502188 27.6191206 -63.30803084 25.84646247 -59.46484375 24.07421875 C-57.89651747 23.35214165 -56.32815755 22.63013761 -54.75976562 21.90820312 C-52.36017455 20.80337468 -49.96073854 19.69821537 -47.56176758 18.59204102 C-38.83218438 14.56750937 -30.09209319 10.56769016 -21.31640625 6.64453125 C-20.5981517 6.32167648 -19.87989716 5.99882172 -19.13987732 5.66618347 C-15.71539831 4.14234828 -12.27305899 2.66411649 -8.79272461 1.2722168 C-8.18327499 1.0266655 -7.57382538 0.7811142 -6.94590759 0.52812195 C-5 0 -5 0 0 0 Z " fill="#32332A" transform="translate(235,175)"/>
<path d="M0 0 C10.47096626 0.98165309 21.19779523 8.44833592 30.57617188 13.01196289 C32.47983414 13.93767378 34.38442122 14.86146176 36.2890625 15.78515625 C37.41006348 16.33051025 38.53106445 16.87586426 39.68603516 17.43774414 C41.89428554 18.47874857 44.12164097 19.48015703 46.3659668 20.44091797 C50.57924056 22.24850724 54.71533801 24.19216553 58.85546875 26.16015625 C59.67952713 26.55069687 60.50358551 26.94123749 61.35261536 27.34361267 C63.08326457 28.16409769 64.81362214 28.98519814 66.54370117 29.80688477 C69.18930528 31.06335738 71.83578271 32.31797494 74.48242188 33.57226562 C76.16932179 34.3722884 77.85617246 35.17241501 79.54296875 35.97265625 C80.33156784 36.34665054 81.12016693 36.72064484 81.93266296 37.10597229 C83.03950188 37.63178139 83.03950188 37.63178139 84.16870117 38.16821289 C84.81377121 38.47449112 85.45884125 38.78076935 86.12345886 39.09632874 C88.09248894 40.04453918 90.0462011 41.02085645 92 42 C92.04573414 89.48394694 92.08099716 136.96789155 92.10213066 184.45185616 C92.1046322 190.05221404 92.10722084 195.65257187 92.10986328 201.25292969 C92.1103879 202.36790438 92.11091252 203.48287907 92.11145304 204.63164087 C92.12016602 222.70747117 92.13594089 240.78328881 92.15430559 258.85911159 C92.17297983 277.39358385 92.18411147 295.92804945 92.18817699 314.46253073 C92.1909272 325.90795826 92.19962704 337.35334999 92.21583293 348.79876651 C92.22636929 356.63729148 92.22960826 364.47579783 92.22700275 372.31432937 C92.22571622 376.84309763 92.22774846 381.37180315 92.23841095 385.90056038 C92.24808784 390.04071142 92.24867146 394.18075708 92.24179779 398.32091279 C92.24094728 399.82430528 92.24353134 401.32770414 92.24976636 402.83108394 C92.25771047 404.8635825 92.25230582 406.8961205 92.24609566 408.92862511 C92.24723482 410.62711414 92.24723482 410.62711414 92.24839699 412.35991609 C92 415 92 415 90 417 C84.77228686 416.72933438 80.77103666 414.59202819 76.25 412.1875 C72.06300511 409.98229419 67.90936677 407.91885796 63.4921875 406.2109375 C56.11895829 403.3297129 49.01967357 399.83575362 41.875 396.4375 C38.85378203 395.00456799 35.83149664 393.57390508 32.80859375 392.14453125 C32.06104324 391.79090515 31.31349274 391.43727905 30.54328918 391.07293701 C22.70615247 387.37428571 14.81705763 383.79060235 6.89599609 380.27514648 C5.53788818 379.66328491 5.53788818 379.66328491 4.15234375 379.0390625 C3.36851318 378.69053223 2.58468262 378.34200195 1.77709961 377.98291016 C0 377 0 377 -1 375 C-1.09601235 372.97377342 -1.12555094 370.9443011 -1.12584114 368.91580105 C-1.12844889 367.6096457 -1.13105664 366.30349036 -1.13374341 364.95775455 C-1.131581 363.49441415 -1.12932433 362.03107389 -1.12698364 360.56773376 C-1.12813479 359.02404464 -1.12972227 357.48035578 -1.13171089 355.9366675 C-1.13590507 351.67892083 -1.13381312 347.42119642 -1.13072467 343.16344965 C-1.12847117 338.57787253 -1.13194992 333.99229936 -1.13470459 329.40672302 C-1.13916171 320.41761678 -1.1381861 311.42851886 -1.13529195 302.43941229 C-1.13303783 295.13731199 -1.13272543 287.83521403 -1.13381577 280.53311348 C-1.133969 279.49568808 -1.13412223 278.45826268 -1.13428011 277.38940014 C-1.13459982 275.28221094 -1.13492403 273.17502174 -1.1352527 271.06783254 C-1.13810729 251.28817737 -1.13482073 231.50852683 -1.12945233 211.72887243 C-1.12498365 194.73778438 -1.1257608 177.74670316 -1.13037109 160.75561523 C-1.1357161 141.04743336 -1.13783329 121.33925555 -1.13475883 101.63107306 C-1.13444026 99.53173896 -1.13412589 97.43240486 -1.13381577 95.33307076 C-1.13366149 94.3000242 -1.13350721 93.26697765 -1.13334826 92.20262666 C-1.13248293 84.90437501 -1.13394631 77.60612593 -1.13629532 70.30787468 C-1.13909267 61.42090419 -1.13835641 52.53394254 -1.13301457 43.64697307 C-1.13037678 39.10820811 -1.12937382 34.56945792 -1.13266373 30.03069305 C-1.13562505 25.88267882 -1.13403665 21.73469316 -1.12868617 17.58668155 C-1.12756129 16.07933137 -1.12815473 14.57197882 -1.13056196 13.06463014 C-1.1335653 11.02920764 -1.129913 8.99377846 -1.12584114 6.95835781 C-1.12567879 5.82369845 -1.12551644 4.68903909 -1.12534916 3.51999611 C-1 1 -1 1 0 0 Z " fill="#32332A" transform="translate(550,174)"/>
<path d="M0 0 C0.66 0 1.32 0 2 0 C2.06839833 28.48519228 2.12150861 56.97037427 2.15319599 85.45563256 C2.15694823 88.81653187 2.16083118 92.17743101 2.16479492 95.53833008 C2.16558185 96.20744086 2.16636878 96.87655163 2.16717956 97.5659385 C2.18024302 108.40830195 2.20390201 119.25061781 2.23145839 130.092953 C2.25948648 141.21341306 2.27594611 152.33385678 2.28226548 163.45435256 C2.28618486 169.70259027 2.29543006 175.95071994 2.31719017 182.19892311 C2.337489 188.07490703 2.3438472 193.95073797 2.33932304 199.82675362 C2.34015121 201.98794128 2.34615596 204.14913385 2.35761642 206.31029129 C2.37245716 209.25216143 2.36898444 212.19344764 2.36076355 215.1353302 C2.36950207 215.99816409 2.3782406 216.86099799 2.38724393 217.74997836 C2.34236363 223.65763637 2.34236363 223.65763637 -1 227 C-0.67 152.09 -0.34 77.18 0 0 Z " fill="#BBA169" transform="translate(547,176)"/>
<path d="M0 0 C0.66 0.33 1.32 0.66 2 1 C-1.08195897 4.5561065 -3.56523051 5.60869977 -8 7 C-9.19980618 7.70873507 -10.38717404 8.43886847 -11.5625 9.1875 C-15 11 -15 11 -17.9375 10.75 C-18.618125 10.5025 -19.29875 10.255 -20 10 C-16.30598193 7.53732129 -12.44058166 5.71604008 -8.4375 3.8125 C-7.65697266 3.43158203 -6.87644531 3.05066406 -6.07226562 2.65820312 C-5.32525391 2.30306641 -4.57824219 1.94792969 -3.80859375 1.58203125 C-3.12595459 1.25436768 -2.44331543 0.9267041 -1.73999023 0.58911133 C-1.16579346 0.39470459 -0.59159668 0.20029785 0 0 Z " fill="#4D4D44" transform="translate(485,137)"/>
<path d="M0 0 C0.66 0.33 1.32 0.66 2 1 C-0.45627573 3.631724 -2.55352037 5.81527263 -6 7 C-8.25 6.625 -8.25 6.625 -10 6 C-6.87511433 3.47605388 -3.68685613 1.60298093 0 0 Z " fill="#4B4A41" transform="translate(182,137)"/>
<path d="M0 0 C0.81210937 0.56847656 0.81210937 0.56847656 1.640625 1.1484375 C0.18355774 1.65211507 -1.27507596 2.15126306 -2.734375 2.6484375 C-3.95253906 3.06609375 -3.95253906 3.06609375 -5.1953125 3.4921875 C-7.359375 4.1484375 -7.359375 4.1484375 -9.359375 4.1484375 C-9.359375 4.8084375 -9.359375 5.4684375 -9.359375 6.1484375 C-10.679375 5.4884375 -11.999375 4.8284375 -13.359375 4.1484375 C-11.61908198 3.25428695 -9.8666735 2.38368572 -8.109375 1.5234375 C-7.13484375 1.03617188 -6.1603125 0.54890625 -5.15625 0.046875 C-2.359375 -0.8515625 -2.359375 -0.8515625 0 0 Z " fill="#46463C" transform="translate(505.359375,129.8515625)"/>
<path d="M0 0 C0 0.99 0 1.98 0 3 C-4.32564205 4.58255197 -8.428721 5.45144652 -13 6 C-10.87838666 3.87838666 -9.2266841 3.07013751 -6.5 1.875 C-5.7059375 1.52179688 -4.911875 1.16859375 -4.09375 0.8046875 C-2 0 -2 0 0 0 Z " fill="#4A4B41" transform="translate(518,123)"/>
<path d="M0 0 C-0.66 0.66 -1.32 1.32 -2 2 C-5.0390625 1.9765625 -5.0390625 1.9765625 -8.625 1.625 C-9.81351563 1.51414062 -11.00203125 1.40328125 -12.2265625 1.2890625 C-13.14179688 1.19367188 -14.05703125 1.09828125 -15 1 C-15 0.67 -15 0.34 -15 0 C-9.77254141 -1.2063366 -5.23471686 -0.75612577 0 0 Z " fill="#504E44" transform="translate(257,114)"/>
<path d="M0 0 C0 0.66 0 1.32 0 2 C-5.29230769 5.07692308 -5.29230769 5.07692308 -8.875 4.6875 C-9.57625 4.460625 -10.2775 4.23375 -11 4 C-5 0 -5 0 0 0 Z " fill="#434339" transform="translate(476,143)"/>
<path d="M0 0 C5.75 1.75 5.75 1.75 8 4 C7.67 4.66 7.34 5.32 7 6 C1.25 4.25 1.25 4.25 -1 2 C-0.67 1.34 -0.34 0.68 0 0 Z " fill="#4F4F45" transform="translate(298,134)"/>
<path d="M0 0 C0 0.99 0 1.98 0 3 C-3.82320557 4.42258812 -6.91281305 5.24042276 -11 5 C-8.12934225 2.12934225 -4.13678472 0 0 0 Z " fill="#4C4B42" transform="translate(529,118)"/>
<path d="M0 0 C0 0.33 0 0.66 0 1 C-5.52967941 1.71033431 -10.49983036 2.30267176 -16 1 C-16 0.67 -16 0.34 -16 0 C-10.42289352 -1.06795656 -5.60563042 -0.82622671 0 0 Z " fill="#65645B" transform="translate(551,115)"/>
<path d="M0 0 C0.33 0.99 0.66 1.98 1 3 C-0.32 4.32 -1.64 5.64 -3 7 C-3.99 6.67 -4.98 6.34 -6 6 C-4.02 4.02 -2.04 2.04 0 0 Z " fill="#3D3D33" transform="translate(100,176)"/>
<path d="M0 0 C0.86625 0.3403125 0.86625 0.3403125 1.75 0.6875 C0.5625 2.25 0.5625 2.25 -1.25 3.6875 C-3.9375 3.375 -3.9375 3.375 -6.25 2.6875 C-2.80384615 -0.38942308 -2.80384615 -0.38942308 0 0 Z " fill="#4B4B41" transform="translate(213.25,124.3125)"/>
</svg>
