<?xml version="1.0" encoding="utf-8"?>
<svg xmlns="http://www.w3.org/2000/svg" width="260" height="150" viewBox="0 0 260 150" fill="none">
  <defs>
    <filter id="softShadow2" x="-20%" y="-20%" width="140%" height="170%">
      <feDropShadow dx="0" dy="6" stdDeviation="5" flood-color="#7FA4B8" flood-opacity="0.18"/>
    </filter>
  </defs>
  <g filter="url(#softShadow2)">
    <path d="M57 111c-19.882 0-36-12.984-36-29s16.118-29 36-29c3.985 0 7.818.522 11.433 1.484C76.372 39.385 93.944 29 114 29c18.181 0 34.101 8.539 42.134 21.311A39.43 39.43 0 0 1 167 49c19.33 0 35 12.984 35 29s-15.67 29-35 29H57z" style="fill: rgb(9, 72, 137);"/>
    <path d="M73 101c8 6 23 10 43 10 23 0 43-4 55-12-3 .5-6 1-9 1H69c1 0 3 .5 4 1z" fill-opacity="0.4" style="fill: rgba(5, 24, 43, 0.757);"/>
  </g>
</svg>