<?xml version="1.0" encoding="utf-8"?>
<svg xmlns="http://www.w3.org/2000/svg" width="360" height="160" viewBox="0 0 360 160" fill="none">
  <defs>
    <filter id="softShadow5" x="-20%" y="-20%" width="140%" height="170%">
      <feDropShadow dx="0" dy="7" stdDeviation="6" flood-color="#7FA4B8" flood-opacity="0.18"/>
    </filter>
  </defs>
  <g filter="url(#softShadow5)">
    <path d="M53 120c-18.225 0-33-12.089-33-27s14.775-27 33-27c5.641 0 10.952 1.157 15.72 3.197C75.564 52.222 92.688 41 112.5 41c19.307 0 36.066 10.657 43.962 26.093A45.357 45.357 0 0 1 171 65c5.97 0 11.644 1.049 16.78 2.945C194.462 57.785 206.755 51 220.5 51c20.711 0 37.5 13.431 37.5 30s-16.789 30-37.5 30H53z" style="fill: rgb(9, 72, 137);"/>
    <path d="M78 109c10 6.5 29 10 52 10 30 0 55-5 72-14-4 1-8 2-13 2H72c2 0 4 1 6 2z" fill-opacity="0.42" style="fill: rgba(5, 24, 43, 0.757);"/>
  </g>
</svg>