<svg xmlns="http://www.w3.org/2000/svg" width="220" height="120" viewBox="0 0 220 120" fill="none">
  <defs>
    <filter id="s2" x="-20%" y="-20%" width="160%" height="180%">
      <feDropShadow dx="0" dy="4" stdDeviation="4" flood-color="#6F8FA3" flood-opacity="0.22"/>
    </filter>
  </defs>
  <g filter="url(#s2)">
    <path d="M34 77 146 68l31 13-19 13L57 102 28 89Z" fill="#F6F1E5"/>
    <path d="M146 68 177 81l-19 13-13-14Z" fill="#D9E3E8"/>
    <path d="M28 89 57 102l101-8 19-13-108 9Z" fill="#EAE2D3"/>
    <path d="M78 58 128 54l17 14-52 5Z" fill="#FBF8F0"/>
    <path d="M95 48 122 46l10 8-28 3Z" fill="#F7F2E6"/>
    <path d="M99 46 105 28 108 28 103 46Z" fill="#D7E2E8"/>
    <path d="M82 78 142 73" stroke="#99AFBC" stroke-width="2" stroke-linecap="round"/>
    <path d="M41 80c22-3 52-5 85-8" stroke="#6E95AB" stroke-width="1.5" opacity=".55"/>
    <path d="M49 73 58 60l2 1-7 14Z" fill="#D9E3E8"/>
  </g>
</svg>
